<svg width="45" height="45" fill="none" xmlns="http://www.w3.org/2000/svg"><path d="M42.363 16.047v-1.545c0-5.089-4.14-9.229-9.228-9.229H31.68C31.07 2.323 28.388 0 25.137 0h-7.998C12.05 0 7.91 4.14 7.91 9.229v1.45a6.609 6.609 0 00-5.175 5.335A3.962 3.962 0 000 19.775v5.274a3.962 3.962 0 002.808 3.785l2.116 12.861A3.943 3.943 0 008.825 45h27.35a3.943 3.943 0 003.9-3.305l.001-.003 2.116-12.858A3.962 3.962 0 0045 25.049v-5.274a3.961 3.961 0 00-2.637-3.728zM33.135 7.91a6.6 6.6 0 016.592 6.592v1.318h-2.77c-.612-3.005-3.276-5.273-6.459-5.273h-9.09a3.961 3.961 0 013.729-2.637h7.998zM10.547 9.23a6.6 6.6 0 016.592-6.592h7.998c1.721 0 3.232 1.118 3.802 2.636h-3.802c-3.184 0-5.847 2.269-6.46 5.274h-8.13V9.229zm-1.318 3.955h21.269a3.962 3.962 0 013.728 2.636h-2.098a3.934 3.934 0 00-3.538 2.187l-1.179 2.358c-.225.45-.677.729-1.18.729h-7.37c-.535 0-1.08-.315-1.295-.749l-1.156-2.329a3.932 3.932 0 00-3.543-2.196H5.5a3.961 3.961 0 013.729-2.636zm28.245 28.08a1.314 1.314 0 01-1.3 1.1H8.826a1.314 1.314 0 01-1.3-1.1l-2.017-12.26h33.984l-2.017 12.26zm4.89-16.215a1.32 1.32 0 01-1.32 1.318H3.956a1.32 1.32 0 01-1.318-1.318v-5.274a1.32 1.32 0 011.318-1.318h8.912c.504 0 .957.28 1.181.732l1.156 2.329c.657 1.323 2.127 2.212 3.657 2.212h7.37a3.934 3.934 0 003.538-2.186l1.18-2.358c.224-.45.676-.729 1.179-.729h8.917a1.32 1.32 0 011.318 1.318v5.274z" fill="#fff"/><path d="M14.502 31.64c-.728 0-1.318.59-1.318 1.319v5.45a1.318 1.318 0 002.636 0v-5.45c0-.728-.59-1.318-1.318-1.318zm7.998 0c-.728 0-1.318.59-1.318 1.319v5.45a1.318 1.318 0 002.636 0v-5.45c0-.728-.59-1.318-1.318-1.318zm7.998 0c-.728 0-1.318.59-1.318 1.319v5.45a1.318 1.318 0 002.636 0v-5.45c0-.728-.59-1.318-1.318-1.318z" fill="#fff"/></svg>