<svg width="24" height="24" fill="none" xmlns="http://www.w3.org/2000/svg"><path d="M21.45 4.922l.108-1.406h1.27V2.109H1.172v1.407h1.27l.108 1.406H0v.703a11.92 11.92 0 003.23 8.19l.619 8.076H20.15l.618-8.076A11.915 11.915 0 0024 5.625v-.703h-2.55zM1.43 6.328h1.228l.377 4.936A10.524 10.524 0 011.43 6.328zm17.419 14.156H5.15l-.405-5.298A11.91 11.91 0 0012 17.625c2.655 0 5.178-.857 7.254-2.44l-.405 5.3zm.558-7.292A10.558 10.558 0 0112 16.219c-2.88 0-5.495-1.156-7.407-3.027l-.74-9.676h16.294l-.74 9.676zm1.558-1.928l.377-4.936h1.229a10.524 10.524 0 01-1.606 4.936z" fill="#62C0CB"/></svg>