<svg width="45" height="45" fill="none" xmlns="http://www.w3.org/2000/svg"><g clip-path="url(#clip0)"><path d="M42.563 20.665l-1.29-7.724a6.688 6.688 0 00-2.146-4.304 6.69 6.69 0 00-4.53-1.761H10.403a6.69 6.69 0 00-4.53 1.76 6.689 6.689 0 00-2.145 4.305l-1.29 7.724H0V23.3h2.36l1.096 10.87.005.04a4.517 4.517 0 004.465 3.915h29.15a4.517 4.517 0 004.465-3.914l1.1-10.909H45v-2.636h-2.437zM6.336 13.328l.013-.102a4.047 4.047 0 014.053-3.714h24.196a4.047 4.047 0 014.053 3.714l.005.051 1.234 7.388H5.11l1.226-7.337zm20.16 9.973l-1.207 2.914H19.71L18.504 23.3h7.992zm12.428 10.581a1.873 1.873 0 01-1.849 1.605H7.925a1.873 1.873 0 01-1.849-1.605l-1.065-10.58H15.65l2.3 5.55h9.1l2.3-5.55h10.64l-1.066 10.58z" fill="#BFBFBF"/></g><defs><clipPath id="clip0"><path fill="#fff" d="M0 0h45v45H0z"/></clipPath></defs></svg>