<svg width="50" height="50" fill="none" xmlns="http://www.w3.org/2000/svg"><g clip-path="url(#clip0)" fill="#383838"><path d="M25.548 41.828a.906.906 0 00.03-.035L42.68 20.879a.737.737 0 00.016-.907l-1.737-2.38a.733.733 0 10-1.184.865l.895 1.226h-8.52l4.26-5.833 1.083 1.482a.733.733 0 101.183-.865l-1.674-2.292a.741.741 0 00-.595-.3H13.602a.764.764 0 00-.595.304l-5.691 7.793c-.2.264-.2.646.016.907l8.698 10.638c.33.32.673.354 1.031.103a.733.733 0 00.104-1.031l-7.72-9.44h9.3l4.649 17.058-3.681-4.502a.733.733 0 00-1.135.928l5.857 7.162a.738.738 0 001.113.034zm-.542-3.28l-4.743-17.4h9.486l-4.743 17.4zm-4.26-18.866l4.26-5.833 4.26 5.833h-8.52zm-1.442-.51l-4.26-5.833h8.52l-4.26 5.833zm21.263 1.975L26.619 38.206l4.649-17.059h9.299zm-9.859-1.975l-4.26-5.833h8.52l-4.26 5.833zm-21.366.51l4.26-5.833 4.26 5.833h-8.52zm31.38-9.597a.73.73 0 00.519-.215l2.092-2.094c.67-.67-.367-1.706-1.036-1.036l-2.093 2.095c-.435.435-.096 1.25.518 1.25zm5.898 9.909a.733.733 0 00.19-.026l2.658-.713c.915-.245.536-1.66-.38-1.415l-2.658.713c-.82.22-.629 1.44.19 1.44zm-3.614 9.136l-1.29-.347c-.916-.245-1.295 1.17-.38 1.416l1.29.346c.883.236 1.285-1.173.38-1.416zm6.417 1.72l-3.778-1.013c-.915-.244-1.295 1.17-.38 1.416l3.778 1.013c.883.236 1.285-1.173.38-1.415zm-12.738 4.899c-.67-.67-1.707.365-1.037 1.036l3.4 3.402c.669.67 1.706-.366 1.036-1.036l-3.4-3.402zm5.512 5.518c-.67-.67-1.707.365-1.037 1.035l1.019 1.02c.67.67 1.706-.366 1.036-1.036l-1.019-1.02zm-11.379 2.928l-.249-.928c-.245-.916-1.66-.537-1.416.378l.249.929c.24.9 1.661.54 1.416-.379zm.742 2.778c-.246-.915-1.661-.536-1.416.38l.564 2.108c.097.362.539.614.898.519a.733.733 0 00.518-.898l-.565-2.109zM29.457 8.646c.36.097.801-.156.898-.518l.338-1.264c.245-.915-1.17-1.294-1.415-.379l-.339 1.264a.733.733 0 00.518.897zm1.057-3.949c.359.096.8-.157.898-.518l.876-3.274c.245-.916-1.17-1.295-1.416-.38L29.996 3.8a.733.733 0 00.518.897zM8.756 9.87c.67.67 1.707-.365 1.037-1.035L7.7 6.74c-.67-.67-1.706.366-1.036 1.036L8.756 9.87zM.531 19.255l2.658.713c.883.237 1.285-1.172.38-1.415L.911 17.84c-.915-.245-1.295 1.17-.38 1.415zm7.752 9.528l-1.29.346c-.903.242-.496 1.65.38 1.416l1.29-.346c.915-.246.536-1.66-.38-1.416zm-3.93 1.054L.575 30.851c-.903.242-.496 1.65.38 1.415l3.777-1.013c.915-.246.536-1.66-.38-1.416zm8.962 5.912l-3.4 3.402c-.669.67.368 1.706 1.037 1.036l3.4-3.402c.67-.67-.367-1.706-1.037-1.036zm-5.513 5.518l-1.02 1.02c-.669.67.368 1.705 1.038 1.035l1.018-1.02c.67-.67-.367-1.706-1.036-1.035zm12.525 1.481a.733.733 0 00-.897.519l-.249.928c-.238.89 1.168 1.304 1.416.38l.249-.93a.733.733 0 00-.519-.897zm-.992 3.707a.733.733 0 00-.898.518l-.564 2.11c-.238.89 1.168 1.303 1.415.378l.565-2.109a.733.733 0 00-.518-.897zm.49-40.488a.733.733 0 00-.519.897l.339 1.264c.24.9 1.661.54 1.415-.379l-.338-1.264a.733.733 0 00-.897-.518zm-1.238-1.789c.24.9 1.66.54 1.415-.378L19.126.526c-.245-.916-1.66-.537-1.416.378l.877 3.274z"/></g><defs><clipPath id="clip0"><path fill="#fff" d="M0 0h50v50H0z"/></clipPath></defs></svg>