<svg width="24" height="24" fill="none" xmlns="http://www.w3.org/2000/svg"><path d="M19.457 19.781a11.286 11.286 0 003.84-8.484 11.22 11.22 0 00-3.309-7.988A11.223 11.223 0 0012 0a11.223 11.223 0 00-7.988 3.309 11.223 11.223 0 00-3.309 7.988 11.287 11.287 0 003.84 8.484H0V24h24v-4.219h-4.543zm-15.979-3.46a9.88 9.88 0 01-1.369-5.024c0-5.454 4.437-9.89 9.891-9.89s9.89 4.436 9.89 9.89a9.879 9.879 0 01-4.806 8.484h-1.568V17.44a7.082 7.082 0 003.562-6.142A7.086 7.086 0 0012 4.219a7.086 7.086 0 00-7.078 7.078 7.082 7.082 0 003.562 6.142v2.342H6.916a9.949 9.949 0 01-3.438-3.46zm5.006-6.43v5.854a5.665 5.665 0 01-2.156-4.448A5.678 5.678 0 0112 5.625a5.678 5.678 0 015.672 5.672c0 1.8-.844 3.408-2.156 4.448V9.89h-1.407v6.67a5.642 5.642 0 01-2.109.41 5.642 5.642 0 01-2.11-.407V9.89H8.485zM12 18.375c.734 0 1.443-.113 2.11-.321v1.727H9.89v-1.727a7.054 7.054 0 002.11.321zm10.594 4.219H1.406v-1.407h21.188v1.407z" fill="#62C0CB"/></svg>