<svg width="890" height="230" fill="none" xmlns="http://www.w3.org/2000/svg"><circle cx="454.089" cy="1.344" r="1.31" fill="#BAE0E1"/><circle cx="454.089" cy="18.81" r="1.31" fill="#BAE0E1"/><circle cx="454.089" cy="36.277" r="1.31" fill="#BAE0E1"/><circle cx="454.089" cy="53.744" r="1.31" fill="#BAE0E1"/><circle cx="454.089" cy="71.211" r="1.31" fill="#BAE0E1"/><circle cx="454.089" cy="88.677" r="1.31" fill="#BAE0E1"/><circle cx="454.089" cy="106.144" r="1.31" fill="#BAE0E1"/><circle cx="454.089" cy="123.611" r="1.31" fill="#BAE0E1"/><circle cx="454.089" cy="141.077" r="1.31" fill="#BAE0E1"/><circle cx="454.089" cy="158.544" r="1.31" fill="#BAE0E1"/><circle cx="454.089" cy="176.011" r="1.31" fill="#BAE0E1"/><circle cx="454.089" cy="193.478" r="1.31" fill="#BAE0E1"/><circle cx="454.089" cy="210.944" r="1.31" fill="#BAE0E1"/><circle cx="454.089" cy="228.411" r="1.31" fill="#BAE0E1"/><circle cx="471.555" cy="1.344" r="1.31" fill="#BAE0E1"/><circle cx="471.555" cy="18.81" r="1.31" fill="#BAE0E1"/><circle cx="471.555" cy="36.277" r="1.31" fill="#BAE0E1"/><circle cx="471.555" cy="53.744" r="1.31" fill="#BAE0E1"/><circle cx="471.555" cy="71.211" r="1.31" fill="#BAE0E1"/><circle cx="471.555" cy="88.677" r="1.31" fill="#BAE0E1"/><circle cx="471.555" cy="106.144" r="1.31" fill="#BAE0E1"/><circle cx="471.555" cy="123.611" r="1.31" fill="#BAE0E1"/><circle cx="471.555" cy="141.077" r="1.31" fill="#BAE0E1"/><circle cx="471.555" cy="158.544" r="1.31" fill="#BAE0E1"/><circle cx="471.555" cy="176.011" r="1.31" fill="#BAE0E1"/><circle cx="471.555" cy="193.478" r="1.31" fill="#BAE0E1"/><circle cx="471.555" cy="210.944" r="1.31" fill="#BAE0E1"/><circle cx="471.555" cy="228.411" r="1.31" fill="#BAE0E1"/><circle cx=".06" cy="123.611" r="1.31" fill="#BAE0E1"/><circle cx=".06" cy="106.144" r="1.31" fill="#BAE0E1"/><circle cx=".06" cy="88.677" r="1.31" fill="#BAE0E1"/><circle cx=".06" cy="71.211" r="1.31" fill="#BAE0E1"/><circle cx=".06" cy="53.744" r="1.31" fill="#BAE0E1"/><circle cx=".06" cy="36.277" r="1.31" fill="#BAE0E1"/><circle cx=".06" cy="18.81" r="1.31" fill="#BAE0E1"/><circle cx=".06" cy="1.344" r="1.31" fill="#BAE0E1"/><circle cx=".06" cy="141.077" r="1.31" fill="#BAE0E1"/><circle cx=".06" cy="158.544" r="1.31" fill="#BAE0E1"/><circle cx=".06" cy="176.011" r="1.31" fill="#BAE0E1"/><circle cx=".06" cy="193.478" r="1.31" fill="#BAE0E1"/><circle cx=".06" cy="210.944" r="1.31" fill="#BAE0E1"/><circle cx=".06" cy="228.411" r="1.31" fill="#BAE0E1"/><circle cx="489.022" cy="1.344" r="1.31" fill="#BAE0E1"/><circle cx="489.022" cy="18.81" r="1.31" fill="#BAE0E1"/><circle cx="489.022" cy="36.277" r="1.31" fill="#BAE0E1"/><circle cx="489.022" cy="53.744" r="1.31" fill="#BAE0E1"/><circle cx="489.022" cy="71.211" r="1.31" fill="#BAE0E1"/><circle cx="489.022" cy="88.677" r="1.31" fill="#BAE0E1"/><circle cx="489.022" cy="106.144" r="1.31" fill="#BAE0E1"/><circle cx="489.022" cy="123.611" r="1.31" fill="#BAE0E1"/><circle cx="489.022" cy="141.077" r="1.31" fill="#BAE0E1"/><circle cx="489.022" cy="158.544" r="1.31" fill="#BAE0E1"/><circle cx="489.022" cy="176.011" r="1.31" fill="#BAE0E1"/><circle cx="489.022" cy="193.478" r="1.31" fill="#BAE0E1"/><circle cx="489.022" cy="210.944" r="1.31" fill="#BAE0E1"/><circle cx="489.022" cy="228.411" r="1.31" fill="#BAE0E1"/><circle cx="17.527" cy="123.611" r="1.31" fill="#BAE0E1"/><circle cx="17.527" cy="106.144" r="1.31" fill="#BAE0E1"/><circle cx="17.527" cy="88.677" r="1.31" fill="#BAE0E1"/><circle cx="17.527" cy="71.211" r="1.31" fill="#BAE0E1"/><circle cx="17.527" cy="53.744" r="1.31" fill="#BAE0E1"/><circle cx="17.527" cy="36.277" r="1.31" fill="#BAE0E1"/><circle cx="17.527" cy="18.81" r="1.31" fill="#BAE0E1"/><circle cx="17.527" cy="1.344" r="1.31" fill="#BAE0E1"/><circle cx="17.527" cy="141.077" r="1.31" fill="#BAE0E1"/><circle cx="17.527" cy="158.544" r="1.31" fill="#BAE0E1"/><circle cx="17.527" cy="176.011" r="1.31" fill="#BAE0E1"/><circle cx="17.527" cy="193.478" r="1.31" fill="#BAE0E1"/><circle cx="17.527" cy="210.944" r="1.31" fill="#BAE0E1"/><circle cx="17.527" cy="228.411" r="1.31" fill="#BAE0E1"/><circle cx="506.489" cy="1.344" r="1.31" fill="#BAE0E1"/><circle cx="506.489" cy="18.81" r="1.31" fill="#BAE0E1"/><circle cx="506.489" cy="36.277" r="1.31" fill="#BAE0E1"/><circle cx="506.489" cy="53.744" r="1.31" fill="#BAE0E1"/><circle cx="506.489" cy="71.211" r="1.31" fill="#BAE0E1"/><circle cx="506.489" cy="88.677" r="1.31" fill="#BAE0E1"/><circle cx="506.489" cy="106.144" r="1.31" fill="#BAE0E1"/><circle cx="506.489" cy="123.611" r="1.31" fill="#BAE0E1"/><circle cx="506.489" cy="141.077" r="1.31" fill="#BAE0E1"/><circle cx="506.489" cy="158.544" r="1.31" fill="#BAE0E1"/><circle cx="506.489" cy="176.011" r="1.31" fill="#BAE0E1"/><circle cx="506.489" cy="193.478" r="1.31" fill="#BAE0E1"/><circle cx="506.489" cy="210.944" r="1.31" fill="#BAE0E1"/><circle cx="506.489" cy="228.411" r="1.31" fill="#BAE0E1"/><circle cx="34.994" cy="123.611" r="1.31" fill="#BAE0E1"/><circle cx="34.994" cy="106.144" r="1.31" fill="#BAE0E1"/><circle cx="34.994" cy="88.677" r="1.31" fill="#BAE0E1"/><circle cx="34.994" cy="71.211" r="1.31" fill="#BAE0E1"/><circle cx="34.994" cy="53.744" r="1.31" fill="#BAE0E1"/><circle cx="34.994" cy="36.277" r="1.31" fill="#BAE0E1"/><circle cx="34.994" cy="18.81" r="1.31" fill="#BAE0E1"/><circle cx="34.994" cy="1.344" r="1.31" fill="#BAE0E1"/><circle cx="34.994" cy="141.077" r="1.31" fill="#BAE0E1"/><circle cx="34.994" cy="158.544" r="1.31" fill="#BAE0E1"/><circle cx="34.994" cy="176.011" r="1.31" fill="#BAE0E1"/><circle cx="34.994" cy="193.478" r="1.31" fill="#BAE0E1"/><circle cx="34.994" cy="210.944" r="1.31" fill="#BAE0E1"/><circle cx="34.994" cy="228.411" r="1.31" fill="#BAE0E1"/><circle cx="523.955" cy="1.344" r="1.31" fill="#BAE0E1"/><circle cx="523.955" cy="18.81" r="1.31" fill="#BAE0E1"/><circle cx="523.955" cy="36.277" r="1.31" fill="#BAE0E1"/><circle cx="523.955" cy="53.744" r="1.31" fill="#BAE0E1"/><circle cx="523.955" cy="71.211" r="1.31" fill="#BAE0E1"/><circle cx="523.955" cy="88.677" r="1.31" fill="#BAE0E1"/><circle cx="523.955" cy="106.144" r="1.31" fill="#BAE0E1"/><circle cx="523.955" cy="123.611" r="1.31" fill="#BAE0E1"/><circle cx="523.955" cy="141.077" r="1.31" fill="#BAE0E1"/><circle cx="523.955" cy="158.544" r="1.31" fill="#BAE0E1"/><circle cx="523.955" cy="176.011" r="1.31" fill="#BAE0E1"/><circle cx="523.955" cy="193.478" r="1.31" fill="#BAE0E1"/><circle cx="523.955" cy="210.944" r="1.31" fill="#BAE0E1"/><circle cx="523.955" cy="228.411" r="1.31" fill="#BAE0E1"/><circle cx="52.461" cy="123.611" r="1.31" fill="#BAE0E1"/><circle cx="52.461" cy="106.144" r="1.31" fill="#BAE0E1"/><circle cx="52.461" cy="88.677" r="1.31" fill="#BAE0E1"/><circle cx="52.461" cy="71.211" r="1.31" fill="#BAE0E1"/><circle cx="52.461" cy="53.744" r="1.31" fill="#BAE0E1"/><circle cx="52.461" cy="36.277" r="1.31" fill="#BAE0E1"/><circle cx="52.461" cy="18.81" r="1.31" fill="#BAE0E1"/><circle cx="52.461" cy="1.344" r="1.31" fill="#BAE0E1"/><circle cx="52.461" cy="141.077" r="1.31" fill="#BAE0E1"/><circle cx="52.461" cy="158.544" r="1.31" fill="#BAE0E1"/><circle cx="52.461" cy="176.011" r="1.31" fill="#BAE0E1"/><circle cx="52.461" cy="193.478" r="1.31" fill="#BAE0E1"/><circle cx="52.461" cy="210.944" r="1.31" fill="#BAE0E1"/><circle cx="52.461" cy="228.411" r="1.31" fill="#BAE0E1"/><circle cx="541.422" cy="1.344" r="1.31" fill="#BAE0E1"/><circle cx="541.422" cy="18.81" r="1.31" fill="#BAE0E1"/><circle cx="541.422" cy="36.277" r="1.31" fill="#BAE0E1"/><circle cx="541.422" cy="53.744" r="1.31" fill="#BAE0E1"/><circle cx="541.422" cy="71.211" r="1.31" fill="#BAE0E1"/><circle cx="541.422" cy="88.677" r="1.31" fill="#BAE0E1"/><circle cx="541.422" cy="106.144" r="1.31" fill="#BAE0E1"/><circle cx="541.422" cy="123.611" r="1.31" fill="#BAE0E1"/><circle cx="541.422" cy="141.077" r="1.31" fill="#BAE0E1"/><circle cx="541.422" cy="158.544" r="1.31" fill="#BAE0E1"/><circle cx="541.422" cy="176.011" r="1.31" fill="#BAE0E1"/><circle cx="541.422" cy="193.478" r="1.31" fill="#BAE0E1"/><circle cx="541.422" cy="210.944" r="1.31" fill="#BAE0E1"/><circle cx="541.422" cy="228.411" r="1.31" fill="#BAE0E1"/><circle cx="69.927" cy="123.611" r="1.31" fill="#BAE0E1"/><circle cx="69.927" cy="106.144" r="1.31" fill="#BAE0E1"/><circle cx="69.927" cy="88.677" r="1.31" fill="#BAE0E1"/><circle cx="69.927" cy="71.211" r="1.31" fill="#BAE0E1"/><circle cx="69.927" cy="53.744" r="1.31" fill="#BAE0E1"/><circle cx="69.927" cy="36.277" r="1.31" fill="#BAE0E1"/><circle cx="69.927" cy="18.81" r="1.31" fill="#BAE0E1"/><circle cx="69.927" cy="1.344" r="1.31" fill="#BAE0E1"/><circle cx="69.927" cy="141.077" r="1.31" fill="#BAE0E1"/><circle cx="69.927" cy="158.544" r="1.31" fill="#BAE0E1"/><circle cx="69.927" cy="176.011" r="1.31" fill="#BAE0E1"/><circle cx="69.927" cy="193.478" r="1.31" fill="#BAE0E1"/><circle cx="69.927" cy="210.944" r="1.31" fill="#BAE0E1"/><circle cx="69.927" cy="228.411" r="1.31" fill="#BAE0E1"/><circle cx="558.889" cy="1.344" r="1.31" fill="#BAE0E1"/><circle cx="558.889" cy="18.81" r="1.31" fill="#BAE0E1"/><circle cx="558.889" cy="36.277" r="1.31" fill="#BAE0E1"/><circle cx="558.889" cy="53.744" r="1.31" fill="#BAE0E1"/><circle cx="558.889" cy="71.211" r="1.31" fill="#BAE0E1"/><circle cx="558.889" cy="88.677" r="1.31" fill="#BAE0E1"/><circle cx="558.889" cy="106.144" r="1.31" fill="#BAE0E1"/><circle cx="558.889" cy="123.611" r="1.31" fill="#BAE0E1"/><circle cx="558.889" cy="141.077" r="1.31" fill="#BAE0E1"/><circle cx="558.889" cy="158.544" r="1.31" fill="#BAE0E1"/><circle cx="558.889" cy="176.011" r="1.31" fill="#BAE0E1"/><circle cx="558.889" cy="193.478" r="1.31" fill="#BAE0E1"/><circle cx="558.889" cy="210.944" r="1.31" fill="#BAE0E1"/><circle cx="558.889" cy="228.411" r="1.31" fill="#BAE0E1"/><circle cx="87.394" cy="123.611" r="1.31" fill="#BAE0E1"/><circle cx="87.394" cy="106.144" r="1.31" fill="#BAE0E1"/><circle cx="87.394" cy="88.677" r="1.31" fill="#BAE0E1"/><circle cx="87.394" cy="71.211" r="1.31" fill="#BAE0E1"/><circle cx="87.394" cy="53.744" r="1.31" fill="#BAE0E1"/><circle cx="87.394" cy="36.277" r="1.31" fill="#BAE0E1"/><circle cx="87.394" cy="18.81" r="1.31" fill="#BAE0E1"/><circle cx="87.394" cy="1.344" r="1.31" fill="#BAE0E1"/><circle cx="87.394" cy="141.077" r="1.31" fill="#BAE0E1"/><circle cx="87.394" cy="158.544" r="1.31" fill="#BAE0E1"/><circle cx="87.394" cy="176.011" r="1.31" fill="#BAE0E1"/><circle cx="87.394" cy="193.478" r="1.31" fill="#BAE0E1"/><circle cx="87.394" cy="210.944" r="1.31" fill="#BAE0E1"/><circle cx="87.394" cy="228.411" r="1.31" fill="#BAE0E1"/><circle cx="576.356" cy="1.344" r="1.31" fill="#BAE0E1"/><circle cx="576.356" cy="18.81" r="1.31" fill="#BAE0E1"/><circle cx="576.356" cy="36.277" r="1.31" fill="#BAE0E1"/><circle cx="576.356" cy="53.744" r="1.31" fill="#BAE0E1"/><circle cx="576.356" cy="71.211" r="1.31" fill="#BAE0E1"/><circle cx="576.356" cy="88.677" r="1.31" fill="#BAE0E1"/><circle cx="576.356" cy="106.144" r="1.31" fill="#BAE0E1"/><circle cx="576.356" cy="123.611" r="1.31" fill="#BAE0E1"/><circle cx="576.356" cy="141.077" r="1.31" fill="#BAE0E1"/><circle cx="576.356" cy="158.544" r="1.31" fill="#BAE0E1"/><circle cx="576.356" cy="176.011" r="1.31" fill="#BAE0E1"/><circle cx="576.356" cy="193.478" r="1.31" fill="#BAE0E1"/><circle cx="576.356" cy="210.944" r="1.31" fill="#BAE0E1"/><circle cx="576.356" cy="228.411" r="1.31" fill="#BAE0E1"/><circle cx="104.861" cy="123.611" r="1.31" fill="#BAE0E1"/><circle cx="104.861" cy="106.144" r="1.31" fill="#BAE0E1"/><circle cx="104.861" cy="88.677" r="1.31" fill="#BAE0E1"/><circle cx="104.861" cy="71.211" r="1.31" fill="#BAE0E1"/><circle cx="104.861" cy="53.744" r="1.31" fill="#BAE0E1"/><circle cx="104.861" cy="36.277" r="1.31" fill="#BAE0E1"/><circle cx="104.861" cy="18.81" r="1.31" fill="#BAE0E1"/><circle cx="104.861" cy="1.344" r="1.31" fill="#BAE0E1"/><circle cx="104.861" cy="141.077" r="1.31" fill="#BAE0E1"/><circle cx="104.861" cy="158.544" r="1.31" fill="#BAE0E1"/><circle cx="104.861" cy="176.011" r="1.31" fill="#BAE0E1"/><circle cx="104.861" cy="193.478" r="1.31" fill="#BAE0E1"/><circle cx="104.861" cy="210.944" r="1.31" fill="#BAE0E1"/><circle cx="104.861" cy="228.411" r="1.31" fill="#BAE0E1"/><circle cx="593.822" cy="1.344" r="1.31" fill="#BAE0E1"/><circle cx="593.822" cy="18.81" r="1.31" fill="#BAE0E1"/><circle cx="593.822" cy="36.277" r="1.31" fill="#BAE0E1"/><circle cx="593.822" cy="53.744" r="1.31" fill="#BAE0E1"/><circle cx="593.822" cy="71.211" r="1.31" fill="#BAE0E1"/><circle cx="593.822" cy="88.677" r="1.31" fill="#BAE0E1"/><circle cx="593.822" cy="106.144" r="1.31" fill="#BAE0E1"/><circle cx="593.822" cy="123.611" r="1.31" fill="#BAE0E1"/><circle cx="593.822" cy="141.077" r="1.31" fill="#BAE0E1"/><circle cx="593.822" cy="158.544" r="1.31" fill="#BAE0E1"/><circle cx="593.822" cy="176.011" r="1.31" fill="#BAE0E1"/><circle cx="593.822" cy="193.478" r="1.31" fill="#BAE0E1"/><circle cx="593.822" cy="210.944" r="1.31" fill="#BAE0E1"/><circle cx="593.822" cy="228.411" r="1.31" fill="#BAE0E1"/><circle cx="122.327" cy="123.611" r="1.31" fill="#BAE0E1"/><circle cx="122.327" cy="106.144" r="1.31" fill="#BAE0E1"/><circle cx="122.327" cy="88.677" r="1.31" fill="#BAE0E1"/><circle cx="122.327" cy="71.211" r="1.31" fill="#BAE0E1"/><circle cx="122.327" cy="53.744" r="1.31" fill="#BAE0E1"/><circle cx="122.327" cy="36.277" r="1.31" fill="#BAE0E1"/><circle cx="122.327" cy="18.81" r="1.31" fill="#BAE0E1"/><circle cx="122.327" cy="1.344" r="1.31" fill="#BAE0E1"/><circle cx="122.327" cy="141.077" r="1.31" fill="#BAE0E1"/><circle cx="122.327" cy="158.544" r="1.31" fill="#BAE0E1"/><circle cx="122.327" cy="176.011" r="1.31" fill="#BAE0E1"/><circle cx="122.327" cy="193.478" r="1.31" fill="#BAE0E1"/><circle cx="122.327" cy="210.944" r="1.31" fill="#BAE0E1"/><circle cx="122.327" cy="228.411" r="1.31" fill="#BAE0E1"/><circle cx="611.289" cy="1.344" r="1.31" fill="#BAE0E1"/><circle cx="611.289" cy="18.81" r="1.31" fill="#BAE0E1"/><circle cx="611.289" cy="36.277" r="1.31" fill="#BAE0E1"/><circle cx="611.289" cy="53.744" r="1.31" fill="#BAE0E1"/><circle cx="611.289" cy="71.211" r="1.31" fill="#BAE0E1"/><circle cx="611.289" cy="88.677" r="1.31" fill="#BAE0E1"/><circle cx="611.289" cy="106.144" r="1.31" fill="#BAE0E1"/><circle cx="611.289" cy="123.611" r="1.31" fill="#BAE0E1"/><circle cx="611.289" cy="141.077" r="1.31" fill="#BAE0E1"/><circle cx="611.289" cy="158.544" r="1.31" fill="#BAE0E1"/><circle cx="611.289" cy="176.011" r="1.31" fill="#BAE0E1"/><circle cx="611.289" cy="193.478" r="1.31" fill="#BAE0E1"/><circle cx="611.289" cy="210.944" r="1.31" fill="#BAE0E1"/><circle cx="611.289" cy="228.411" r="1.31" fill="#BAE0E1"/><circle cx="139.794" cy="123.611" r="1.31" fill="#BAE0E1"/><circle cx="139.794" cy="106.144" r="1.31" fill="#BAE0E1"/><circle cx="139.794" cy="88.677" r="1.31" fill="#BAE0E1"/><circle cx="139.794" cy="71.211" r="1.31" fill="#BAE0E1"/><circle cx="139.794" cy="53.744" r="1.31" fill="#BAE0E1"/><circle cx="139.794" cy="36.277" r="1.31" fill="#BAE0E1"/><circle cx="139.794" cy="18.81" r="1.31" fill="#BAE0E1"/><circle cx="139.794" cy="1.344" r="1.31" fill="#BAE0E1"/><circle cx="139.794" cy="141.077" r="1.31" fill="#BAE0E1"/><circle cx="139.794" cy="158.544" r="1.31" fill="#BAE0E1"/><circle cx="139.794" cy="176.011" r="1.31" fill="#BAE0E1"/><circle cx="139.794" cy="193.478" r="1.31" fill="#BAE0E1"/><circle cx="139.794" cy="210.944" r="1.31" fill="#BAE0E1"/><circle cx="139.794" cy="228.411" r="1.31" fill="#BAE0E1"/><circle cx="628.756" cy="1.344" r="1.31" fill="#BAE0E1"/><circle cx="628.756" cy="18.81" r="1.31" fill="#BAE0E1"/><circle cx="628.756" cy="36.277" r="1.31" fill="#BAE0E1"/><circle cx="628.756" cy="53.744" r="1.31" fill="#BAE0E1"/><circle cx="628.756" cy="71.211" r="1.31" fill="#BAE0E1"/><circle cx="628.756" cy="88.677" r="1.31" fill="#BAE0E1"/><circle cx="628.756" cy="106.144" r="1.31" fill="#BAE0E1"/><circle cx="628.756" cy="123.611" r="1.31" fill="#BAE0E1"/><circle cx="628.756" cy="141.077" r="1.31" fill="#BAE0E1"/><circle cx="628.756" cy="158.544" r="1.31" fill="#BAE0E1"/><circle cx="628.756" cy="176.011" r="1.31" fill="#BAE0E1"/><circle cx="628.756" cy="193.478" r="1.31" fill="#BAE0E1"/><circle cx="628.756" cy="210.944" r="1.31" fill="#BAE0E1"/><circle cx="628.756" cy="228.411" r="1.31" fill="#BAE0E1"/><circle cx="157.261" cy="123.611" r="1.31" fill="#BAE0E1"/><circle cx="157.261" cy="106.144" r="1.31" fill="#BAE0E1"/><circle cx="157.261" cy="88.677" r="1.31" fill="#BAE0E1"/><circle cx="157.261" cy="71.211" r="1.31" fill="#BAE0E1"/><circle cx="157.261" cy="53.744" r="1.31" fill="#BAE0E1"/><circle cx="157.261" cy="36.277" r="1.31" fill="#BAE0E1"/><circle cx="157.261" cy="18.81" r="1.31" fill="#BAE0E1"/><circle cx="157.261" cy="1.344" r="1.31" fill="#BAE0E1"/><circle cx="157.261" cy="141.077" r="1.31" fill="#BAE0E1"/><circle cx="157.261" cy="158.544" r="1.31" fill="#BAE0E1"/><circle cx="157.261" cy="176.011" r="1.31" fill="#BAE0E1"/><circle cx="157.261" cy="193.478" r="1.31" fill="#BAE0E1"/><circle cx="157.261" cy="210.944" r="1.31" fill="#BAE0E1"/><circle cx="157.261" cy="228.411" r="1.31" fill="#BAE0E1"/><circle cx="646.223" cy="1.344" r="1.31" fill="#BAE0E1"/><circle cx="646.223" cy="18.81" r="1.31" fill="#BAE0E1"/><circle cx="646.223" cy="36.277" r="1.31" fill="#BAE0E1"/><circle cx="646.223" cy="53.744" r="1.31" fill="#BAE0E1"/><circle cx="646.223" cy="71.211" r="1.31" fill="#BAE0E1"/><circle cx="646.223" cy="88.677" r="1.31" fill="#BAE0E1"/><circle cx="646.223" cy="106.144" r="1.31" fill="#BAE0E1"/><circle cx="646.223" cy="123.611" r="1.31" fill="#BAE0E1"/><circle cx="646.223" cy="141.077" r="1.31" fill="#BAE0E1"/><circle cx="646.223" cy="158.544" r="1.31" fill="#BAE0E1"/><circle cx="646.223" cy="176.011" r="1.31" fill="#BAE0E1"/><circle cx="646.223" cy="193.478" r="1.31" fill="#BAE0E1"/><circle cx="646.223" cy="210.944" r="1.31" fill="#BAE0E1"/><circle cx="646.223" cy="228.411" r="1.31" fill="#BAE0E1"/><circle cx="174.727" cy="123.611" r="1.31" fill="#BAE0E1"/><circle cx="174.727" cy="106.144" r="1.31" fill="#BAE0E1"/><circle cx="174.727" cy="88.677" r="1.31" fill="#BAE0E1"/><circle cx="174.727" cy="71.211" r="1.31" fill="#BAE0E1"/><circle cx="174.727" cy="53.744" r="1.31" fill="#BAE0E1"/><circle cx="174.727" cy="36.277" r="1.31" fill="#BAE0E1"/><circle cx="174.727" cy="18.81" r="1.31" fill="#BAE0E1"/><circle cx="174.727" cy="1.344" r="1.31" fill="#BAE0E1"/><circle cx="174.727" cy="141.077" r="1.31" fill="#BAE0E1"/><circle cx="174.727" cy="158.544" r="1.31" fill="#BAE0E1"/><circle cx="174.727" cy="176.011" r="1.31" fill="#BAE0E1"/><circle cx="174.727" cy="193.478" r="1.31" fill="#BAE0E1"/><circle cx="174.727" cy="210.944" r="1.31" fill="#BAE0E1"/><circle cx="174.727" cy="228.411" r="1.31" fill="#BAE0E1"/><circle cx="663.689" cy="1.344" r="1.31" fill="#BAE0E1"/><circle cx="663.689" cy="18.81" r="1.31" fill="#BAE0E1"/><circle cx="663.689" cy="36.277" r="1.31" fill="#BAE0E1"/><circle cx="663.689" cy="53.744" r="1.31" fill="#BAE0E1"/><circle cx="663.689" cy="71.211" r="1.31" fill="#BAE0E1"/><circle cx="663.689" cy="88.677" r="1.31" fill="#BAE0E1"/><circle cx="663.689" cy="106.144" r="1.31" fill="#BAE0E1"/><circle cx="663.689" cy="123.611" r="1.31" fill="#BAE0E1"/><circle cx="663.689" cy="141.077" r="1.31" fill="#BAE0E1"/><circle cx="663.689" cy="158.544" r="1.31" fill="#BAE0E1"/><circle cx="663.689" cy="176.011" r="1.31" fill="#BAE0E1"/><circle cx="663.689" cy="193.478" r="1.31" fill="#BAE0E1"/><circle cx="663.689" cy="210.944" r="1.31" fill="#BAE0E1"/><circle cx="663.689" cy="228.411" r="1.31" fill="#BAE0E1"/><circle cx="192.194" cy="123.611" r="1.31" fill="#BAE0E1"/><circle cx="192.194" cy="106.144" r="1.31" fill="#BAE0E1"/><circle cx="192.194" cy="88.677" r="1.31" fill="#BAE0E1"/><circle cx="192.194" cy="71.211" r="1.31" fill="#BAE0E1"/><circle cx="192.194" cy="53.744" r="1.31" fill="#BAE0E1"/><circle cx="192.194" cy="36.277" r="1.31" fill="#BAE0E1"/><circle cx="192.194" cy="18.81" r="1.31" fill="#BAE0E1"/><circle cx="192.194" cy="1.344" r="1.31" fill="#BAE0E1"/><circle cx="192.194" cy="141.077" r="1.31" fill="#BAE0E1"/><circle cx="192.194" cy="158.544" r="1.31" fill="#BAE0E1"/><circle cx="192.194" cy="176.011" r="1.31" fill="#BAE0E1"/><circle cx="192.194" cy="193.478" r="1.31" fill="#BAE0E1"/><circle cx="192.194" cy="210.944" r="1.31" fill="#BAE0E1"/><circle cx="192.194" cy="228.411" r="1.31" fill="#BAE0E1"/><circle cx="681.156" cy="1.344" r="1.31" fill="#BAE0E1"/><circle cx="681.156" cy="18.81" r="1.31" fill="#BAE0E1"/><circle cx="681.156" cy="36.277" r="1.31" fill="#BAE0E1"/><circle cx="681.156" cy="53.744" r="1.31" fill="#BAE0E1"/><circle cx="681.156" cy="71.211" r="1.31" fill="#BAE0E1"/><circle cx="681.156" cy="88.677" r="1.31" fill="#BAE0E1"/><circle cx="681.156" cy="106.144" r="1.31" fill="#BAE0E1"/><circle cx="681.156" cy="123.611" r="1.31" fill="#BAE0E1"/><circle cx="681.156" cy="141.077" r="1.31" fill="#BAE0E1"/><circle cx="681.156" cy="158.544" r="1.31" fill="#BAE0E1"/><circle cx="681.156" cy="176.011" r="1.31" fill="#BAE0E1"/><circle cx="681.156" cy="193.478" r="1.31" fill="#BAE0E1"/><circle cx="681.156" cy="210.944" r="1.31" fill="#BAE0E1"/><circle cx="681.156" cy="228.411" r="1.31" fill="#BAE0E1"/><circle cx="209.661" cy="123.611" r="1.31" fill="#BAE0E1"/><circle cx="209.661" cy="106.144" r="1.31" fill="#BAE0E1"/><circle cx="209.661" cy="88.677" r="1.31" fill="#BAE0E1"/><circle cx="209.661" cy="71.211" r="1.31" fill="#BAE0E1"/><circle cx="209.661" cy="53.744" r="1.31" fill="#BAE0E1"/><circle cx="209.661" cy="36.277" r="1.31" fill="#BAE0E1"/><circle cx="209.661" cy="18.81" r="1.31" fill="#BAE0E1"/><circle cx="209.661" cy="1.344" r="1.31" fill="#BAE0E1"/><circle cx="209.661" cy="141.077" r="1.31" fill="#BAE0E1"/><circle cx="209.661" cy="158.544" r="1.31" fill="#BAE0E1"/><circle cx="209.661" cy="176.011" r="1.31" fill="#BAE0E1"/><circle cx="209.661" cy="193.478" r="1.31" fill="#BAE0E1"/><circle cx="209.661" cy="210.944" r="1.31" fill="#BAE0E1"/><circle cx="209.661" cy="228.411" r="1.31" fill="#BAE0E1"/><circle cx="698.622" cy="1.344" r="1.31" fill="#BAE0E1"/><circle cx="698.622" cy="18.81" r="1.31" fill="#BAE0E1"/><circle cx="698.622" cy="36.277" r="1.31" fill="#BAE0E1"/><circle cx="698.622" cy="53.744" r="1.31" fill="#BAE0E1"/><circle cx="698.622" cy="71.211" r="1.31" fill="#BAE0E1"/><circle cx="698.622" cy="88.677" r="1.31" fill="#BAE0E1"/><circle cx="698.622" cy="106.144" r="1.31" fill="#BAE0E1"/><circle cx="698.622" cy="123.611" r="1.31" fill="#BAE0E1"/><circle cx="698.622" cy="141.077" r="1.31" fill="#BAE0E1"/><circle cx="698.622" cy="158.544" r="1.31" fill="#BAE0E1"/><circle cx="698.622" cy="176.011" r="1.31" fill="#BAE0E1"/><circle cx="698.622" cy="193.478" r="1.31" fill="#BAE0E1"/><circle cx="698.622" cy="210.944" r="1.31" fill="#BAE0E1"/><circle cx="698.622" cy="228.411" r="1.31" fill="#BAE0E1"/><circle cx="227.128" cy="123.611" r="1.31" fill="#BAE0E1"/><circle cx="227.128" cy="106.144" r="1.31" fill="#BAE0E1"/><circle cx="227.128" cy="88.677" r="1.31" fill="#BAE0E1"/><circle cx="227.128" cy="71.211" r="1.31" fill="#BAE0E1"/><circle cx="227.128" cy="53.744" r="1.31" fill="#BAE0E1"/><circle cx="227.128" cy="36.277" r="1.31" fill="#BAE0E1"/><circle cx="227.128" cy="18.81" r="1.31" fill="#BAE0E1"/><circle cx="227.128" cy="1.344" r="1.31" fill="#BAE0E1"/><circle cx="244.595" cy="123.611" r="1.31" fill="#BAE0E1"/><circle cx="244.595" cy="106.144" r="1.31" fill="#BAE0E1"/><circle cx="244.595" cy="88.677" r="1.31" fill="#BAE0E1"/><circle cx="244.595" cy="71.211" r="1.31" fill="#BAE0E1"/><circle cx="244.595" cy="53.744" r="1.31" fill="#BAE0E1"/><circle cx="244.595" cy="36.277" r="1.31" fill="#BAE0E1"/><circle cx="244.595" cy="18.81" r="1.31" fill="#BAE0E1"/><circle cx="244.595" cy="1.344" r="1.31" fill="#BAE0E1"/><circle cx="262.061" cy="123.611" r="1.31" fill="#BAE0E1"/><circle cx="262.061" cy="106.144" r="1.31" fill="#BAE0E1"/><circle cx="262.061" cy="88.677" r="1.31" fill="#BAE0E1"/><circle cx="262.061" cy="71.211" r="1.31" fill="#BAE0E1"/><circle cx="262.061" cy="53.744" r="1.31" fill="#BAE0E1"/><circle cx="262.061" cy="36.277" r="1.31" fill="#BAE0E1"/><circle cx="262.061" cy="18.81" r="1.31" fill="#BAE0E1"/><circle cx="262.061" cy="1.344" r="1.31" fill="#BAE0E1"/><circle cx="279.528" cy="123.611" r="1.31" fill="#BAE0E1"/><circle cx="279.528" cy="106.144" r="1.31" fill="#BAE0E1"/><circle cx="279.528" cy="88.677" r="1.31" fill="#BAE0E1"/><circle cx="279.528" cy="71.211" r="1.31" fill="#BAE0E1"/><circle cx="279.528" cy="53.744" r="1.31" fill="#BAE0E1"/><circle cx="279.528" cy="36.277" r="1.31" fill="#BAE0E1"/><circle cx="279.528" cy="18.81" r="1.31" fill="#BAE0E1"/><circle cx="279.528" cy="1.344" r="1.31" fill="#BAE0E1"/><circle cx="296.995" cy="123.611" r="1.31" fill="#BAE0E1"/><circle cx="296.995" cy="106.144" r="1.31" fill="#BAE0E1"/><circle cx="296.995" cy="88.677" r="1.31" fill="#BAE0E1"/><circle cx="296.995" cy="71.211" r="1.31" fill="#BAE0E1"/><circle cx="296.995" cy="53.744" r="1.31" fill="#BAE0E1"/><circle cx="296.995" cy="36.277" r="1.31" fill="#BAE0E1"/><circle cx="296.995" cy="18.81" r="1.31" fill="#BAE0E1"/><circle cx="296.995" cy="1.344" r="1.31" fill="#BAE0E1"/><circle cx="314.461" cy="123.611" r="1.31" fill="#BAE0E1"/><circle cx="314.461" cy="106.144" r="1.31" fill="#BAE0E1"/><circle cx="314.461" cy="88.677" r="1.31" fill="#BAE0E1"/><circle cx="314.461" cy="71.211" r="1.31" fill="#BAE0E1"/><circle cx="314.461" cy="53.744" r="1.31" fill="#BAE0E1"/><circle cx="314.461" cy="36.277" r="1.31" fill="#BAE0E1"/><circle cx="314.461" cy="18.81" r="1.31" fill="#BAE0E1"/><circle cx="314.461" cy="1.344" r="1.31" fill="#BAE0E1"/><circle cx="331.928" cy="123.611" r="1.31" fill="#BAE0E1"/><circle cx="331.928" cy="106.144" r="1.31" fill="#BAE0E1"/><circle cx="331.928" cy="88.677" r="1.31" fill="#BAE0E1"/><circle cx="331.928" cy="71.211" r="1.31" fill="#BAE0E1"/><circle cx="331.928" cy="53.744" r="1.31" fill="#BAE0E1"/><circle cx="331.928" cy="36.277" r="1.31" fill="#BAE0E1"/><circle cx="331.928" cy="18.81" r="1.31" fill="#BAE0E1"/><circle cx="331.928" cy="1.344" r="1.31" fill="#BAE0E1"/><circle cx="349.395" cy="123.611" r="1.31" fill="#BAE0E1"/><circle cx="349.395" cy="106.144" r="1.31" fill="#BAE0E1"/><circle cx="349.395" cy="88.677" r="1.31" fill="#BAE0E1"/><circle cx="349.395" cy="71.211" r="1.31" fill="#BAE0E1"/><circle cx="349.395" cy="53.744" r="1.31" fill="#BAE0E1"/><circle cx="349.395" cy="36.277" r="1.31" fill="#BAE0E1"/><circle cx="349.395" cy="18.81" r="1.31" fill="#BAE0E1"/><circle cx="349.395" cy="1.344" r="1.31" fill="#BAE0E1"/><circle cx="366.862" cy="123.611" r="1.31" fill="#BAE0E1"/><circle cx="366.862" cy="106.144" r="1.31" fill="#BAE0E1"/><circle cx="366.862" cy="88.677" r="1.31" fill="#BAE0E1"/><circle cx="366.862" cy="71.211" r="1.31" fill="#BAE0E1"/><circle cx="366.862" cy="53.744" r="1.31" fill="#BAE0E1"/><circle cx="366.862" cy="36.277" r="1.31" fill="#BAE0E1"/><circle cx="366.862" cy="18.81" r="1.31" fill="#BAE0E1"/><circle cx="366.862" cy="1.344" r="1.31" fill="#BAE0E1"/><circle cx="384.328" cy="123.611" r="1.31" fill="#BAE0E1"/><circle cx="384.328" cy="106.144" r="1.31" fill="#BAE0E1"/><circle cx="384.328" cy="88.677" r="1.31" fill="#BAE0E1"/><circle cx="384.328" cy="71.211" r="1.31" fill="#BAE0E1"/><circle cx="384.328" cy="53.744" r="1.31" fill="#BAE0E1"/><circle cx="384.328" cy="36.277" r="1.31" fill="#BAE0E1"/><circle cx="384.328" cy="18.81" r="1.31" fill="#BAE0E1"/><circle cx="384.328" cy="1.344" r="1.31" fill="#BAE0E1"/><circle cx="401.795" cy="123.611" r="1.31" fill="#BAE0E1"/><circle cx="401.795" cy="106.144" r="1.31" fill="#BAE0E1"/><circle cx="401.795" cy="88.677" r="1.31" fill="#BAE0E1"/><circle cx="401.795" cy="71.211" r="1.31" fill="#BAE0E1"/><circle cx="401.795" cy="53.744" r="1.31" fill="#BAE0E1"/><circle cx="401.795" cy="36.277" r="1.31" fill="#BAE0E1"/><circle cx="401.795" cy="18.81" r="1.31" fill="#BAE0E1"/><circle cx="401.795" cy="1.344" r="1.31" fill="#BAE0E1"/><circle cx="419.262" cy="123.611" r="1.31" fill="#BAE0E1"/><circle cx="419.262" cy="106.144" r="1.31" fill="#BAE0E1"/><circle cx="419.262" cy="88.677" r="1.31" fill="#BAE0E1"/><circle cx="419.262" cy="71.211" r="1.31" fill="#BAE0E1"/><circle cx="419.262" cy="53.744" r="1.31" fill="#BAE0E1"/><circle cx="419.262" cy="36.277" r="1.31" fill="#BAE0E1"/><circle cx="419.262" cy="18.81" r="1.31" fill="#BAE0E1"/><circle cx="419.262" cy="1.344" r="1.31" fill="#BAE0E1"/><circle cx="436.729" cy="123.611" r="1.31" fill="#BAE0E1"/><circle cx="436.729" cy="106.144" r="1.31" fill="#BAE0E1"/><circle cx="436.729" cy="88.677" r="1.31" fill="#BAE0E1"/><circle cx="436.729" cy="71.211" r="1.31" fill="#BAE0E1"/><circle cx="436.729" cy="53.744" r="1.31" fill="#BAE0E1"/><circle cx="436.729" cy="36.277" r="1.31" fill="#BAE0E1"/><circle cx="436.729" cy="18.81" r="1.31" fill="#BAE0E1"/><circle cx="436.729" cy="1.344" r="1.31" fill="#BAE0E1"/><circle cx="227.128" cy="141.077" r="1.31" fill="#BAE0E1"/><circle cx="244.595" cy="141.077" r="1.31" fill="#BAE0E1"/><circle cx="262.061" cy="141.077" r="1.31" fill="#BAE0E1"/><circle cx="279.528" cy="141.077" r="1.31" fill="#BAE0E1"/><circle cx="296.995" cy="141.077" r="1.31" fill="#BAE0E1"/><circle cx="314.461" cy="141.077" r="1.31" fill="#BAE0E1"/><circle cx="331.928" cy="141.077" r="1.31" fill="#BAE0E1"/><circle cx="349.395" cy="141.077" r="1.31" fill="#BAE0E1"/><circle cx="366.862" cy="141.077" r="1.31" fill="#BAE0E1"/><circle cx="384.328" cy="141.077" r="1.31" fill="#BAE0E1"/><circle cx="401.795" cy="141.077" r="1.31" fill="#BAE0E1"/><circle cx="419.262" cy="141.077" r="1.31" fill="#BAE0E1"/><circle cx="436.729" cy="141.077" r="1.31" fill="#BAE0E1"/><circle cx="227.128" cy="158.544" r="1.31" fill="#BAE0E1"/><circle cx="244.595" cy="158.544" r="1.31" fill="#BAE0E1"/><circle cx="262.061" cy="158.544" r="1.31" fill="#BAE0E1"/><circle cx="279.528" cy="158.544" r="1.31" fill="#BAE0E1"/><circle cx="296.995" cy="158.544" r="1.31" fill="#BAE0E1"/><circle cx="314.461" cy="158.544" r="1.31" fill="#BAE0E1"/><circle cx="331.928" cy="158.544" r="1.31" fill="#BAE0E1"/><circle cx="349.395" cy="158.544" r="1.31" fill="#BAE0E1"/><circle cx="366.862" cy="158.544" r="1.31" fill="#BAE0E1"/><circle cx="384.328" cy="158.544" r="1.31" fill="#BAE0E1"/><circle cx="401.795" cy="158.544" r="1.31" fill="#BAE0E1"/><circle cx="419.262" cy="158.544" r="1.31" fill="#BAE0E1"/><circle cx="436.729" cy="158.544" r="1.31" fill="#BAE0E1"/><circle cx="227.128" cy="176.011" r="1.31" fill="#BAE0E1"/><circle cx="244.595" cy="176.011" r="1.31" fill="#BAE0E1"/><circle cx="262.061" cy="176.011" r="1.31" fill="#BAE0E1"/><circle cx="279.528" cy="176.011" r="1.31" fill="#BAE0E1"/><circle cx="296.995" cy="176.011" r="1.31" fill="#BAE0E1"/><circle cx="314.461" cy="176.011" r="1.31" fill="#BAE0E1"/><circle cx="331.928" cy="176.011" r="1.31" fill="#BAE0E1"/><circle cx="349.395" cy="176.011" r="1.31" fill="#BAE0E1"/><circle cx="366.862" cy="176.011" r="1.31" fill="#BAE0E1"/><circle cx="384.328" cy="176.011" r="1.31" fill="#BAE0E1"/><circle cx="401.795" cy="176.011" r="1.31" fill="#BAE0E1"/><circle cx="419.262" cy="176.011" r="1.31" fill="#BAE0E1"/><circle cx="436.729" cy="176.011" r="1.31" fill="#BAE0E1"/><circle cx="227.128" cy="193.478" r="1.31" fill="#BAE0E1"/><circle cx="244.595" cy="193.478" r="1.31" fill="#BAE0E1"/><circle cx="262.061" cy="193.478" r="1.31" fill="#BAE0E1"/><circle cx="279.528" cy="193.478" r="1.31" fill="#BAE0E1"/><circle cx="296.995" cy="193.478" r="1.31" fill="#BAE0E1"/><circle cx="314.461" cy="193.478" r="1.31" fill="#BAE0E1"/><circle cx="331.928" cy="193.478" r="1.31" fill="#BAE0E1"/><circle cx="349.395" cy="193.478" r="1.31" fill="#BAE0E1"/><circle cx="366.862" cy="193.478" r="1.31" fill="#BAE0E1"/><circle cx="384.328" cy="193.478" r="1.31" fill="#BAE0E1"/><circle cx="401.795" cy="193.478" r="1.31" fill="#BAE0E1"/><circle cx="419.262" cy="193.478" r="1.31" fill="#BAE0E1"/><circle cx="436.729" cy="193.478" r="1.31" fill="#BAE0E1"/><circle cx="227.128" cy="210.944" r="1.31" fill="#BAE0E1"/><circle cx="244.595" cy="210.944" r="1.31" fill="#BAE0E1"/><circle cx="262.061" cy="210.944" r="1.31" fill="#BAE0E1"/><circle cx="279.528" cy="210.944" r="1.31" fill="#BAE0E1"/><circle cx="296.995" cy="210.944" r="1.31" fill="#BAE0E1"/><circle cx="314.461" cy="210.944" r="1.31" fill="#BAE0E1"/><circle cx="331.928" cy="210.944" r="1.31" fill="#BAE0E1"/><circle cx="349.395" cy="210.944" r="1.31" fill="#BAE0E1"/><circle cx="366.862" cy="210.944" r="1.31" fill="#BAE0E1"/><circle cx="384.328" cy="210.944" r="1.31" fill="#BAE0E1"/><circle cx="401.795" cy="210.944" r="1.31" fill="#BAE0E1"/><circle cx="419.262" cy="210.944" r="1.31" fill="#BAE0E1"/><circle cx="436.729" cy="210.944" r="1.31" fill="#BAE0E1"/><circle cx="227.128" cy="228.411" r="1.31" fill="#BAE0E1"/><circle cx="244.595" cy="228.411" r="1.31" fill="#BAE0E1"/><circle cx="262.061" cy="228.411" r="1.31" fill="#BAE0E1"/><circle cx="279.528" cy="228.411" r="1.31" fill="#BAE0E1"/><circle cx="296.995" cy="228.411" r="1.31" fill="#BAE0E1"/><circle cx="314.461" cy="228.411" r="1.31" fill="#BAE0E1"/><circle cx="331.928" cy="228.411" r="1.31" fill="#BAE0E1"/><circle cx="349.395" cy="228.411" r="1.31" fill="#BAE0E1"/><circle cx="366.862" cy="228.411" r="1.31" fill="#BAE0E1"/><circle cx="384.328" cy="228.411" r="1.31" fill="#BAE0E1"/><circle cx="401.795" cy="228.411" r="1.31" fill="#BAE0E1"/><circle cx="419.262" cy="228.411" r="1.31" fill="#BAE0E1"/><circle cx="436.729" cy="228.411" r="1.31" fill="#BAE0E1"/><circle cx="716.089" cy="1.344" r="1.31" fill="#BAE0E1"/><circle cx="733.556" cy="1.344" r="1.31" fill="#BAE0E1"/><circle cx="751.023" cy="1.344" r="1.31" fill="#BAE0E1"/><circle cx="768.49" cy="1.344" r="1.31" fill="#BAE0E1"/><circle cx="785.956" cy="1.344" r="1.31" fill="#BAE0E1"/><circle cx="803.423" cy="1.344" r="1.31" fill="#BAE0E1"/><circle cx="820.89" cy="1.344" r="1.31" fill="#BAE0E1"/><circle cx="838.357" cy="1.344" r="1.31" fill="#BAE0E1"/><circle cx="855.823" cy="1.344" r="1.31" fill="#BAE0E1"/><circle cx="873.29" cy="1.344" r="1.31" fill="#BAE0E1"/><circle cx="890.757" cy="1.344" r="1.31" fill="#BAE0E1"/><circle cx="716.089" cy="18.81" r="1.31" fill="#BAE0E1"/><circle cx="733.556" cy="18.81" r="1.31" fill="#BAE0E1"/><circle cx="751.023" cy="18.81" r="1.31" fill="#BAE0E1"/><circle cx="768.49" cy="18.81" r="1.31" fill="#BAE0E1"/><circle cx="785.956" cy="18.81" r="1.31" fill="#BAE0E1"/><circle cx="803.423" cy="18.81" r="1.31" fill="#BAE0E1"/><circle cx="820.89" cy="18.81" r="1.31" fill="#BAE0E1"/><circle cx="838.357" cy="18.81" r="1.31" fill="#BAE0E1"/><circle cx="855.823" cy="18.81" r="1.31" fill="#BAE0E1"/><circle cx="873.29" cy="18.81" r="1.31" fill="#BAE0E1"/><circle cx="890.757" cy="18.81" r="1.31" fill="#BAE0E1"/><circle cx="716.089" cy="36.277" r="1.31" fill="#BAE0E1"/><circle cx="733.556" cy="36.277" r="1.31" fill="#BAE0E1"/><circle cx="751.023" cy="36.277" r="1.31" fill="#BAE0E1"/><circle cx="768.49" cy="36.277" r="1.31" fill="#BAE0E1"/><circle cx="785.956" cy="36.277" r="1.31" fill="#BAE0E1"/><circle cx="803.423" cy="36.277" r="1.31" fill="#BAE0E1"/><circle cx="820.89" cy="36.277" r="1.31" fill="#BAE0E1"/><circle cx="838.357" cy="36.277" r="1.31" fill="#BAE0E1"/><circle cx="855.823" cy="36.277" r="1.31" fill="#BAE0E1"/><circle cx="873.29" cy="36.277" r="1.31" fill="#BAE0E1"/><circle cx="890.757" cy="36.277" r="1.31" fill="#BAE0E1"/><circle cx="716.089" cy="53.744" r="1.31" fill="#BAE0E1"/><circle cx="733.556" cy="53.744" r="1.31" fill="#BAE0E1"/><circle cx="751.023" cy="53.744" r="1.31" fill="#BAE0E1"/><circle cx="768.49" cy="53.744" r="1.31" fill="#BAE0E1"/><circle cx="785.956" cy="53.744" r="1.31" fill="#BAE0E1"/><circle cx="803.423" cy="53.744" r="1.31" fill="#BAE0E1"/><circle cx="820.89" cy="53.744" r="1.31" fill="#BAE0E1"/><circle cx="838.357" cy="53.744" r="1.31" fill="#BAE0E1"/><circle cx="855.823" cy="53.744" r="1.31" fill="#BAE0E1"/><circle cx="873.29" cy="53.744" r="1.31" fill="#BAE0E1"/><circle cx="890.757" cy="53.744" r="1.31" fill="#BAE0E1"/><circle cx="716.089" cy="71.211" r="1.31" fill="#BAE0E1"/><circle cx="733.556" cy="71.211" r="1.31" fill="#BAE0E1"/><circle cx="751.023" cy="71.211" r="1.31" fill="#BAE0E1"/><circle cx="768.49" cy="71.211" r="1.31" fill="#BAE0E1"/><circle cx="785.956" cy="71.211" r="1.31" fill="#BAE0E1"/><circle cx="803.423" cy="71.211" r="1.31" fill="#BAE0E1"/><circle cx="820.89" cy="71.211" r="1.31" fill="#BAE0E1"/><circle cx="838.357" cy="71.211" r="1.31" fill="#BAE0E1"/><circle cx="855.823" cy="71.211" r="1.31" fill="#BAE0E1"/><circle cx="873.29" cy="71.211" r="1.31" fill="#BAE0E1"/><circle cx="890.757" cy="71.211" r="1.31" fill="#BAE0E1"/><circle cx="716.089" cy="88.677" r="1.31" fill="#BAE0E1"/><circle cx="733.556" cy="88.677" r="1.31" fill="#BAE0E1"/><circle cx="751.023" cy="88.677" r="1.31" fill="#BAE0E1"/><circle cx="768.49" cy="88.677" r="1.31" fill="#BAE0E1"/><circle cx="785.956" cy="88.677" r="1.31" fill="#BAE0E1"/><circle cx="803.423" cy="88.677" r="1.31" fill="#BAE0E1"/><circle cx="820.89" cy="88.677" r="1.31" fill="#BAE0E1"/><circle cx="838.357" cy="88.677" r="1.31" fill="#BAE0E1"/><circle cx="855.823" cy="88.677" r="1.31" fill="#BAE0E1"/><circle cx="873.29" cy="88.677" r="1.31" fill="#BAE0E1"/><circle cx="890.757" cy="88.677" r="1.31" fill="#BAE0E1"/><circle cx="716.089" cy="106.144" r="1.31" fill="#BAE0E1"/><circle cx="733.556" cy="106.144" r="1.31" fill="#BAE0E1"/><circle cx="751.023" cy="106.144" r="1.31" fill="#BAE0E1"/><circle cx="768.49" cy="106.144" r="1.31" fill="#BAE0E1"/><circle cx="785.956" cy="106.144" r="1.31" fill="#BAE0E1"/><circle cx="803.423" cy="106.144" r="1.31" fill="#BAE0E1"/><circle cx="820.89" cy="106.144" r="1.31" fill="#BAE0E1"/><circle cx="838.357" cy="106.144" r="1.31" fill="#BAE0E1"/><circle cx="855.823" cy="106.144" r="1.31" fill="#BAE0E1"/><circle cx="873.29" cy="106.144" r="1.31" fill="#BAE0E1"/><circle cx="890.757" cy="106.144" r="1.31" fill="#BAE0E1"/><circle cx="716.089" cy="123.611" r="1.31" fill="#BAE0E1"/><circle cx="733.556" cy="123.611" r="1.31" fill="#BAE0E1"/><circle cx="751.023" cy="123.611" r="1.31" fill="#BAE0E1"/><circle cx="768.49" cy="123.611" r="1.31" fill="#BAE0E1"/><circle cx="785.956" cy="123.611" r="1.31" fill="#BAE0E1"/><circle cx="803.423" cy="123.611" r="1.31" fill="#BAE0E1"/><circle cx="820.89" cy="123.611" r="1.31" fill="#BAE0E1"/><circle cx="838.357" cy="123.611" r="1.31" fill="#BAE0E1"/><circle cx="855.823" cy="123.611" r="1.31" fill="#BAE0E1"/><circle cx="873.29" cy="123.611" r="1.31" fill="#BAE0E1"/><circle cx="890.757" cy="123.611" r="1.31" fill="#BAE0E1"/><circle cx="716.089" cy="141.077" r="1.31" fill="#BAE0E1"/><circle cx="733.556" cy="141.077" r="1.31" fill="#BAE0E1"/><circle cx="751.023" cy="141.077" r="1.31" fill="#BAE0E1"/><circle cx="768.49" cy="141.077" r="1.31" fill="#BAE0E1"/><circle cx="785.956" cy="141.077" r="1.31" fill="#BAE0E1"/><circle cx="803.423" cy="141.077" r="1.31" fill="#BAE0E1"/><circle cx="820.89" cy="141.077" r="1.31" fill="#BAE0E1"/><circle cx="838.357" cy="141.077" r="1.31" fill="#BAE0E1"/><circle cx="855.823" cy="141.077" r="1.31" fill="#BAE0E1"/><circle cx="873.29" cy="141.077" r="1.31" fill="#BAE0E1"/><circle cx="890.757" cy="141.077" r="1.31" fill="#BAE0E1"/><circle cx="716.089" cy="158.544" r="1.31" fill="#BAE0E1"/><circle cx="733.556" cy="158.544" r="1.31" fill="#BAE0E1"/><circle cx="751.023" cy="158.544" r="1.31" fill="#BAE0E1"/><circle cx="768.49" cy="158.544" r="1.31" fill="#BAE0E1"/><circle cx="785.956" cy="158.544" r="1.31" fill="#BAE0E1"/><circle cx="803.423" cy="158.544" r="1.31" fill="#BAE0E1"/><circle cx="820.89" cy="158.544" r="1.31" fill="#BAE0E1"/><circle cx="838.357" cy="158.544" r="1.31" fill="#BAE0E1"/><circle cx="855.823" cy="158.544" r="1.31" fill="#BAE0E1"/><circle cx="873.29" cy="158.544" r="1.31" fill="#BAE0E1"/><circle cx="890.757" cy="158.544" r="1.31" fill="#BAE0E1"/><circle cx="716.089" cy="176.011" r="1.31" fill="#BAE0E1"/><circle cx="733.556" cy="176.011" r="1.31" fill="#BAE0E1"/><circle cx="751.023" cy="176.011" r="1.31" fill="#BAE0E1"/><circle cx="768.49" cy="176.011" r="1.31" fill="#BAE0E1"/><circle cx="785.956" cy="176.011" r="1.31" fill="#BAE0E1"/><circle cx="803.423" cy="176.011" r="1.31" fill="#BAE0E1"/><circle cx="820.89" cy="176.011" r="1.31" fill="#BAE0E1"/><circle cx="838.357" cy="176.011" r="1.31" fill="#BAE0E1"/><circle cx="855.823" cy="176.011" r="1.31" fill="#BAE0E1"/><circle cx="873.29" cy="176.011" r="1.31" fill="#BAE0E1"/><circle cx="890.757" cy="176.011" r="1.31" fill="#BAE0E1"/><circle cx="716.089" cy="193.478" r="1.31" fill="#BAE0E1"/><circle cx="733.556" cy="193.478" r="1.31" fill="#BAE0E1"/><circle cx="751.023" cy="193.478" r="1.31" fill="#BAE0E1"/><circle cx="768.49" cy="193.478" r="1.31" fill="#BAE0E1"/><circle cx="785.956" cy="193.478" r="1.31" fill="#BAE0E1"/><circle cx="803.423" cy="193.478" r="1.31" fill="#BAE0E1"/><circle cx="820.89" cy="193.478" r="1.31" fill="#BAE0E1"/><circle cx="838.357" cy="193.478" r="1.31" fill="#BAE0E1"/><circle cx="855.823" cy="193.478" r="1.31" fill="#BAE0E1"/><circle cx="873.29" cy="193.478" r="1.31" fill="#BAE0E1"/><circle cx="890.757" cy="193.478" r="1.31" fill="#BAE0E1"/><circle cx="716.089" cy="210.944" r="1.31" fill="#BAE0E1"/><circle cx="733.556" cy="210.944" r="1.31" fill="#BAE0E1"/><circle cx="751.023" cy="210.944" r="1.31" fill="#BAE0E1"/><circle cx="768.49" cy="210.944" r="1.31" fill="#BAE0E1"/><circle cx="785.956" cy="210.944" r="1.31" fill="#BAE0E1"/><circle cx="803.423" cy="210.944" r="1.31" fill="#BAE0E1"/><circle cx="820.89" cy="210.944" r="1.31" fill="#BAE0E1"/><circle cx="838.357" cy="210.944" r="1.31" fill="#BAE0E1"/><circle cx="855.823" cy="210.944" r="1.31" fill="#BAE0E1"/><circle cx="873.29" cy="210.944" r="1.31" fill="#BAE0E1"/><circle cx="890.757" cy="210.944" r="1.31" fill="#BAE0E1"/><circle cx="716.089" cy="228.411" r="1.31" fill="#BAE0E1"/><circle cx="733.556" cy="228.411" r="1.31" fill="#BAE0E1"/><circle cx="751.023" cy="228.411" r="1.31" fill="#BAE0E1"/><circle cx="768.49" cy="228.411" r="1.31" fill="#BAE0E1"/><circle cx="785.956" cy="228.411" r="1.31" fill="#BAE0E1"/><circle cx="803.423" cy="228.411" r="1.31" fill="#BAE0E1"/><circle cx="820.89" cy="228.411" r="1.31" fill="#BAE0E1"/><circle cx="838.357" cy="228.411" r="1.31" fill="#BAE0E1"/><circle cx="855.823" cy="228.411" r="1.31" fill="#BAE0E1"/><circle cx="873.29" cy="228.411" r="1.31" fill="#BAE0E1"/><circle cx="890.757" cy="228.411" r="1.31" fill="#BAE0E1"/></svg>