<svg width="24" height="24" fill="none" xmlns="http://www.w3.org/2000/svg"><path d="M12.703 8.87V6.258h.928a3.928 3.928 0 003.924-3.924V0H15.22A3.921 3.921 0 0012 1.686 3.921 3.921 0 008.78 0H6.445v2.334a3.928 3.928 0 003.924 3.924h.928V8.87H3.195v5.23h1.538L6.176 24h11.648l1.443-9.9h1.539V8.87h-8.103zm0-4.946a2.52 2.52 0 012.518-2.518h.927v.928a2.52 2.52 0 01-2.517 2.518h-.928v-.928zm-2.334.928a2.52 2.52 0 01-2.517-2.518v-.928h.928a2.52 2.52 0 012.517 2.518v.928h-.928zm6.24 17.742H7.391L6.154 14.1h11.692l-1.238 8.494zM4.6 12.694v-2.418h14.798v2.418H4.601z" fill="#62C0CB"/></svg>