<svg width="204" height="32" fill="none" xmlns="http://www.w3.org/2000/svg"><g clip-path="url(#clip0)" fill="#76C4D5"><path d="M48.047 5.294a4.771 4.771 0 01-.445 2.041 4.798 4.798 0 01-1.277 1.66 6.028 6.028 0 01-4.284 1.532 6.026 6.026 0 01-4.004-1.532 4.739 4.739 0 01-1.282-1.657 4.712 4.712 0 01-.44-2.044 6.44 6.44 0 01.12-1.314h-1.26c-2.243 0-3.344.916-3.344 2.786a23.974 23.974 0 002.002 6.368 22.502 22.502 0 012.002 7.742c0 3.98-2.242 7.005-6.686 8.995a28.557 28.557 0 01-11.652 2.209 32.208 32.208 0 01-10.81-1.672C2.202 28.736 0 26.328 0 23.045c0-4.75 4.077-7.125 12.232-7.125h8.388l1.602 3.503h-6.547a9.92 9.92 0 00-4.284.856c-.69.24-1.289.687-1.715 1.278a3.528 3.528 0 00-.667 2.025c0 1.652 1.1 2.945 3.283 3.98a14.086 14.086 0 005.405 1.055 10.84 10.84 0 006.106-1.592 5.985 5.985 0 002.134-2.257c.5-.926.744-1.967.71-3.017a19.808 19.808 0 00-1.803-6.786 19.804 19.804 0 01-1.801-7.005c0-5.333 4.544-7.96 13.673-7.96h5.445a6.027 6.027 0 014.004 1.512 4.862 4.862 0 011.376 1.677c.326.655.499 1.374.506 2.105zm22.342 22.009a4.938 4.938 0 01-2.052 2.744 4.989 4.989 0 01-3.353.759h-8.348c-2.363 0-3.564-.756-3.564-2.289a7.563 7.563 0 01-2.688 2.049 7.605 7.605 0 01-3.318.678 5.838 5.838 0 01-4.184-1.572 5.568 5.568 0 01-1.601-4.12 8.554 8.554 0 01.86-4.046 8.61 8.61 0 012.663-3.178 12.706 12.706 0 018.008-2.408h12.572L61.24 27.303h9.149zm-14.214-7.96H51.31l-1.541 5.095c-.075.286-.116.58-.12.875 0 1.274 1.24 1.99 3.743 1.99l2.783-7.96zm44.344 7.96a4.46 4.46 0 01-2.543 2.846 6.801 6.801 0 01-2.963.657h-8.788c-2.002 0-3.023-.657-3.023-1.99a4.378 4.378 0 01.32-1.532l1.662-4.717-7.568 6.368a8.435 8.435 0 01-4.384 1.851h-4.004l5.205-14.866h8.008l-2.483 7.005 6.727-5.472a8.8 8.8 0 016.006-2.13 2.012 2.012 0 011.525.678 1.986 1.986 0 01.477 1.591 5.406 5.406 0 01-.34 1.83l-2.843 7.961 9.009-.08z"/><path d="M119.837 27.303a5.018 5.018 0 01-2.104 2.758 5.07 5.07 0 01-3.401.745h-11.231c-2.182 0-3.263-.756-3.263-2.289.008-.415.089-.826.24-1.213l2.803-7.96h-3.624l1.382-3.424a14.637 14.637 0 005.725-2.527 20.786 20.786 0 004.525-6.249h4.284l-3.063 8.776h5.685a5.337 5.337 0 01-2.17 2.694 5.39 5.39 0 01-3.375.809h-1.461l-2.743 7.96 11.791-.08z"/><path d="M136.614 27.303a4.577 4.577 0 01-2.382 2.846 6.141 6.141 0 01-2.823.657h-8.689c-2.002 0-3.163-.876-3.163-2.627a4.797 4.797 0 01.32-1.592l3.824-10.667h8.008l-4.004 11.383h8.909zm-1.582-20.358a4.838 4.838 0 01-1.721 3.722 6.027 6.027 0 01-4.004 1.532 6.027 6.027 0 01-4.144-1.532 4.837 4.837 0 01-1.702-3.722 4.756 4.756 0 011.702-3.701 6.025 6.025 0 014.044-1.533 5.846 5.846 0 014.004 1.533 4.776 4.776 0 011.821 3.701zm31.751 20.358a4.441 4.441 0 01-.985 1.72 4.49 4.49 0 01-1.637 1.126 6.802 6.802 0 01-2.963.657h-8.709c-2.002 0-3.023-.657-3.023-1.99a4.383 4.383 0 01.321-1.532l1.661-4.717-7.567 6.368a8.437 8.437 0 01-4.384 1.851h-4.004l5.225-14.866h8.008l-2.583 7.005 6.727-5.472a8.8 8.8 0 016.006-2.13 2.014 2.014 0 011.634.614 1.984 1.984 0 01.528 1.655 5.492 5.492 0 01-.361 1.83l-2.842 7.961 8.948-.08z"/><path d="M204 15.92c-.58 2.329-2.342 3.503-5.285 3.503h-13.773a3.348 3.348 0 011.181 1.751 5.38 5.38 0 01.38 2.229 7.502 7.502 0 01-.96 3.236 7.56 7.56 0 01-2.283 2.495 12.207 12.207 0 01-7.267 1.99 12.893 12.893 0 01-8.008-1.99 5.977 5.977 0 01-2.068-2.64 5.933 5.933 0 01-.314-3.33 7.597 7.597 0 011.101-2.977 7.655 7.655 0 012.222-2.277 13.454 13.454 0 017.747-1.99H204zm-24.023 3.503h-5.025l-2.002 5.592c-.098.268-.152.55-.16.836 0 1.254 1.181 1.89 3.523 1.89h.741l2.923-8.318z"/></g><defs><clipPath id="clip0"><path fill="#fff" d="M0 0h204v32H0z"/></clipPath></defs></svg>