<svg width="50" height="50" fill="none" xmlns="http://www.w3.org/2000/svg"><g clip-path="url(#clip0)"><path d="M50 8.575l-.001-.017a.724.724 0 00-.004-.064l-.004-.024a.723.723 0 00-.011-.058l-.006-.022a.707.707 0 00-.02-.061c0-.004-.002-.008-.003-.011L47.964 3.23a1.319 1.319 0 00-1.236-.843h-3.617a.714.714 0 100 1.428h3.548l1.581 4.047H33.292l-.937-4.047h5.521a.714.714 0 100-1.428H8.992c-.55 0-1.036.33-1.236.844L5.77 8.318l-.003.011a.698.698 0 00-.037.141l-.003.024a.74.74 0 00-.005.064v10.509a.714.714 0 001.427 0V9.29h15.134v10.853a1.082 1.082 0 001.797.808l3.781-3.35 3.782 3.35a1.082 1.082 0 001.796-.808V9.29h15.134v32.024a.93.93 0 01-.93.93h-13.09l-.001-.025a3.083 3.083 0 00-.009-.192 2.573 2.573 0 003.035-1.514 2.552 2.552 0 00-.093-2.14l-.015-.031a2.587 2.587 0 00-.092-.16l-.019-.03a2.567 2.567 0 00-.106-.154l-.003-.003a2.572 2.572 0 00-.117-.144l-.022-.025a2.573 2.573 0 00-.126-.13l-.026-.025a2.45 2.45 0 00-.293-.236l-.027-.02a2.62 2.62 0 00-.155-.096l-.013-.008a2.56 2.56 0 00.695-.972 2.552 2.552 0 00-.011-1.966 2.55 2.55 0 00-1.398-1.383l-11.112-4.53 5.173-1.602a2.345 2.345 0 001.544-2.925 2.292 2.292 0 00-.783-1.132 2.404 2.404 0 00-1.972-.462l-.01.002c-.04.009-4.005.9-8.146 1.708l-.54.104-.417.08-.117.023a161.432 161.432 0 01-.974.182c-5.2.958-6.661.975-7.067.92h-.004a1.464 1.464 0 01-.098-.02l-.117-.048.145-.358a1.412 1.412 0 00-.14-1.335 1.412 1.412 0 00-.64-.518l-3.834-1.563a1.411 1.411 0 00-1.088.006c-.35.147-.621.422-.765.773l-4.689 11.5a1.423 1.423 0 00.78 1.853l3.835 1.564a1.424 1.424 0 001.853-.78l.034-.086.885.36.001.001a7.845 7.845 0 013.15 2.35 9.277 9.277 0 003.726 2.78l.995.406H8.078a.93.93 0 01-.93-.93v-1.806a.714.714 0 00-1.428 0v1.807a2.36 2.36 0 002.358 2.357h10.788l9.197 3.75a2.573 2.573 0 003.524-2.653 2.66 2.66 0 001.424-.189 2.546 2.546 0 001.105-.908h13.527A2.36 2.36 0 0050 41.315V8.575zm-25.17-4.76h6.06l.936 4.048h-7.932l.937-4.047zm-2.4 4.049H7.479l1.582-4.047h14.304l-.936 4.047zm9.581 11.508l-3.433-3.042a1.077 1.077 0 00-1.433 0l-3.434 3.042V9.291h8.3v10.08zM5.252 35.888L1.43 34.329l4.684-11.487L9.937 24.4 5.252 35.888zm28.524 4.309l-.82-.335h-.001l-8.534-3.48a.714.714 0 10-.54 1.322l8.535 3.48c.035.015.07.03.103.048.01.005.018.011.027.017l.07.04.03.024.059.043c.01.009.02.02.032.029l.049.044.03.034a.48.48 0 01.043.047l.03.038.035.049.027.042.03.05.023.046.025.05.019.05.02.051.014.053.014.052.01.053c.003.018.007.035.009.053l.005.054.004.055v.054c0 .018 0 .037-.002.056 0 .017-.003.035-.005.053l-.007.057-.01.052c-.005.019-.008.038-.014.057-.004.017-.01.034-.015.05-.007.02-.012.039-.02.058a1.147 1.147 0 00-.017.04l-.003.008a1.11 1.11 0 01-.586.578 1.209 1.209 0 01-.93.012l-1.512-.616-.021-.008-.021-.01-6.941-2.83a.714.714 0 10-.54 1.323l6.942 2.83.022.008.02.009a1.142 1.142 0 01-.861 2.113l-9.326-3.802-.001-.001-4.367-1.78a7.84 7.84 0 01-3.151-2.352 9.277 9.277 0 00-3.725-2.78l-.886-.36L8.91 30.7l1.667-4.087.123.05c.116.047.28.114.725.131.554.025 1.473-.033 3.117-.265a102.742 102.742 0 004.211-.703l.227-.042.178-.033.206-.039.221-.042.18-.034.275-.052.143-.028.432-.083c4.127-.803 8.11-1.697 8.289-1.737l.054-.008c.458-.068.908.197 1.04.625a.914.914 0 01-.602 1.142l-7.08 2.19a.713.713 0 00-.058 1.344l12.96 5.284c.282.115.502.334.62.614.118.281.12.592.005.874a1.133 1.133 0 01-1.05.71h-.007a.916.916 0 01-.104-.005c-.01 0-.02-.003-.03-.004a1.097 1.097 0 01-.08-.011l-.05-.012c-.019-.005-.039-.009-.058-.015l-.06-.02-.048-.017-8.534-3.48a.714.714 0 10-.54 1.322l10.348 4.219a1.132 1.132 0 01.62.614 1.132 1.132 0 01-.309 1.307l-.019.017a1.144 1.144 0 01-1.154.175l-.992-.404z" fill="#383838"/></g><defs><clipPath id="clip0"><path fill="#fff" d="M0 0h50v50H0z"/></clipPath></defs></svg>