<svg width="24" height="24" fill="none" xmlns="http://www.w3.org/2000/svg"><g clip-path="url(#clip0)"><path d="M21.105 16.537c-2.885-1.078-5.811-1.648-8.705-1.696.072-.973.059-1.913-.04-2.81.89.47 1.913.606 2.968.382a8.596 8.596 0 006.769-7.656.75.75 0 00-.326-.685c-2.85-1.936-6.674-1.953-9.628.133C10.301 1.039 6.464-.719 2.702.28a.75.75 0 00-.534.539C.788 6.197 4.982 10.95 8.33 10.95c.776 0 1.518-.215 2.18-.603.368 1.278.527 2.79.385 4.514-2.663.122-5.349.684-8 1.675-4.271 1.597-3.704 5.688 1.319 6.69a39.593 39.593 0 0015.573 0c5.01-1 5.599-5.09 1.318-6.69zm-.556-11.463a7.115 7.115 0 01-5.533 5.872c-.982.209-1.936-.034-2.652-.763 1.507-1.74 2.99-2.724 5.09-3.378a.75.75 0 00-.447-1.432c-1.754.547-3.164 1.323-4.464 2.485a4.277 4.277 0 00.153-2.194c2.27-1.798 5.38-2.042 7.853-.59zM6.804 9a7.115 7.115 0 01-3.28-7.372c2.874-.562 5.78.763 7.296 3.284.61 1.014.535 1.995.183 2.759-.842-1.474-2.008-2.58-3.378-3.178a.75.75 0 10-.6 1.374c1.149.503 2.212 1.54 2.94 3.05-.94.66-2.103.727-3.161.083zm12.689 12.755a38.106 38.106 0 01-14.986 0c-1.477-.295-2.974-1.098-2.974-2.061 0-.646.724-1.318 1.888-1.753 2.416-.903 4.859-1.428 7.28-1.567-.067.38-.147.77-.242 1.168a.75.75 0 101.46.348c.124-.524.227-1.042.307-1.553 2.77.028 5.58.567 8.353 1.604 1.165.435 1.888 1.107 1.888 1.753 0 .963-1.496 1.766-2.974 2.06z" fill="#62C0CB"/></g><defs><clipPath id="clip0"><path fill="#fff" d="M0 0h24v24H0z"/></clipPath></defs></svg>