<svg width="30" height="29" fill="none" xmlns="http://www.w3.org/2000/svg"><path d="M0 3.75A3.75 3.75 0 013.75 0h22.5A3.75 3.75 0 0130 3.75v15a3.75 3.75 0 01-3.75 3.75H8.276c-.497 0-.974.198-1.325.55L1.6 28.398a.938.938 0 01-1.6-.661V3.75zm13.489 5.186a3.159 3.159 0 00-.426-.51 2.75 2.75 0 00-.88-.607l-.014-.008A3.347 3.347 0 0010.75 7.5c-1.795 0-3.25 1.399-3.25 3.126 0 1.725 1.455 3.123 3.251 3.123a3.33 3.33 0 001.746-.487c-.257.73-.731 1.507-1.519 2.287a.76.76 0 00.02 1.107.84.84 0 001.152-.02c2.501-2.491 2.569-5.17 1.764-6.948a4.616 4.616 0 00-.425-.75v-.002zm7.136 4.326c-.255.73-.731 1.507-1.519 2.287a.76.76 0 00.023 1.107c.322.3.836.29 1.15-.02 2.5-2.491 2.568-5.17 1.765-6.948a4.622 4.622 0 00-.427-.75 3.163 3.163 0 00-.426-.512 2.748 2.748 0 00-.88-.607l-.014-.008A3.347 3.347 0 0018.88 7.5c-1.794 0-3.251 1.399-3.251 3.126 0 1.725 1.457 3.123 3.251 3.123.643 0 1.241-.178 1.746-.487h-.002z" fill="#478C9B"/></svg>