<svg width="45" height="45" fill="none" xmlns="http://www.w3.org/2000/svg"><g clip-path="url(#clip0)"><path d="M44.993 9.294c-.118-4.11-1.422-7.03-1.478-7.152l-.205-.451-.45-.205c-.123-.055-3.043-1.36-7.153-1.478C31.897-.1 26.3.826 21.265 5.86L7.986 19.14l5.206 5.205L1.545 35.992a5.284 5.284 0 000 7.464A5.262 5.262 0 005.277 45a5.262 5.262 0 003.733-1.544L20.656 31.81l5.206 5.206 13.28-13.28c5.034-5.034 5.96-10.632 5.851-14.442zM7.145 41.592a2.645 2.645 0 01-3.735 0 2.644 2.644 0 010-3.736l7.863-7.864 3.736 3.736-7.864 7.864zm9.729-9.728l-3.736-3.736 1.918-1.918 3.735 3.736-1.918 1.918zm2.848-4.717l-1.868-1.867 11.163-11.164a1.322 1.322 0 011.868 0 1.322 1.322 0 010 1.868L19.722 27.147zm17.555-5.276L25.86 33.286l-4.275-4.274L32.75 17.848a3.931 3.931 0 001.16-2.798 3.93 3.93 0 00-1.16-2.798 3.932 3.932 0 00-2.798-1.16 3.93 3.93 0 00-2.798 1.16L15.99 23.415l-4.275-4.275L23.13 7.724c3.482-3.482 7.655-5.191 12.4-5.083 2.713.063 4.863.731 5.77 1.062.329.893.98 2.984 1.057 5.667.138 4.787-1.572 8.993-5.08 12.501z" fill="#BFBFBF"/></g><defs><clipPath id="clip0"><path fill="#fff" d="M0 0h45v45H0z"/></clipPath></defs></svg>