<svg width="50" height="50" fill="none" xmlns="http://www.w3.org/2000/svg"><g clip-path="url(#clip0)" fill="#383838"><path d="M32.012 3.394a.733.733 0 00.733-.733c-.033-.97-1.433-.97-1.466 0 0 .405.329.733.733.733zm7.426 0a.733.733 0 00.733-.733c-.033-.97-1.433-.97-1.466 0 0 .405.328.733.733.733zm-11.141 0a.733.733 0 00.733-.733c-.033-.97-1.433-.97-1.466 0 0 .405.329.733.733.733zm7.426 0a.733.733 0 00.733-.733c-.033-.97-1.433-.97-1.466 0 0 .405.328.733.733.733zm7.426 0a.733.733 0 00.733-.733c-.034-.97-1.433-.97-1.466 0 0 .405.328.733.733.733zm3.607.106a.733.733 0 00.733-.732c-.033-.97-1.433-.97-1.466 0 0 .404.329.733.733.733zm0 3.713a.733.733 0 00.733-.733c-.033-.97-1.433-.97-1.466 0 0 .405.329.733.733.733zm0 3.713a.733.733 0 00.733-.733c-.034-.97-1.432-.97-1.466 0 0 .405.329.733.733.733zM2.211 39.951a.733.733 0 00.733-.733c-.033-.97-1.433-.97-1.465 0 0 .405.328.733.732.733zm4.074 2.472a.732.732 0 00-.732.733c.033.968 1.432.968 1.465 0a.732.732 0 00-.733-.733zm4.008 0a.732.732 0 00-.732.733c.033.968 1.432.968 1.465 0a.732.732 0 00-.733-.733zm-8.013 0a.732.732 0 00-.733.733c.033.968 1.432.968 1.465 0a.732.732 0 00-.732-.733zM2.211 31.94a.733.733 0 00.733-.733c-.033-.97-1.433-.97-1.465 0 0 .405.328.733.732.733zm0 4.006a.733.733 0 00.733-.733c-.034-.97-1.432-.97-1.465 0 0 .404.328.733.732.733zm0-8.012a.733.733 0 00.733-.733c-.033-.97-1.433-.97-1.465 0 0 .405.328.733.732.733z"/><path d="M49.278 34.51a.73.73 0 00-.776.687 16.828 16.828 0 01-1.482 5.997 17.499 17.499 0 00-7.417-7.41c4.41-4.131 4.676-11.695.376-16.133-.466-.361-.866-.299-1.199.19-3.293 7.029-10.649 9.226-17.881 7.824-.547-.028-.837.23-.87.777a11.505 11.505 0 003.439 7.343 17.487 17.487 0 00-7.388 7.356c-2.042-4.39-2.08-9.787-.06-14.177l1.035.76c.479.352 1.166-.002 1.166-.59v-2.689h1.076c1.703 0 3.318-.676 4.546-1.904 1.229-1.227 1.905-2.84 1.905-4.543V9.92c9.59-4.211 20.766 3.172 20.646 13.659 0 .928.043 2.008.558 3.086.644 1.346 1.118 2.937 1.372 4.602.14.918 1.593.724 1.448-.221-.275-1.806-.793-3.539-1.498-5.013-.345-.723-.415-1.475-.415-2.455.162-11.23-11.691-19.38-22.11-15.239V6.447C25.748 2.892 22.853 0 19.296 0H6.486a6.455 6.455 0 00-6.45 6.447v1.467c0 .947 1.465.947 1.465 0V6.447a4.989 4.989 0 014.985-4.982h12.811a4.989 4.989 0 014.986 4.982v11.551c0 2.7-2.283 4.981-4.986 4.981h-1.809a.733.733 0 00-.732.733v1.973l-3.488-2.563a.734.734 0 00-.434-.143H6.486A4.989 4.989 0 011.501 18v-6.18c0-.948-1.466-.948-1.466 0v6.177c0 3.555 2.894 6.447 6.451 6.447h6.108l2.222 1.633c-2.506 5.193-2.305 11.716.479 16.769a17.445 17.445 0 00-1.232 6.442c0 .948 1.465.948 1.465 0a16.027 16.027 0 019.153-14.47c3.877 3.005 9.9 2.957 13.71-.002a16.039 16.039 0 019.156 14.472c0 .948 1.465.948 1.465 0a17.43 17.43 0 00-1.21-6.384c1.265-2.325 1.992-4.886 2.162-7.618a.733.733 0 00-.686-.776zm-24.01-1.088c-1.866-1.672-3.219-3.63-3.659-6.146 7.13 1.096 14.387-1.193 17.988-7.805 6.86 9.626-4.898 21.063-14.329 13.951z"/><path d="M13.885 5.642c-.68-.177-1.455.118-1.773.767l-1.739 3.557c-1.634-1.742-4.628-.572-4.625 1.845v4.493c.024 2.686 3.503 3.671 4.94 1.443.66.545 1.486.843 2.348.843 1.302 0 2.604-.006 3.905-.002.76 0 1.42-.513 1.607-1.245l1.43-5.582c.206-1.041-.495-2.091-1.605-2.091-1.107.003-2.215.003-3.323.004V7.13a1.53 1.53 0 00-1.165-1.489zM8.429 17.52c-.67 0-1.215-.546-1.215-1.216V11.81c.066-1.612 2.364-1.614 2.431 0-.038 1.496-.016 2.996 0 4.493 0 .67-.545 1.216-1.216 1.216zm9.943-6.385c.13.03.216.126.186.26l-1.424 5.565-.005.015a.195.195 0 01-.188.147c-1.302-.003-2.603.002-3.905.002-.813 0-1.82-.518-1.926-1.409v-3.75a1.34 1.34 0 01.127-.43l2.179-4.455c.074-.043.13-.026.168.051v3.276c0 .404.328.732.733.732l4.055-.004z"/></g><defs><clipPath id="clip0"><path fill="#fff" d="M0 0h50v50H0z"/></clipPath></defs></svg>