<svg width="24" height="24" viewBox="0 0 24 24" fill="none" xmlns="http://www.w3.org/2000/svg">
<path d="M21.7835 12.9423L18.8227 7.81396L18.6159 9.29405L17.138 8.7866L20.1059 13.9272L20.1215 13.9533C20.3224 14.2774 20.4285 14.6517 20.4285 15.0361C20.4285 16.1627 19.5196 17.0812 18.3966 17.0966L18.3838 17.0957L18.3512 17.0968H14.3439V15.8L11.4707 18.0695L14.3439 20.339V19.0421H18.3678C18.3691 19.0421 18.3706 19.0421 18.372 19.0421L18.3831 19.042C20.585 19.0337 22.3737 17.2398 22.3737 15.0361C22.3738 14.2949 22.1698 13.5712 21.7835 12.9423Z" fill="#717171"/>
<path d="M9.79438 18.0316L10.767 17.097H5.63015C4.89626 17.097 4.2125 16.7021 3.84562 16.0666C3.47875 15.4311 3.47875 14.6414 3.84549 14.0058L5.65699 10.8685L6.76735 11.5242L6.27429 7.89609L2.85905 9.21595L3.98192 9.87916L2.16083 13.0333C1.44769 14.2688 1.44769 15.8037 2.16083 17.0392C2.87422 18.2747 4.20362 19.0423 5.63015 19.0423H10.767L9.79438 18.0316Z" fill="#717171"/>
<path d="M7.45859 7.74761L10.2136 2.97548C10.5806 2.34003 11.2644 1.94527 11.9983 1.94527C12.732 1.94527 13.4159 2.34003 13.7828 2.97555L15.3199 5.63803L14.1549 6.28937L17.538 7.68971L18.1168 4.07436L17.0181 4.68868L15.4675 2.00298C14.7541 0.767473 13.4248 0 11.9983 0C10.5716 0 9.24234 0.767473 8.52894 2.00291L5.77393 6.77504L7.22146 6.28237L7.45859 7.74761Z" fill="#717171"/>
<path d="M12.0439 13.4816H11.954C11.5117 13.4816 11.159 13.2577 11.0995 12.5862H9.65283C9.68629 13.9662 10.4595 14.7408 11.9989 14.7408C13.5369 14.7408 14.3464 13.8684 14.3464 12.4922V12.3213C14.3464 10.9451 13.5369 10.0727 12.0709 10.0727C11.6841 10.0727 11.3243 10.1536 11.0095 10.2884L11.0082 8.86736H14.0603V7.60812H9.71177L9.70516 11.4579L10.9374 11.8805C11.1262 11.5029 11.5491 11.3229 11.9179 11.3229H11.9718C12.4935 11.3229 12.9073 11.6107 12.9073 12.3572V12.4561C12.9074 13.2027 12.4937 13.4816 12.0439 13.4816Z" fill="#717171"/>
<path d="M10.4593 20.4677H9.13135V24H9.97177V22.732H10.4594C11.1182 22.732 11.8653 22.5871 11.8653 21.6451V21.5545C11.8652 20.6171 11.1181 20.4677 10.4593 20.4677ZM11.0144 21.6226C11.0144 22.021 10.7239 22.098 10.4957 22.098H9.97177V21.1017H10.4957C10.7239 21.1017 11.0144 21.1787 11.0144 21.5772V21.6226Z" fill="#717171"/>
<path d="M13.6185 20.4677H12.2905V24H13.1309V22.732H13.6186C14.2773 22.732 15.0245 22.5871 15.0245 21.6451V21.5545C15.0243 20.6171 14.2773 20.4677 13.6185 20.4677ZM14.1735 21.6226C14.1735 22.021 13.883 22.098 13.6548 22.098H13.1309V21.1017H13.6548C13.883 21.1017 14.1735 21.1787 14.1735 21.5772V21.6226Z" fill="#717171"/>
</svg>
