<svg width="24" height="24" viewBox="0 0 24 24" fill="none" xmlns="http://www.w3.org/2000/svg">
<path fill-rule="evenodd" clip-rule="evenodd" d="M4.5 7C4.5 6.72386 4.72386 6.5 5 6.5H19C19.2761 6.5 19.5 6.72386 19.5 7V19C19.5 19.2761 19.2761 19.5 19 19.5H5C4.72386 19.5 4.5 19.2761 4.5 19V7ZM5.5 7.5V18.5H18.5V7.5H5.5Z" fill="black"/>
<path fill-rule="evenodd" clip-rule="evenodd" d="M12 3.5C10.067 3.5 8.5 5.067 8.5 7C8.5 7.27614 8.27614 7.5 8 7.5C7.72386 7.5 7.5 7.27614 7.5 7C7.5 4.51472 9.51472 2.5 12 2.5C14.4853 2.5 16.5 4.51472 16.5 7C16.5 7.27614 16.2761 7.5 16 7.5C15.7239 7.5 15.5 7.27614 15.5 7C15.5 5.067 13.933 3.5 12 3.5Z" fill="black"/>
</svg>
