<svg width="24" height="24" viewBox="0 0 24 24" fill="none" xmlns="http://www.w3.org/2000/svg">
<path d="M23.6436 14.1055L20.906 8.24191L22.0878 8.58089C22.3473 8.65537 22.6181 8.50545 22.6924 8.24573C22.7669 7.9862 22.617 7.71559 22.3574 7.64111L14.1407 5.28318C14.1424 5.24804 14.1434 5.21291 14.1434 5.17758C14.1435 4.2019 13.4849 3.34921 12.5407 3.10343C11.5966 2.85746 10.6056 3.28046 10.1299 4.1322L1.91239 1.77446C1.65286 1.69998 1.38206 1.85008 1.30758 2.10961C1.23329 2.36914 1.38321 2.63975 1.64274 2.71423L3.26447 3.17963L0.327517 9.47024C0.13158 9.5388 0.000191229 9.72366 2.57209e-07 9.93144C-0.00057266 11.5186 0.956004 12.9494 2.42286 13.5553C3.88971 14.1615 5.57733 13.8231 6.69718 12.6984C7.44331 11.971 7.86478 10.9736 7.86669 9.93144C7.86669 9.71259 7.72098 9.52047 7.51034 9.46108L4.78078 3.61485L9.85948 5.07197C9.85776 5.10711 9.85681 5.14225 9.85681 5.17777C9.85834 6.17254 10.543 7.03592 11.5112 7.26394V16.9479H10.1618C9.08357 16.9479 8.18676 17.8132 8.18676 18.8916V19.1754C7.27946 19.3664 6.62805 20.1643 6.62232 21.0916V21.7761C6.63053 22.052 6.85454 22.2728 7.13069 22.2768H16.8695C17.1456 22.2728 17.3696 22.052 17.3778 21.7761V21.0916C17.3721 20.1643 16.7207 19.3664 15.8134 19.1754V18.8916C15.8134 17.8132 14.9164 16.9479 13.8384 16.9479H12.489V7.26394C13.0749 7.12549 13.5758 6.74775 13.8703 6.22277L19.4039 7.8107L16.4608 14.1147C16.2647 14.1832 16.1333 14.3681 16.1331 14.5757C16.1327 16.1629 17.0893 17.5936 18.5561 18.1996C20.023 18.8057 21.7104 18.4675 22.8303 17.3429C23.5764 16.6153 23.9981 15.6178 24 14.5757C23.9998 14.3568 23.8543 14.1649 23.6436 14.1055ZM3.92103 4.06096L6.42257 9.41906H1.41968L3.92103 4.06096ZM3.92103 12.851C2.4811 12.8594 1.24953 11.8182 1.01845 10.3968H6.84595C6.59711 11.8171 5.36306 12.8527 3.92103 12.851ZM16.4001 21.0916V21.299H7.6001V21.0916C7.6001 20.5525 8.05843 20.1257 8.59735 20.1257H15.4028C15.9417 20.1257 16.4001 20.5525 16.4001 21.0916ZM14.8356 18.8916V19.1479H9.16454V18.8916C9.16454 18.3525 9.62287 17.9257 10.1618 17.9257H13.8384C14.3773 17.9257 14.8356 18.3525 14.8356 18.8916ZM12.0001 6.34308C11.503 6.34346 11.0603 6.02874 10.8974 5.55914C10.7345 5.08954 10.8871 4.56838 11.2774 4.26072C11.668 3.95306 12.2105 3.92671 12.629 4.19522C13.0474 4.46353 13.2496 4.96751 13.1329 5.45067C13.1205 5.4816 13.1113 5.5135 13.1054 5.54615C12.9463 6.02167 12.5014 6.3425 12.0001 6.34308ZM22.5558 14.0635H17.553L20.0543 8.7054L22.5558 14.0635ZM20.0543 17.4955C18.6144 17.5039 17.3828 16.4627 17.1517 15.0413H22.9792C22.7304 16.4615 21.4963 17.4972 20.0543 17.4955Z" fill="#383838"/>
</svg>
