<svg width="24" height="24" viewBox="0 0 24 24" fill="none" xmlns="http://www.w3.org/2000/svg">
<g id="bin">
<path id="Path 2 (Stroke)" fill-rule="evenodd" clip-rule="evenodd" d="M4.5 6C4.5 5.72386 4.72386 5.5 5 5.5H19C19.2761 5.5 19.5 5.72386 19.5 6C19.5 6.27614 19.2761 6.5 19 6.5H5C4.72386 6.5 4.5 6.27614 4.5 6Z" fill="#717171"/>
<path id="Path 2 (Stroke)_2" fill-rule="evenodd" clip-rule="evenodd" d="M9.5 5C9.5 4.72386 9.72386 4.5 10 4.5H14C14.2761 4.5 14.5 4.72386 14.5 5C14.5 5.27614 14.2761 5.5 14 5.5H10C9.72386 5.5 9.5 5.27614 9.5 5Z" fill="#717171"/>
<path id="Path 8 (Stroke)" fill-rule="evenodd" clip-rule="evenodd" d="M6 9.5C6.27614 9.5 6.5 9.72386 6.5 10V20.5H17.5V10.0005C17.5 10.0004 17.5 10 18 10C18.5 10 18.5 10 18.5 10.0001V21.5H5.5V10C5.5 9.72386 5.72386 9.5 6 9.5ZM18 10L18.5 10.0001C18.5 9.72397 18.2761 9.5 18 9.5C17.7239 9.5 17.5 9.72431 17.5 10.0005L18 10Z" fill="#717171"/>
</g>
</svg>
