<svg width="30" height="30" viewBox="0 0 30 30" fill="none" xmlns="http://www.w3.org/2000/svg">
<g clip-path="url(#clip0)">
<path d="M29.7754 13.3999L28.2295 9.99292C27.6729 8.78149 26.4631 8.00366 25.1299 8H2.96509C1.32812 8.00171 0.00170899 9.32812 0 10.9651V18.375C0.0012207 19.272 0.728027 19.9988 1.625 20H4.05005C4.28662 21.1653 5.31104 22.0024 6.5 22.0024C7.68896 22.0024 8.71338 21.1653 8.94995 20H21.05C21.2866 21.1653 22.311 22.0024 23.5 22.0024C24.689 22.0024 25.7134 21.1653 25.95 20H28.6101C29.3774 19.9993 29.9993 19.3774 30 18.6101V14.4351C30.0002 14.0779 29.9236 13.7249 29.7754 13.3999ZM28.6914 13.4326L24 13.04V10.9399L27.3711 10.5186L28.6914 13.4326ZM6.5 21C5.67163 21 5 20.3284 5 19.5C5 18.6716 5.67163 18 6.5 18C7.32837 18 8 18.6716 8 19.5C8 20.3284 7.32837 21 6.5 21ZM23.5 21C22.6716 21 22 20.3284 22 19.5C22 18.6716 22.6716 18 23.5 18C24.3284 18 25 18.6716 25 19.5C25 20.3284 24.3284 21 23.5 21ZM28.6101 19H25.95C25.7134 17.8347 24.689 16.9976 23.5 16.9976C22.311 16.9976 21.2866 17.8347 21.05 19H8.94995C8.71338 17.8347 7.68896 16.9976 6.5 16.9976C5.31104 16.9976 4.28662 17.8347 4.05005 19H1.625C1.28003 18.9995 1.00049 18.72 1 18.375V10.9651C1.00122 9.88013 1.88013 9.00122 2.96509 9H25.1299C25.7114 9.00122 26.2727 9.21265 26.7104 9.59497L23.469 10H4C3.72388 10 3.5 10.2239 3.5 10.5V13.5C3.5 13.7761 3.72388 14 4 14H23.479L29 14.46V18.6101C28.9998 18.8252 28.8252 18.9998 28.6101 19ZM4.5 13V11H8V13H4.5ZM9 11H13V13H9V11ZM14 11H17.5V13H14V11ZM18.5 11H23V13H18.5V11Z" fill="black"/>
</g>
<defs>
<clipPath id="clip0">
<rect width="30" height="30" fill="white"/>
</clipPath>
</defs>
</svg>
