<svg width="20" height="20" viewBox="0 0 20 20" fill="none" xmlns="http://www.w3.org/2000/svg">
<path fill-rule="evenodd" clip-rule="evenodd" d="M7.58395 7.58402C7.77921 7.38876 8.09579 7.38876 8.29105 7.58402L12.4158 11.7088C12.6111 11.9041 12.6111 12.2207 12.4158 12.4159C12.2206 12.6112 11.904 12.6112 11.7087 12.4159L7.58395 8.29113C7.38868 8.09587 7.38868 7.77928 7.58395 7.58402Z" fill="#717171"/>
<path fill-rule="evenodd" clip-rule="evenodd" d="M12.4161 7.58402C12.6113 7.77928 12.6113 8.09587 12.4161 8.29113L8.29126 12.4159C8.096 12.6112 7.77942 12.6112 7.58416 12.4159C7.3889 12.2207 7.3889 11.9041 7.58416 11.7088L11.7089 7.58402C11.9042 7.38876 12.2208 7.38876 12.4161 7.58402Z" fill="#717171"/>
<path fill-rule="evenodd" clip-rule="evenodd" d="M5.52166 5.5218C7.99498 3.04848 12.005 3.04848 14.4783 5.5218C16.9517 7.99512 16.9517 12.0052 14.4783 14.4785C12.005 16.9518 7.99498 16.9518 5.52166 14.4785C3.04834 12.0052 3.04834 7.99512 5.52166 5.5218ZM13.7712 6.22891C11.6884 4.14611 8.31156 4.14611 6.22876 6.22891C4.14597 8.3117 4.14597 11.6886 6.22876 13.7714C8.31156 15.8542 11.6884 15.8542 13.7712 13.7714C15.854 11.6886 15.854 8.3117 13.7712 6.22891Z" fill="#717171"/>
</svg>
