<svg width="30" height="30" viewBox="0 0 30 30" fill="none" xmlns="http://www.w3.org/2000/svg">
<path d="M11.0299 23.2351L11.1592 22.7521C11.0411 22.7205 10.9156 22.7332 10.8062 22.7879L11.0299 23.2351ZM5 26.25L4.50503 26.1793C4.47872 26.3634 4.55678 26.5469 4.70764 26.6556C4.85851 26.7644 5.05727 26.7804 5.22361 26.6972L5 26.25ZM5.81654 20.5342L6.31151 20.605C6.33556 20.4366 6.2724 20.2676 6.14384 20.1563L5.81654 20.5342ZM15 24.25C22.0698 24.25 28 19.6473 28 13.75H27C27 18.8984 21.7373 23.25 15 23.25V24.25ZM10.9005 23.7181C12.1903 24.0634 13.5688 24.25 15 24.25V23.25C13.6556 23.25 12.3641 23.0747 11.1592 22.7521L10.9005 23.7181ZM5.22361 26.6972L11.2535 23.6823L10.8062 22.7879L4.77639 25.8028L5.22361 26.6972ZM5.32156 20.4635L4.50503 26.1793L5.49497 26.3207L6.31151 20.605L5.32156 20.4635ZM2 13.75C2 16.5376 3.34058 19.0517 5.48924 20.9122L6.14384 20.1563C4.17515 18.4516 3 16.1991 3 13.75H2ZM15 3.25C7.93018 3.25 2 7.85266 2 13.75H3C3 8.60164 8.2627 4.25 15 4.25V3.25ZM28 13.75C28 7.85266 22.0698 3.25 15 3.25V4.25C21.7373 4.25 27 8.60164 27 13.75H28Z" fill="white"/>
</svg>
