<svg width="24" height="24" viewBox="0 0 24 24" fill="none" xmlns="http://www.w3.org/2000/svg">
<path fill-rule="evenodd" clip-rule="evenodd" d="M9 4.5C8.17157 4.5 7.5 5.17157 7.5 6C7.5 6.82843 8.17157 7.5 9 7.5C9.82843 7.5 10.5 6.82843 10.5 6C10.5 5.17157 9.82843 4.5 9 4.5ZM6.5 6C6.5 4.61929 7.61929 3.5 9 3.5C10.3807 3.5 11.5 4.61929 11.5 6C11.5 7.38071 10.3807 8.5 9 8.5C7.61929 8.5 6.5 7.38071 6.5 6Z" fill="#383838"/>
<path fill-rule="evenodd" clip-rule="evenodd" d="M3.5 6C3.5 5.72386 3.72386 5.5 4 5.5H7C7.27614 5.5 7.5 5.72386 7.5 6C7.5 6.27614 7.27614 6.5 7 6.5H4C3.72386 6.5 3.5 6.27614 3.5 6Z" fill="#383838"/>
<path fill-rule="evenodd" clip-rule="evenodd" d="M10.5 6C10.5 5.72386 10.7239 5.5 11 5.5H20C20.2761 5.5 20.5 5.72386 20.5 6C20.5 6.27614 20.2761 6.5 20 6.5H11C10.7239 6.5 10.5 6.27614 10.5 6Z" fill="#383838"/>
<path fill-rule="evenodd" clip-rule="evenodd" d="M9 16.5C8.17157 16.5 7.5 17.1716 7.5 18C7.5 18.8284 8.17157 19.5 9 19.5C9.82843 19.5 10.5 18.8284 10.5 18C10.5 17.1716 9.82843 16.5 9 16.5ZM6.5 18C6.5 16.6193 7.61929 15.5 9 15.5C10.3807 15.5 11.5 16.6193 11.5 18C11.5 19.3807 10.3807 20.5 9 20.5C7.61929 20.5 6.5 19.3807 6.5 18Z" fill="#383838"/>
<path fill-rule="evenodd" clip-rule="evenodd" d="M3.5 18C3.5 17.7239 3.72386 17.5 4 17.5H7C7.27614 17.5 7.5 17.7239 7.5 18C7.5 18.2761 7.27614 18.5 7 18.5H4C3.72386 18.5 3.5 18.2761 3.5 18Z" fill="#383838"/>
<path fill-rule="evenodd" clip-rule="evenodd" d="M10.5 18C10.5 17.7239 10.7239 17.5 11 17.5H20C20.2761 17.5 20.5 17.7239 20.5 18C20.5 18.2761 20.2761 18.5 20 18.5H11C10.7239 18.5 10.5 18.2761 10.5 18Z" fill="#383838"/>
<path fill-rule="evenodd" clip-rule="evenodd" d="M15 10.5C14.1716 10.5 13.5 11.1716 13.5 12C13.5 12.8284 14.1716 13.5 15 13.5C15.8284 13.5 16.5 12.8284 16.5 12C16.5 11.1716 15.8284 10.5 15 10.5ZM12.5 12C12.5 10.6193 13.6193 9.5 15 9.5C16.3807 9.5 17.5 10.6193 17.5 12C17.5 13.3807 16.3807 14.5 15 14.5C13.6193 14.5 12.5 13.3807 12.5 12Z" fill="#383838"/>
<path fill-rule="evenodd" clip-rule="evenodd" d="M3.5 12C3.5 11.7239 3.72386 11.5 4 11.5H13C13.2761 11.5 13.5 11.7239 13.5 12C13.5 12.2761 13.2761 12.5 13 12.5H4C3.72386 12.5 3.5 12.2761 3.5 12Z" fill="#383838"/>
<path fill-rule="evenodd" clip-rule="evenodd" d="M16.5 12C16.5 11.7239 16.7239 11.5 17 11.5L20 11.5C20.2761 11.5 20.5 11.7239 20.5 12C20.5 12.2761 20.2761 12.5 20 12.5L17 12.5C16.7239 12.5 16.5 12.2761 16.5 12Z" fill="#383838"/>
</svg>
