<svg width="24" height="24" viewBox="0 0 24 24" fill="none" xmlns="http://www.w3.org/2000/svg">
<g clip-path="url(#clip0)">
<path d="M23.3487 12.1029C23.2767 12.0888 21.9854 11.839 20.2525 11.7112C20.2609 11.552 20.2653 11.3917 20.2653 11.2304C20.2653 6.24563 16.2099 2.19019 11.2251 2.19019C6.24031 2.19019 2.1848 6.24563 2.1848 11.2304C2.1848 12.2814 2.36574 13.2907 2.69688 14.2298C1.54104 14.327 0.700953 14.4896 0.651278 14.4993L0 14.627L0.283661 15.227C0.37111 15.4121 2.45573 19.7731 5.06682 21.0924C6.0091 21.5684 6.8904 21.8098 7.68632 21.8099C7.6865 21.8099 7.68656 21.8099 7.68668 21.8099C8.87206 21.8099 9.84276 21.2745 10.4535 20.2937C11.2549 21.2511 12.3826 21.767 13.7173 21.767C14.7805 21.767 15.9625 21.4423 17.2304 20.8017C20.7603 19.0183 23.5973 13.0826 23.7163 12.8307L24 12.2307L23.3487 12.1029ZM18.6732 8.29082C18.3325 8.01184 17.94 7.75074 17.4982 7.51148C16.9515 7.21533 16.3465 6.9631 15.6991 6.75653C15.4925 6.10898 15.2403 5.50406 14.944 4.95717C14.7048 4.51542 14.4437 4.123 14.1647 3.78226C16.2192 4.59606 17.8595 6.2364 18.6732 8.29082ZM19.1656 10.7138H16.3498C16.3201 9.76401 16.2084 8.84163 16.0214 7.97318C17.6994 8.62884 18.8807 9.61049 19.1656 10.7138ZM11.7417 3.28984C12.8451 3.5748 13.8267 4.75622 14.4825 6.43415C13.614 6.24723 12.6916 6.13551 11.7417 6.10579V3.28984ZM11.7417 7.1393C12.8525 7.17755 13.9099 7.33794 14.8616 7.59396C15.1176 8.54571 15.278 9.60303 15.3163 10.7138H11.7417V7.1393ZM11.7417 11.747H15.3163C15.3147 11.7926 15.313 11.8383 15.311 11.8837C14.4494 12.0436 13.7048 12.2806 13.0841 12.5942C12.5884 12.8446 12.1408 13.1118 11.7417 13.3951V11.747ZM10.7085 3.28984V6.10579C9.75863 6.13551 8.83624 6.24723 7.96773 6.43415C8.62345 4.75622 9.60516 3.5748 10.7085 3.28984ZM10.7085 7.1393V10.7138H7.13392C7.17217 9.60309 7.33256 8.54571 7.58863 7.59396C8.54032 7.33794 9.59776 7.17761 10.7085 7.1393ZM8.28544 3.78238C8.00639 4.12312 7.74535 4.51554 7.50609 4.95729C7.20988 5.50412 6.95766 6.1091 6.75109 6.75659C6.10354 6.96322 5.49868 7.21539 4.95178 7.5116C4.51004 7.75085 4.11761 8.0119 3.77688 8.29088C4.59068 6.23634 6.23095 4.59606 8.28544 3.78238ZM6.42876 7.97312C6.24185 8.84163 6.13006 9.76395 6.1004 10.7138H3.28451C3.56942 9.61049 4.75083 8.62884 6.42876 7.97312ZM6.1004 11.747C6.12811 12.633 6.22699 13.4951 6.39182 14.3119C6.21485 14.2823 6.03166 14.2569 5.8422 14.2359C4.47807 13.5928 3.5349 12.7168 3.28451 11.747H6.1004ZM9.3202 20.0869C8.97757 20.465 8.46057 20.7766 7.68668 20.7766H7.68644C7.05381 20.7766 6.32918 20.5726 5.53272 20.1702C3.77469 19.2819 2.18871 16.6175 1.53465 15.4019C2.1861 15.3087 3.22886 15.1909 4.33567 15.1909C5.8091 15.1909 6.95606 15.3929 7.74476 15.7914C8.45542 16.1503 8.99924 16.5522 9.3723 16.9851C9.29811 17.7383 9.44175 18.5094 9.80149 19.2653L4.57854 16.8198L9.3202 20.0869ZM8.64175 15.1027C8.50367 15.0228 8.36033 14.9448 8.2106 14.8691C7.9984 14.7619 7.76613 14.6674 7.51628 14.5842C7.30242 13.7074 7.1685 12.749 7.13392 11.7469H10.7085V14.2741C10.4015 14.5922 10.1454 14.9262 9.94045 15.2752C9.49528 15.2367 9.06117 15.1786 8.64175 15.1027ZM16.7645 19.8794C15.6424 20.4463 14.6171 20.7337 13.7173 20.7337C12.5167 20.7337 11.7393 20.221 11.2412 19.6236L18.4143 15.0289L10.7815 18.9201C10.78 18.9171 10.7782 18.9139 10.7767 18.9109C9.75531 16.8889 10.7662 14.9227 13.55 13.5164C14.6612 12.955 16.267 12.6703 18.3226 12.6703C20.0158 12.6703 21.6054 12.8704 22.4713 13.0026C21.6588 14.5484 19.3554 18.5704 16.7645 19.8794Z" fill="#717171"/>
</g>
<defs>
<clipPath id="clip0">
<rect width="24" height="24" fill="white"/>
</clipPath>
</defs>
</svg>
