<svg width="24" height="24" viewBox="0 0 24 24" fill="none" xmlns="http://www.w3.org/2000/svg">
<g id="favourite">
<path id="Shape (Stroke)" fill-rule="evenodd" clip-rule="evenodd" d="M7.5 3.5C4.68702 3.5 2.5 5.65902 2.5 8.3951C2.5 10.0816 3.26867 11.6527 4.72777 13.4025C6.19229 15.1589 8.2971 17.032 10.8823 19.3316L12.0013 20.3308L13.1173 19.3417L13.1184 19.3408L13.1297 19.3307C15.7093 17.0312 17.8098 15.1588 19.2721 13.4039C20.7313 11.6527 21.5 10.0816 21.5 8.3951C21.5 5.65902 19.313 3.5 16.5 3.5C14.9078 3.5 13.3746 4.22946 12.3776 5.37791L12 5.81285L11.6224 5.37791C10.6254 4.22946 9.09217 3.5 7.5 3.5ZM1.5 8.3951C1.5 5.08867 4.15298 2.5 7.5 2.5C9.19687 2.5 10.8282 3.19453 12 4.32465C13.1718 3.19453 14.8031 2.5 16.5 2.5C19.847 2.5 22.5 5.08867 22.5 8.3951C22.5 10.4165 21.5687 12.21 20.0404 14.0441C18.5304 15.8562 16.384 17.7694 13.8477 20.0303L13.7827 20.0882L13.7816 20.0892L11.9987 21.6692L10.2177 20.0788L10.1786 20.044C7.63086 17.7778 5.47497 15.8601 3.95973 14.043C2.43133 12.21 1.5 10.4165 1.5 8.3951Z" fill="black"/>
</g>
</svg>
