<svg width="30" height="30" viewBox="0 0 30 30" fill="none" xmlns="http://www.w3.org/2000/svg">
<g id="inbox">
<path id="Path 30 (Stroke)" fill-rule="evenodd" clip-rule="evenodd" d="M10.75 13.25H4V11.75H11.5C11.9142 11.75 12.25 12.0858 12.25 12.5V15.5H18.25V12.5C18.25 12.0858 18.5858 11.75 19 11.75H26.5V13.25H19.75V16.25C19.75 16.6642 19.4142 17 19 17H11.5C11.0858 17 10.75 16.6642 10.75 16.25V13.25Z" fill="black"/>
<path id="Path 29 (Stroke)" fill-rule="evenodd" clip-rule="evenodd" d="M7.07918 4.66459C7.20622 4.4105 7.46592 4.25 7.75 4.25H22.75C23.0341 4.25 23.2938 4.4105 23.4208 4.66459L27.1708 12.1646C27.2229 12.2687 27.25 12.3836 27.25 12.5V25C27.25 25.4142 26.9142 25.75 26.5 25.75H4C3.58579 25.75 3.25 25.4142 3.25 25V12.5C3.25 12.3836 3.27711 12.2687 3.32918 12.1646L7.07918 4.66459ZM8.21353 5.75L4.75 12.6771V24.25H25.75V12.6771L22.2865 5.75H8.21353Z" fill="black"/>
</g>
</svg>
