<svg width="20" height="20" viewBox="0 0 20 20" fill="none" xmlns="http://www.w3.org/2000/svg">
<g id="circle-ok">
<path id="Path 3 (Stroke)" fill-rule="evenodd" clip-rule="evenodd" d="M14.5209 7.14645C14.7161 7.34171 14.7161 7.65829 14.5209 7.85355L8.33398 14.0404L5.48043 11.1869C5.28517 10.9916 5.28517 10.675 5.48043 10.4798C5.67569 10.2845 5.99228 10.2845 6.18754 10.4798L8.33398 12.6262L13.8138 7.14645C14.009 6.95118 14.3256 6.95118 14.5209 7.14645Z" fill="#62C0CB"/>
<path id="Oval (Stroke)" fill-rule="evenodd" clip-rule="evenodd" d="M1.16602 10.0003C1.16602 5.12181 5.12083 1.16699 9.99935 1.16699C14.8779 1.16699 18.8327 5.12181 18.8327 10.0003C18.8327 14.8788 14.8779 18.8337 9.99935 18.8337C5.12083 18.8337 1.16602 14.8788 1.16602 10.0003ZM9.99935 2.16699C5.67312 2.16699 2.16602 5.6741 2.16602 10.0003C2.16602 14.3266 5.67312 17.8337 9.99935 17.8337C14.3256 17.8337 17.8327 14.3266 17.8327 10.0003C17.8327 5.6741 14.3256 2.16699 9.99935 2.16699Z" fill="#62C0CB"/>
</g>
</svg>
