<svg width="30" height="30" viewBox="0 0 30 30" fill="none" xmlns="http://www.w3.org/2000/svg">
<g id="location">
<path id="Oval 2 (Stroke)" fill-rule="evenodd" clip-rule="evenodd" d="M6.75 11.25C6.75 6.69365 10.4437 3 15 3C19.5563 3 23.25 6.69365 23.25 11.25C23.25 15.041 21.2703 18.9461 19.3772 21.8331C18.4209 23.2915 17.4657 24.5212 16.7497 25.3864C16.3913 25.8194 16.092 26.1621 15.8812 26.3977C15.7758 26.5156 15.6925 26.6067 15.6349 26.669C15.6062 26.7001 15.5838 26.724 15.5683 26.7405L15.5504 26.7596L15.5454 26.7648L15.5439 26.7664L15.5434 26.7669C15.5432 26.7671 15.5431 26.7672 15 26.25C14.4569 26.7672 14.4568 26.7671 14.4566 26.7669L14.4561 26.7664L14.4546 26.7648L14.4496 26.7596L14.4317 26.7405C14.4162 26.724 14.3938 26.7001 14.3651 26.669C14.3075 26.6067 14.2242 26.5156 14.1188 26.3977C13.908 26.1621 13.6087 25.8194 13.2503 25.3864C12.5343 24.5212 11.5791 23.2915 10.6228 21.8331C8.7297 18.9461 6.75 15.041 6.75 11.25ZM15 26.25L14.4569 26.7672L15 27.3375L15.5431 26.7672L15 26.25ZM15 25.1296C15.1677 24.9375 15.3684 24.7027 15.5941 24.43C16.2843 23.596 17.2041 22.4116 18.1228 21.0106C19.9797 18.1789 21.75 14.584 21.75 11.25C21.75 7.52208 18.7279 4.5 15 4.5C11.2721 4.5 8.25 7.52208 8.25 11.25C8.25 14.584 10.0203 18.1789 11.8772 21.0106C12.7959 22.4116 13.7157 23.596 14.4059 24.43C14.6316 24.7027 14.8323 24.9375 15 25.1296Z" fill="black"/>
<path id="Oval 3 (Stroke)" fill-rule="evenodd" clip-rule="evenodd" d="M13 11.25C13 10.1454 13.8954 9.25 15 9.25C16.1046 9.25 17 10.1454 17 11.25C17 12.3546 16.1046 13.25 15 13.25C13.8954 13.25 13 12.3546 13 11.25ZM15 10.75C14.7239 10.75 14.5 10.9739 14.5 11.25C14.5 11.5261 14.7239 11.75 15 11.75C15.2761 11.75 15.5 11.5261 15.5 11.25C15.5 10.9739 15.2761 10.75 15 10.75Z" fill="black"/>
</g>
</svg>
