<svg width="30" height="31" viewBox="0 0 30 31" fill="none" xmlns="http://www.w3.org/2000/svg">
<path fill-rule="evenodd" clip-rule="evenodd" d="M16.3698 23.365C18.6272 24.623 20.6958 25.3763 22.0295 25.7855C22.7925 26.0196 23.6224 25.781 24.2156 25.1853L25.1979 24.1988C25.4176 23.9782 25.3853 23.6119 25.1306 23.4335L20.272 20.0305C20.0737 19.8916 19.8048 19.9155 19.6338 20.0872L16.3698 23.365ZM15.4918 22.855C15.5135 22.8167 15.5406 22.7806 15.5731 22.748L18.9282 19.3786C19.4411 18.8635 20.2479 18.7919 20.8429 19.2086L25.7014 22.6115C26.4656 23.1468 26.5624 24.2457 25.9035 24.9074L24.9212 25.8939C24.0968 26.7218 22.8921 27.098 21.738 26.7439C19.2258 25.9732 14.153 24.0118 9.97427 19.8154C5.79558 15.619 3.84255 10.5246 3.0751 8.00174C2.72251 6.84266 3.09709 5.63288 3.92145 4.80501L4.90383 3.81846C5.56269 3.15681 6.65693 3.25397 7.18996 4.02147L10.5785 8.90063C10.9935 9.4981 10.9221 10.3084 10.4092 10.8234L7.0541 14.1928C7.02158 14.2255 6.98568 14.2527 6.94755 14.2744C7.91692 15.8896 9.14274 17.5631 10.6799 19.1068C12.217 20.6505 13.8835 21.8815 15.4918 22.855ZM6.43965 13.3927L9.70361 10.1148C9.87457 9.94314 9.89835 9.67305 9.76004 9.4739L6.37148 4.59473C6.19381 4.3389 5.82906 4.30651 5.60944 4.52706L4.62706 5.51362C4.03391 6.10928 3.79635 6.94271 4.02944 7.70896C4.43688 9.04834 5.18702 11.1257 6.43965 13.3927Z" fill="white"/>
</svg>
