<svg width="60" height="60" viewBox="0 0 60 60" fill="none" xmlns="http://www.w3.org/2000/svg">
<path fill-rule="evenodd" clip-rule="evenodd" d="M30 59C13.9837 59 1 46.0163 1 30C1 13.9837 13.9837 1 30 1C46.0163 1 59 13.9837 59 30C59 46.0163 46.0163 59 30 59ZM30 60C13.4315 60 0 46.5685 0 30C0 13.4315 13.4315 0 30 0C46.5685 0 60 13.4315 60 30C60 46.5685 46.5685 60 30 60Z" fill="#DDDDDD"/>
<path fill-rule="evenodd" clip-rule="evenodd" d="M32.6869 37.3536C32.8822 37.1583 32.8822 36.8417 32.6869 36.6464L26.0405 30L32.6869 23.3536C32.8822 23.1583 32.8822 22.8417 32.6869 22.6464C32.4917 22.4512 32.1751 22.4512 31.9798 22.6464L24.6263 30L31.9798 37.3536C32.1751 37.5488 32.4917 37.5488 32.6869 37.3536Z" fill="black"/>
</svg>
