<svg width="24" height="24" viewBox="0 0 24 24" fill="none" xmlns="http://www.w3.org/2000/svg">
<path d="M22.0925 16.8813L19.6548 15.4739L21.7673 14.2283C22.1569 13.9985 22.2865 13.4964 22.0568 13.1068C21.827 12.7173 21.325 12.5877 20.9353 12.8173L18.0254 14.5332L13.6378 11.9999L18.0246 9.46717L20.9354 11.1828C21.0659 11.2598 21.2092 11.2963 21.3505 11.2963C21.6309 11.2963 21.904 11.1521 22.0568 10.893C22.2864 10.5034 22.1567 10.0013 21.7671 9.77151L19.6543 8.52631L22.0925 7.11861C22.4842 6.89246 22.6184 6.39156 22.3923 5.99986C22.1661 5.60806 21.6652 5.47385 21.2735 5.70011L18.8358 7.10758L18.8137 4.65485C18.8096 4.20255 18.4386 3.83706 17.9874 3.84328C17.5351 3.84732 17.1716 4.21729 17.1758 4.66959L17.2063 8.04834L12.8189 10.5814V5.51567L15.7605 3.85322C16.1542 3.63067 16.293 3.13108 16.0705 2.7372C15.8479 2.34342 15.3482 2.20452 14.9544 2.42718L12.8189 3.63416V0.818997C12.8189 0.366692 12.4522 0 11.9999 0C11.5476 0 11.1809 0.366692 11.1809 0.818997V3.63416L9.04544 2.42729C8.65145 2.20463 8.15208 2.34342 7.92942 2.73731C7.70687 3.13108 7.84566 3.63078 8.23944 3.85333L11.1808 5.51578V10.5814L6.79353 8.04834L6.82399 4.66959C6.82814 4.21729 6.46473 3.84732 6.01242 3.84328C6.00991 3.84328 6.00751 3.84328 6.00489 3.84328C5.55608 3.84328 5.19015 4.20506 5.18611 4.65496L5.16394 7.10758L2.72628 5.70011C2.33458 5.47385 1.83368 5.60816 1.60753 5.99986C1.38137 6.39156 1.51558 6.89246 1.90728 7.11861L4.34538 8.52631L2.23226 9.77173C1.84263 10.0014 1.7129 10.5035 1.94255 10.8932C2.09532 11.1523 2.36843 11.2965 2.64896 11.2965C2.79027 11.2965 2.93343 11.2599 3.06403 11.183L5.97518 9.46739L10.3621 12.0002L5.97442 14.5334L3.06403 12.8172C2.67463 12.5875 2.17231 12.7171 1.94255 13.1067C1.7128 13.4963 1.84242 13.9984 2.23204 14.2281L4.34483 15.4738L1.90717 16.8812C1.51547 17.1073 1.38127 17.6082 1.60742 17.9999C1.7591 18.2627 2.03439 18.4095 2.31743 18.4095C2.45634 18.4095 2.5972 18.3741 2.72617 18.2997L5.16383 16.8922L5.186 19.345C5.19004 19.7948 5.55597 20.1567 6.00478 20.1567C6.00729 20.1567 6.0098 20.1567 6.01231 20.1566C6.46462 20.1526 6.82803 19.7826 6.82388 19.3303L6.79342 15.9514L11.1808 13.4183V18.4842L8.23944 20.1467C7.84566 20.3692 7.70687 20.8688 7.92942 21.2627C8.08001 21.5291 8.35748 21.6789 8.64315 21.6789C8.77965 21.6789 8.91811 21.6447 9.04544 21.5727L11.1809 20.3658V23.181C11.1809 23.6333 11.5476 24 11.9999 24C12.4522 24 12.8189 23.6333 12.8189 23.181V20.3658L14.9544 21.5727C15.0818 21.6447 15.2201 21.6789 15.3567 21.6789C15.6424 21.6789 15.9199 21.5291 16.0705 21.2627C16.293 20.8689 16.1542 20.3692 15.7605 20.1467L12.8189 18.4842V13.4184L17.2063 15.9514L17.175 19.3302C17.1708 19.7825 17.5341 20.1526 17.9864 20.1567C17.989 20.1568 17.9915 20.1568 17.9941 20.1568C18.4428 20.1568 18.8088 19.795 18.8129 19.3454L18.8356 16.8922L21.2736 18.2998C21.4026 18.3743 21.5434 18.4096 21.6823 18.4096C21.9654 18.4096 22.2407 18.2627 22.3924 18C22.6185 17.6083 22.4843 17.1074 22.0925 16.8813Z" fill="#717171"/>
</svg>
