<svg width="24" height="24" viewBox="0 0 24 24" fill="none" xmlns="http://www.w3.org/2000/svg">
<g clip-path="url(#clip0)">
<path d="M16.254 7.74607C15.1746 6.66671 13.6508 5.96829 12 5.96829C10.3492 5.96829 8.8254 6.63496 7.74604 7.74607C6.66667 8.82544 5.96826 10.3492 5.96826 12C5.96826 13.6508 6.66667 15.1746 7.74604 16.254C8.8254 17.3334 10.3492 18.0318 12 18.0318C13.6508 18.0318 15.1746 17.3651 16.254 16.254C17.3333 15.1746 18.0318 13.6508 18.0318 12C18.0318 10.3492 17.3651 8.82544 16.254 7.74607ZM15.1111 15.1111C14.3175 15.9048 13.2064 16.381 12 16.381C10.7937 16.381 9.68255 15.9048 8.8889 15.1111C8.09525 14.3175 7.61906 13.2064 7.61906 12C7.61906 10.7937 8.09525 9.68258 8.8889 8.88893C9.68255 8.09528 10.7937 7.61909 12 7.61909C13.2064 7.61909 14.3175 8.09528 15.1111 8.88893C15.9048 9.68258 16.381 10.7937 16.381 12C16.381 13.2064 15.9048 14.3175 15.1111 15.1111Z" fill="#717171"/>
<path d="M23.1746 11.1746H20.7302C20.2857 11.1746 19.9048 11.5555 19.9048 12C19.9048 12.4444 20.2857 12.8254 20.7302 12.8254H23.1746C23.6191 12.8254 24 12.4444 24 12C24 11.5555 23.6191 11.1746 23.1746 11.1746Z" fill="#717171"/>
<path d="M12.0002 19.9047C11.5558 19.9047 11.1748 20.2857 11.1748 20.7301V23.1746C11.1748 23.619 11.5558 24 12.0002 24C12.4446 24 12.8256 23.619 12.8256 23.1746V20.7301C12.8256 20.2857 12.4446 19.9047 12.0002 19.9047Z" fill="#717171"/>
<path d="M20.4761 19.3334L18.7301 17.5873C18.4444 17.2699 17.9047 17.2699 17.5872 17.5873C17.2698 17.9048 17.2698 18.4127 17.5872 18.7302L19.3332 20.4762C19.6507 20.7937 20.1586 20.7937 20.4761 20.4762C20.7936 20.1588 20.7936 19.6508 20.4761 19.3334Z" fill="#717171"/>
<path d="M12.0002 0C11.5558 0 11.1748 0.380952 11.1748 0.825396V3.26984C11.1748 3.71428 11.5558 4.09523 12.0002 4.09523C12.4446 4.09523 12.8256 3.71428 12.8256 3.26984V0.825396C12.8256 0.380952 12.4446 0 12.0002 0Z" fill="#717171"/>
<path d="M20.5078 3.5238C20.1904 3.20634 19.6824 3.20634 19.365 3.5238L17.619 5.26983C17.3015 5.58729 17.3015 6.09522 17.619 6.41268C17.9047 6.73014 18.4444 6.73014 18.7618 6.41268L20.5078 4.66665C20.8253 4.3492 20.8253 3.84126 20.5078 3.5238Z" fill="#717171"/>
<path d="M3.26984 11.1746H0.825396C0.380952 11.1746 0 11.5555 0 12C0 12.4444 0.349206 12.8254 0.825396 12.8254H3.26984C3.71428 12.8254 4.09523 12.4444 4.09523 12C4.09523 11.5555 3.71428 11.1746 3.26984 11.1746Z" fill="#717171"/>
<path d="M6.38089 17.5873C6.09518 17.2699 5.55549 17.2699 5.23803 17.5873L3.492 19.3334C3.17454 19.6508 3.17454 20.1588 3.492 20.4762C3.80946 20.7937 4.3174 20.7937 4.63486 20.4762L6.38089 18.7302C6.69835 18.4127 6.69835 17.9048 6.38089 17.5873Z" fill="#717171"/>
<path d="M6.38089 5.26983L4.63486 3.5238C4.3174 3.20634 3.80946 3.20634 3.492 3.5238C3.17454 3.84126 3.17454 4.3492 3.492 4.66665L5.23803 6.41268C5.55549 6.73014 6.06343 6.73014 6.38089 6.41268C6.69835 6.09522 6.69835 5.58729 6.38089 5.26983Z" fill="#717171"/>
</g>
<defs>
<clipPath id="clip0">
<rect width="24" height="24" fill="white"/>
</clipPath>
</defs>
</svg>
