<svg width="20" height="20" viewBox="0 0 20 20" fill="none" xmlns="http://www.w3.org/2000/svg">
<path fill-rule="evenodd" clip-rule="evenodd" d="M9.99992 18.1668C14.5102 18.1668 18.1666 14.5105 18.1666 10.0002C18.1666 5.48984 14.5102 1.8335 9.99992 1.8335C5.48959 1.8335 1.83325 5.48984 1.83325 10.0002C1.83325 14.5105 5.48959 18.1668 9.99992 18.1668ZM19.1666 10.0002C19.1666 15.0628 15.0625 19.1668 9.99992 19.1668C4.93731 19.1668 0.833252 15.0628 0.833252 10.0002C0.833252 4.93755 4.93731 0.833496 9.99992 0.833496C15.0625 0.833496 19.1666 4.93755 19.1666 10.0002Z" fill="black"/>
<path fill-rule="evenodd" clip-rule="evenodd" d="M10 3.6665C10.2761 3.6665 10.5 3.89036 10.5 4.1665V9.79273L13.6869 12.9796C13.8821 13.1749 13.8821 13.4915 13.6869 13.6867C13.4916 13.882 13.175 13.882 12.9798 13.6867L9.5 10.2069V4.1665C9.5 3.89036 9.72386 3.6665 10 3.6665Z" fill="black"/>
</svg>
