<svg width="45" height="45" viewBox="0 0 45 45" fill="none" xmlns="http://www.w3.org/2000/svg">
<path d="M42.3633 16.0471V14.502C42.3633 9.41335 38.2234 5.27344 33.1348 5.27344H31.6813C31.07 2.32365 28.3881 0 25.1367 0H17.1387C12.0501 0 7.91016 4.13991 7.91016 9.22852V10.6795C5.26711 11.2182 3.19588 13.3438 2.73472 16.0138C1.14943 16.5295 0 18.0204 0 19.7754V25.0488C0 26.8308 1.18485 28.3408 2.80793 28.8337L4.92416 41.6951C5.24338 43.6101 6.88412 45 8.82545 45H36.1745C38.1159 45 39.7566 43.6101 40.0758 41.6951C40.076 41.6943 40.0761 41.6933 40.0763 41.6924L42.1921 28.8336C43.8151 28.3408 45 26.8308 45 25.0488V19.7754C45 18.0567 43.8978 16.5913 42.3633 16.0471ZM33.1348 7.91016C36.7695 7.91016 39.7266 10.8672 39.7266 14.502V15.8203H36.9572C36.3448 12.8152 33.6814 10.5469 30.498 10.5469H21.4084C21.9526 9.01248 23.418 7.91016 25.1367 7.91016H33.1348ZM10.5469 9.22852C10.5469 5.5938 13.504 2.63672 17.1387 2.63672H25.1367C26.8583 2.63672 28.3695 3.75469 28.9387 5.27344H25.1367C21.9533 5.27344 19.2901 7.54172 18.6775 10.5469H10.5469V9.22852ZM9.22852 13.1836H30.498C32.2167 13.1836 33.6821 14.2859 34.2264 15.8203H32.1276C30.6199 15.8203 29.2644 16.6581 28.5901 18.0066C28.5901 18.0066 28.5901 18.0066 28.59 18.0066L27.411 20.365C27.1862 20.8145 26.7344 21.0938 26.2317 21.0938H18.8613C18.3262 21.0938 17.7814 20.7789 17.5661 20.3453L16.4098 18.0164C15.7371 16.6618 14.3796 15.8203 12.8673 15.8203H5.5002C6.04441 14.2859 7.50981 13.1836 9.22852 13.1836ZM37.4745 41.2644C37.367 41.9013 36.8208 42.3633 36.1745 42.3633H8.82545C8.1784 42.3633 7.63145 41.9 7.52546 41.2644L5.50811 29.0039H39.4919L37.4745 41.2644ZM42.3633 25.0488C42.3633 25.7758 41.7719 26.3672 41.0449 26.3672H3.95508C3.22813 26.3672 2.63672 25.7758 2.63672 25.0488V19.7754C2.63672 19.0484 3.22813 18.457 3.95508 18.457H12.8673C13.3713 18.457 13.8239 18.7376 14.0481 19.1891L15.2044 21.5179C15.8615 22.8413 17.3311 23.7305 18.8613 23.7305H26.2317C27.7394 23.7305 29.095 22.8927 29.7693 21.5442L30.9484 19.1858C31.1732 18.7363 31.625 18.457 32.1276 18.457H41.0449C41.7719 18.457 42.3633 19.0484 42.3633 19.7754V25.0488Z" fill="white"/>
<path d="M14.502 31.6406C13.7739 31.6406 13.1836 32.2309 13.1836 32.959V38.4082C13.1836 39.1363 13.7739 39.7266 14.502 39.7266C15.23 39.7266 15.8203 39.1363 15.8203 38.4082V32.959C15.8203 32.2309 15.23 31.6406 14.502 31.6406Z" fill="white"/>
<path d="M22.5 31.6406C21.7719 31.6406 21.1816 32.2309 21.1816 32.959V38.4082C21.1816 39.1363 21.7719 39.7266 22.5 39.7266C23.2281 39.7266 23.8184 39.1363 23.8184 38.4082V32.959C23.8184 32.2309 23.2281 31.6406 22.5 31.6406Z" fill="white"/>
<path d="M30.498 31.6406C29.77 31.6406 29.1797 32.2309 29.1797 32.959V38.4082C29.1797 39.1363 29.77 39.7266 30.498 39.7266C31.2261 39.7266 31.8164 39.1363 31.8164 38.4082V32.959C31.8164 32.2309 31.2261 31.6406 30.498 31.6406Z" fill="white"/>
</svg>
