<svg width="24" height="24" viewBox="0 0 24 24" fill="none" xmlns="http://www.w3.org/2000/svg">
<path d="M21.45 4.92188L21.5576 3.51562H22.8281V2.10938H1.17188V3.51562H2.44237L2.55 4.92188H0V5.625C0 8.69344 1.14459 11.5855 3.23062 13.8154L3.84862 21.8906H20.1514L20.7694 13.8154C22.8554 11.5855 24 8.69344 24 5.625V4.92188H21.45ZM1.42931 6.32812H2.65762L3.03539 11.264C2.12152 9.81642 1.54823 8.13333 1.42931 6.32812ZM18.8486 20.4844H5.15138L4.74586 15.1857C6.82214 16.7678 9.345 17.625 12 17.625C14.655 17.625 17.1779 16.7678 19.2541 15.1857L18.8486 20.4844ZM19.4067 13.1916C17.4952 15.0632 14.8801 16.2188 12 16.2188C9.11991 16.2188 6.5048 15.0632 4.59323 13.1916L3.85275 3.51562H20.1473L19.4067 13.1916ZM20.9647 11.264L21.3424 6.32812H22.5707C22.4518 8.13333 21.8785 9.81642 20.9647 11.264Z" fill="#62C0CB"/>
</svg>
