<svg width="30" height="30" viewBox="0 0 30 30" fill="none" xmlns="http://www.w3.org/2000/svg">
<path d="M15.9264 23.0045L19.2802 19.6506C19.6229 19.308 20.1619 19.2603 20.5594 19.5375L25.4144 22.9236C25.925 23.2797 25.9896 24.0108 25.5494 24.4509L24.5713 25.4291C23.861 26.1394 22.8414 26.4461 21.8808 26.1525C19.4041 25.3955 14.4222 23.4733 10.3276 19.3787C6.23297 15.2841 4.31079 10.3022 3.55381 7.82547C3.26021 6.86487 3.5669 5.84526 4.27716 5.135L5.25534 4.15683C5.69551 3.71666 6.42656 3.7813 6.78266 4.29188L10.1688 9.14687C10.446 9.54434 10.3983 10.0834 10.0556 10.426L6.70178 13.7799" stroke="black" stroke-width="1.5" stroke-linecap="round"/>
</svg>
