<svg width="45" height="45" viewBox="0 0 45 45" fill="none" xmlns="http://www.w3.org/2000/svg">
<g clip-path="url(#clip0)">
<path d="M42.5632 20.6646L41.2727 12.9412C41.1144 11.287 40.3538 9.76039 39.1274 8.63679C37.8877 7.50107 36.2791 6.87564 34.5977 6.87564H10.4023C8.72104 6.87564 7.11229 7.50107 5.87259 8.63679C4.64616 9.76039 3.88564 11.287 3.72727 12.9412L2.43677 20.6646H0V23.3013H2.36074L3.4548 34.1692L3.45955 34.2096C3.75407 36.4413 5.67369 38.1242 7.92475 38.1242H37.0753C39.3264 38.1242 41.246 36.4413 41.5405 34.2096L42.6392 23.3013H45V20.6646H42.5632ZM6.33595 13.3279L6.34896 13.2257C6.53458 11.1088 8.2771 9.51245 10.4023 9.51245H34.5977C36.7228 9.51245 38.4653 11.1088 38.651 13.2257L38.6555 13.277L39.89 20.6646H5.11005L6.33595 13.3279ZM26.4963 23.3013L25.2889 26.2147H19.7111L18.5038 23.3013H26.4963ZM38.924 33.8821C38.7942 34.7986 38.0026 35.4875 37.0753 35.4875H7.92475C6.99741 35.4875 6.20578 34.7986 6.07597 33.8821L5.01082 23.3013H15.6495L17.9496 28.8515H27.0504L29.3504 23.3013H39.9891L38.924 33.8821Z" fill="#BFBFBF"/>
</g>
<defs>
<clipPath id="clip0">
<rect width="45" height="45" fill="white"/>
</clipPath>
</defs>
</svg>
