<svg width="50" height="50" viewBox="0 0 50 50" fill="none" xmlns="http://www.w3.org/2000/svg">
<g clip-path="url(#clip0)">
<path d="M25.5482 41.8283C25.5583 41.8169 25.5683 41.8055 25.5779 41.7935L42.6797 20.8783C42.8957 20.6164 42.8968 20.2352 42.6962 19.9713L40.9585 17.5919C40.7199 17.2651 40.2615 17.1935 39.9346 17.4324C39.6078 17.6711 39.5364 18.1295 39.7751 18.4563L40.67 19.6817H32.1507L36.4104 13.8489L37.4927 15.3308C37.7314 15.6576 38.1897 15.7291 38.5166 15.4903C38.8434 15.2517 38.9148 14.7933 38.6762 14.4664L37.0022 12.1742C36.8668 11.9883 36.6399 11.8723 36.4073 11.8737H13.6018C13.378 11.8737 13.1395 11.9949 13.0073 12.1781L7.31593 19.9714C7.11545 20.2351 7.11653 20.6166 7.33244 20.8784L16.0302 31.5157C16.3598 31.8355 16.7035 31.87 17.0613 31.6191C17.3747 31.363 17.421 30.9013 17.1648 30.588L9.44539 21.1472H18.7442L23.3936 38.2057L19.7126 33.7038C19.4563 33.3906 18.9949 33.3443 18.6815 33.6004C18.3682 33.8565 18.3219 34.3182 18.578 34.6315L24.4346 41.7939C24.7138 42.1407 25.2488 42.1578 25.5482 41.8283ZM25.0061 38.5489L20.2631 21.1472H29.749L25.0061 38.5489ZM20.7464 19.6817L25.0061 13.8489L29.2658 19.6817H20.7464ZM19.3039 19.172L15.0442 13.3392H23.5636L19.3039 19.172ZM40.5667 21.1472L26.6185 38.2057L31.2679 21.1472H40.5667ZM30.7082 19.172L26.4485 13.3392H34.9678L30.7082 19.172ZM9.34212 19.6817L13.6018 13.8489L17.8615 19.6817H9.34212Z" fill="#383838"/>
<path d="M40.7224 10.0853C40.91 10.0853 41.0977 10.0137 41.2408 9.87043L43.3333 7.77605C44.0029 7.10583 42.9662 6.07002 42.2966 6.74024L40.2041 8.83462C39.7693 9.26977 40.1075 10.0853 40.7224 10.0853Z" fill="#383838"/>
<path d="M46.6195 19.9935C46.6824 19.9935 46.7462 19.9854 46.8099 19.9683L49.4682 19.2554C50.3832 19.0099 50.0037 17.5949 49.0885 17.8399L46.4302 18.5528C45.6105 18.7727 45.801 19.9935 46.6195 19.9935Z" fill="#383838"/>
<path d="M43.0059 29.1294L41.7154 28.7833C40.8003 28.5382 40.4207 29.9534 41.3358 30.1988L42.6263 30.5449C43.5094 30.7814 43.9111 29.3722 43.0059 29.1294Z" fill="#383838"/>
<path d="M49.4229 30.8505L45.6451 29.8374C44.73 29.5925 44.3504 31.0073 45.2655 31.2529L49.0432 32.266C49.9263 32.5025 50.3281 31.0934 49.4229 30.8505Z" fill="#383838"/>
<path d="M36.6848 35.7488C36.0152 35.0785 34.9785 36.1144 35.6481 36.7846L39.0474 40.187C39.717 40.8573 40.7537 39.8214 40.0841 39.1512L36.6848 35.7488Z" fill="#383838"/>
<path d="M42.1965 41.2665C41.5269 40.5963 40.4902 41.6321 41.1599 42.3024L42.1786 43.322C42.8482 43.9924 43.8849 42.9565 43.2153 42.2862L42.1965 41.2665Z" fill="#383838"/>
<path d="M30.8176 44.195L30.569 43.2665C30.3239 42.3514 28.9084 42.7303 29.1534 43.6455L29.4019 44.574C29.6426 45.4732 31.0633 45.1133 30.8176 44.195Z" fill="#383838"/>
<path d="M31.5593 46.9732C31.3142 46.058 29.8987 46.437 30.1436 47.3522L30.7081 49.4611C30.8049 49.8227 31.2465 50.0755 31.6055 49.9795C31.9964 49.8748 32.2284 49.4731 32.1239 49.0821L31.5593 46.9732Z" fill="#383838"/>
<path d="M29.4575 8.64648C29.8163 8.74272 30.258 8.48977 30.3547 8.12819L30.6932 6.86415C30.9382 5.949 29.5224 5.56993 29.2776 6.48518L28.9392 7.74921C28.8345 8.14011 29.0666 8.54194 29.4575 8.64648Z" fill="#383838"/>
<path d="M30.5141 4.69691C30.873 4.79295 31.3146 4.5403 31.4115 4.17852L32.2879 0.904513C32.5329 -0.0107342 31.1172 -0.389612 30.8723 0.525538L29.9958 3.79954C29.8912 4.19053 30.1232 4.59227 30.5141 4.69691Z" fill="#383838"/>
<path d="M8.75629 9.87046C9.42592 10.5408 10.4626 9.50487 9.79297 8.83465L7.70045 6.74037C7.03082 6.07006 5.99413 7.10596 6.66376 7.77618L8.75629 9.87046Z" fill="#383838"/>
<path d="M0.531057 19.2554L3.18936 19.9683C4.07246 20.2048 4.4742 18.7956 3.56902 18.5528L0.910717 17.8399C-0.00433528 17.5947 -0.383995 19.0099 0.531057 19.2554Z" fill="#383838"/>
<path d="M8.28348 28.7832L6.99297 29.1293C6.09003 29.3715 6.49734 30.7793 7.37263 30.5447L8.66314 30.1987C9.57819 29.9532 9.19853 28.5384 8.28348 28.7832Z" fill="#383838"/>
<path d="M4.35269 29.8375L0.575045 30.8505C-0.32799 31.0928 0.0794165 32.5005 0.954705 32.266L4.73245 31.2528C5.6474 31.0074 5.26803 29.5927 4.35269 29.8375Z" fill="#383838"/>
<path d="M13.315 35.7488L9.91572 39.1511C9.24609 39.8213 10.2828 40.8573 10.9524 40.187L14.3517 36.7846C15.0213 36.1143 13.9845 35.0785 13.315 35.7488Z" fill="#383838"/>
<path d="M7.80162 41.2665L6.7829 42.2862C6.11327 42.9563 7.14996 43.9923 7.81959 43.322L8.8383 42.3023C9.50803 41.6321 8.47125 40.5964 7.80162 41.2665Z" fill="#383838"/>
<path d="M20.3273 42.7483C19.9365 42.6437 19.5346 42.8757 19.4299 43.2667L19.1814 44.1951C18.9432 45.0852 20.3492 45.4994 20.597 44.5741L20.8456 43.6456C20.9503 43.2546 20.7183 42.8529 20.3273 42.7483Z" fill="#383838"/>
<path d="M19.3346 46.4548C18.9439 46.3503 18.542 46.5822 18.4373 46.9732L17.8728 49.0821C17.6346 49.9722 19.0407 50.3864 19.2884 49.461L19.8529 47.3522C19.9576 46.9612 19.7255 46.5596 19.3346 46.4548Z" fill="#383838"/>
<path d="M19.8246 5.96686C19.4338 6.07149 19.2017 6.47323 19.3064 6.86413L19.6448 8.12816C19.8854 9.02748 21.3062 8.66736 21.0604 7.74918L20.7219 6.48515C20.6172 6.09426 20.2153 5.86183 19.8246 5.96686Z" fill="#383838"/>
<path d="M18.5865 4.1785C18.8273 5.07772 20.2479 4.7177 20.0021 3.79952L19.1257 0.525519C18.8806 -0.389729 17.4651 -0.0107531 17.71 0.904495L18.5865 4.1785Z" fill="#383838"/>
</g>
<defs>
<clipPath id="clip0">
<rect width="50" height="50" fill="white"/>
</clipPath>
</defs>
</svg>
