<svg width="24" height="24" viewBox="0 0 24 24" fill="none" xmlns="http://www.w3.org/2000/svg">
<path d="M19.4573 19.7812C20.3523 18.9939 21.1229 18.0675 21.7324 17.0359C22.7559 15.3038 23.2969 13.3193 23.2969 11.2969C23.2969 8.27934 22.1218 5.44247 19.9881 3.30877C17.8544 1.17506 15.0175 0 12 0C8.98247 0 6.14559 1.17506 4.01189 3.30877C1.87819 5.44247 0.703125 8.27934 0.703125 11.2969C0.703125 13.3193 1.24411 15.3038 2.26758 17.0359C2.87714 18.0675 3.64772 18.9939 4.54275 19.7812H0V24H24V19.7812H19.4573ZM3.47827 16.3205C2.58272 14.8049 2.10938 13.0678 2.10938 11.2969C2.10938 5.84316 6.54628 1.40625 12 1.40625C17.4537 1.40625 21.8906 5.84316 21.8906 11.2969C21.8906 13.0678 21.4173 14.8049 20.5217 16.3205C19.6828 17.7403 18.4962 18.9329 17.0838 19.7812H15.5156V17.4385C17.6426 16.2163 19.0781 13.9211 19.0781 11.2969C19.0781 7.39397 15.9029 4.21875 12 4.21875C8.09709 4.21875 4.92188 7.39397 4.92188 11.2969C4.92188 13.9211 6.35738 16.2163 8.48438 17.4385V19.7812H6.91622C5.50383 18.9329 4.31719 17.7403 3.47827 16.3205ZM8.48438 9.89062V15.7446C7.17173 14.7048 6.32812 13.0976 6.32812 11.2969C6.32812 8.16937 8.8725 5.625 12 5.625C15.1275 5.625 17.6719 8.16937 17.6719 11.2969C17.6719 13.0976 16.8283 14.7048 15.5156 15.7446V9.89062H14.1094V16.5617C13.457 16.824 12.7451 16.9688 12 16.9688C11.2549 16.9688 10.543 16.824 9.89062 16.5617V9.89062H8.48438ZM12 18.375C12.7343 18.375 13.4429 18.2625 14.1094 18.054V19.7812H9.89062V18.054C10.5571 18.2625 11.2657 18.375 12 18.375ZM22.5938 22.5938H1.40625V21.1875H22.5938V22.5938Z" fill="#62C0CB"/>
</svg>
