<svg width="24" height="24" viewBox="0 0 24 24" fill="none" xmlns="http://www.w3.org/2000/svg">
<path d="M12.7032 8.86983V6.25781H13.6311C15.7946 6.25781 17.5548 4.49766 17.5548 2.33414V0H15.2206C13.8883 0 12.7096 0.668109 12.0001 1.68633C11.2905 0.668109 10.1119 0 8.77955 0H6.44541V2.33414C6.44541 4.49766 8.20556 6.25781 10.3691 6.25781H11.297V8.86983H3.19458V14.1004H4.73269L6.17574 24H17.8245L19.2675 14.1004H20.8056V8.86983H12.7032ZM12.7032 3.92367C12.7032 2.53556 13.8325 1.40625 15.2206 1.40625H16.1485V2.33414C16.1485 3.72225 15.0192 4.85156 13.6311 4.85156H12.7032V3.92367ZM10.3691 4.85156C8.98097 4.85156 7.85166 3.72225 7.85166 2.33414V1.40625H8.77955C10.1677 1.40625 11.297 2.53556 11.297 3.92367V4.85156H10.3691ZM16.6084 22.5938H7.39181L6.15375 14.1004H17.8464L16.6084 22.5938ZM4.60083 12.6942V10.2761H19.3993V12.6942H4.60083Z" fill="#62C0CB"/>
</svg>
