<svg width="204" height="32" viewBox="0 0 204 32" fill="none" xmlns="http://www.w3.org/2000/svg">
<g clip-path="url(#clip0)">
<path d="M48.0471 5.29354C48.0514 5.99837 47.8993 6.69548 47.6017 7.33525C47.3042 7.97502 46.8684 8.54172 46.3254 8.99503C45.155 10.045 43.6162 10.5953 42.0412 10.5274C40.5623 10.5241 39.1366 9.97843 38.0373 8.99503C37.4911 8.54448 37.053 7.97832 36.7552 7.33791C36.4573 6.69751 36.3071 5.99904 36.3156 5.29354C36.3095 4.85276 36.3498 4.41256 36.4357 3.98011H35.1745C32.9323 3.98011 31.8312 4.89553 31.8312 6.76618C32.198 8.97096 32.8718 11.1142 33.8332 13.1343C34.9577 15.5761 35.6356 18.1975 35.8351 20.8756C35.8351 24.8557 33.5929 27.8806 29.1486 29.8707C25.4644 31.4137 21.4941 32.1665 17.4972 32.0796C13.8238 32.1428 10.167 31.5773 6.68655 30.408C2.20216 28.7363 0 26.3284 0 23.0448C0 18.2952 4.07733 15.9204 12.232 15.9204H20.6202L22.2218 19.4229H15.6754C14.2009 19.3863 12.737 19.6787 11.3912 20.2786C10.701 20.5196 10.1021 20.9659 9.67592 21.5569C9.24971 22.1479 9.01681 22.855 9.00883 23.5821C9.00883 25.2338 10.1099 26.5274 12.292 27.5622C14.0059 28.2658 15.8431 28.6243 17.6973 28.6169C19.8468 28.7031 21.9732 28.1487 23.8033 27.0249C24.702 26.4722 25.4381 25.6936 25.9373 24.7676C26.4364 23.8417 26.6809 22.8012 26.6461 21.7513C26.4547 19.401 25.8446 17.1032 24.8444 14.9652C23.8185 12.7591 23.2078 10.385 23.0426 7.96021C23.0426 2.62687 27.587 6.43168e-06 36.716 6.43168e-06H42.1613C43.6376 -0.00214649 45.063 0.536268 46.1653 1.51244C46.7448 1.96142 47.215 2.53458 47.5408 3.18923C47.8666 3.84389 48.0397 4.56318 48.0471 5.29354Z" fill="#76C4D5"/>
<path d="M70.389 27.3035C70.0555 28.4317 69.3277 29.4044 68.3368 30.0466C67.3458 30.6887 66.1567 30.958 64.9837 30.806H56.6355C54.2732 30.806 53.0721 30.0498 53.0721 28.5174C52.3433 29.3934 51.4242 30.0938 50.384 30.566C49.3438 31.0383 48.2094 31.27 47.0662 31.2438C46.2988 31.2698 45.5339 31.1442 44.8157 30.8744C44.0975 30.6045 43.4403 30.1957 42.8821 29.6717C42.3468 29.1298 41.9286 28.4848 41.6532 27.7764C41.3778 27.068 41.2509 26.3111 41.2805 25.5522C41.2322 24.154 41.5278 22.7652 42.1418 21.5064C42.7559 20.2475 43.6697 19.1566 44.8039 18.3284C47.1213 16.6463 49.9451 15.7972 52.8118 15.9204H65.3841L61.2401 27.3035H70.389ZM56.1751 19.3433H51.3103L49.7688 24.4378C49.6936 24.7238 49.6532 25.0178 49.6487 25.3134C49.6487 26.5871 50.8899 27.3035 53.3924 27.3035L56.1751 19.3433Z" fill="#76C4D5"/>
<path d="M100.519 27.3035C100.332 27.935 100.008 28.5176 99.5683 29.0097C99.1288 29.5017 98.585 29.8909 97.9762 30.1493C97.0513 30.5884 96.0382 30.813 95.0133 30.806H86.2247C84.2227 30.806 83.2017 30.1493 83.2017 28.8159C83.2155 28.2902 83.324 27.7712 83.522 27.2836L85.1837 22.5672L77.6162 28.9353C76.3648 29.9594 74.8423 30.6021 73.232 30.7861H69.228L74.4331 15.9204H82.441L79.9585 22.9254L86.6851 17.4527C88.3473 16.0189 90.4912 15.2588 92.691 15.3234C92.9793 15.3206 93.2647 15.3796 93.5279 15.4966C93.791 15.6135 94.0257 15.7856 94.2157 16.001C94.4058 16.2164 94.5469 16.4701 94.6292 16.7447C94.7116 17.0193 94.7334 17.3083 94.693 17.592C94.6864 18.2172 94.5712 18.8366 94.3527 19.4229L91.5099 27.3831L100.519 27.3035Z" fill="#76C4D5"/>
<path d="M119.837 27.3035C119.487 28.4418 118.741 29.4192 117.733 30.0608C116.724 30.7025 115.519 30.9666 114.332 30.8059H103.101C100.919 30.8059 99.8379 30.0497 99.8379 28.5174C99.8457 28.1019 99.927 27.691 100.078 27.3035L102.881 19.3433H99.2573L100.639 15.9204C102.709 15.4998 104.662 14.6375 106.364 13.393C108.251 11.6085 109.785 9.48918 110.889 7.14426H115.173L112.11 15.9204H117.795C117.392 17.0326 116.629 17.9801 115.625 18.6141C114.621 19.2481 113.434 19.5326 112.25 19.4229H110.789L108.046 27.3831L119.837 27.3035Z" fill="#76C4D5"/>
<path d="M136.614 27.3035C136.439 27.9171 136.137 28.4875 135.726 28.9777C135.316 29.4679 134.807 29.867 134.232 30.1493C133.357 30.5902 132.389 30.8155 131.409 30.806H122.72C120.718 30.806 119.557 29.9304 119.557 28.1791C119.572 27.6342 119.681 27.0959 119.877 26.5871L123.701 15.9204H131.709L127.705 27.3035H136.614ZM135.032 6.94528C135.035 7.6528 134.883 8.35246 134.586 8.99527C134.288 9.63808 133.853 10.2085 133.311 10.6667C132.211 11.6501 130.786 12.1957 129.307 12.199C127.78 12.2306 126.298 11.6827 125.163 10.6667C124.623 10.2075 124.191 9.63641 123.897 8.9935C123.603 8.35058 123.454 7.65146 123.461 6.94528C123.453 6.2418 123.601 5.54523 123.895 4.90535C124.19 4.26547 124.622 3.6981 125.163 3.24379C126.272 2.25119 127.714 1.70492 129.207 1.71145C130.689 1.69731 132.121 2.24529 133.211 3.24379C133.772 3.68741 134.227 4.24983 134.542 4.89013C134.857 5.53042 135.024 6.2325 135.032 6.94528Z" fill="#76C4D5"/>
<path d="M166.783 27.3035C166.589 27.9428 166.252 28.5305 165.798 29.0231C165.344 29.5157 164.784 29.9005 164.161 30.1492C163.236 30.5884 162.223 30.8129 161.198 30.806H152.489C150.487 30.806 149.466 30.1492 149.466 28.8159C149.48 28.2902 149.589 27.7712 149.787 27.2836L151.448 22.5672L143.881 28.9353C142.629 29.9594 141.107 30.6021 139.497 30.7861H135.493L140.718 15.9204H148.726L146.143 22.9254L152.87 17.4527C154.532 16.0189 156.676 15.2588 158.876 15.3234C159.177 15.2962 159.481 15.3372 159.764 15.4434C160.047 15.5497 160.302 15.7183 160.51 15.9366C160.718 16.155 160.874 16.4174 160.965 16.7041C161.056 16.9908 161.081 17.2944 161.038 17.592C161.023 18.2182 160.901 18.8374 160.677 19.4229L157.835 27.3831L166.783 27.3035Z" fill="#76C4D5"/>
<path d="M204 15.9204C203.42 18.2487 201.658 19.4229 198.715 19.4229H184.942C185.515 19.8647 185.929 20.479 186.123 21.1741C186.406 21.882 186.536 22.6417 186.503 23.403C186.433 24.5397 186.105 25.6459 185.543 26.6385C184.981 27.6311 184.201 28.4844 183.26 29.1343C181.111 30.5466 178.566 31.2435 175.993 31.1244C173.176 31.3558 170.361 30.6562 167.985 29.1343C167.057 28.4683 166.339 27.5526 165.917 26.4948C165.495 25.4371 165.386 24.2815 165.603 23.1642C165.756 22.1061 166.131 21.0918 166.704 20.1869C167.276 19.2819 168.033 18.5064 168.926 17.9104C171.244 16.4778 173.947 15.7834 176.673 15.9204H204ZM179.977 19.4229H174.952L172.95 25.0149C172.852 25.2833 172.798 25.5654 172.79 25.8507C172.79 27.1045 173.971 27.7413 176.313 27.7413H177.054L179.977 19.4229Z" fill="#76C4D5"/>
</g>
<defs>
<clipPath id="clip0">
<rect width="204" height="32" fill="white"/>
</clipPath>
</defs>
</svg>
