<svg width="50" height="50" viewBox="0 0 50 50" fill="none" xmlns="http://www.w3.org/2000/svg">
<g clip-path="url(#clip0)">
<path d="M49.9998 8.5746C49.9998 8.56913 49.9992 8.56366 49.999 8.55809C49.9984 8.53632 49.9971 8.51483 49.9946 8.49354C49.9936 8.48573 49.9921 8.47792 49.991 8.47011C49.988 8.45048 49.9844 8.43114 49.9799 8.4122C49.9782 8.40468 49.9762 8.39725 49.9742 8.38974C49.9685 8.36913 49.9621 8.34892 49.9546 8.32899C49.9533 8.32518 49.9524 8.32128 49.9509 8.31757L47.9641 3.23144C47.7638 2.71894 47.2788 2.3877 46.7285 2.3877H43.1109C42.7166 2.3877 42.3969 2.70732 42.3969 3.10166C42.3969 3.49599 42.7166 3.81562 43.1109 3.81562H46.6593L48.2405 7.86337H33.2919L32.3553 3.81562H37.876C38.2704 3.81562 38.59 3.49599 38.59 3.10166C38.59 2.70732 38.2704 2.3877 37.876 2.3877H31.4572H24.2632H8.99182C8.44143 2.3877 7.95647 2.71894 7.75618 3.23164L5.76937 8.31757C5.7679 8.32138 5.76712 8.32528 5.76566 8.32899C5.75823 8.34882 5.75179 8.36903 5.74612 8.38974C5.74407 8.39725 5.74212 8.40468 5.74036 8.4122C5.73587 8.43124 5.73226 8.45057 5.72933 8.47011C5.72816 8.47792 5.72669 8.48573 5.72571 8.49354C5.72327 8.51483 5.7219 8.53632 5.72132 8.55809C5.72122 8.56356 5.72054 8.56903 5.72044 8.5746C5.72044 8.57548 5.72034 8.57636 5.72034 8.57723V19.0665C5.72034 19.4608 6.03997 19.7804 6.43431 19.7804C6.82864 19.7804 7.14827 19.4608 7.14827 19.0665V9.2913H22.2822V20.1436C22.2822 20.568 22.5322 20.9548 22.9192 21.1289C23.0609 21.1926 23.2118 21.2238 23.3617 21.2238C23.6211 21.2238 23.8776 21.1306 24.0788 20.9523L27.8601 17.6023L31.6415 20.9522C31.959 21.2338 32.4142 21.303 32.8013 21.1289C33.1882 20.9547 33.4382 20.568 33.4382 20.1436V9.2913H48.572V41.315C48.572 41.8273 48.1551 42.2442 47.6428 42.2442H34.5517C34.5517 42.2361 34.5508 42.228 34.5507 42.2198C34.5499 42.1558 34.5475 42.0918 34.5421 42.0283C35.7713 42.3542 37.0846 41.7225 37.5772 40.5145C37.8363 39.879 37.8325 39.1808 37.5664 38.5484C37.5413 38.4888 37.5136 38.431 37.4845 38.3741C37.4792 38.3636 37.474 38.3531 37.4686 38.3427C37.44 38.2884 37.4095 38.2354 37.3774 38.1837C37.3712 38.1737 37.3647 38.1639 37.3584 38.1539C37.3244 38.1009 37.2891 38.0489 37.2515 37.9988C37.2509 37.9978 37.2501 37.9969 37.2494 37.996C37.2121 37.9465 37.1726 37.8989 37.1319 37.8523C37.1245 37.8438 37.1172 37.8352 37.1096 37.8267C37.0693 37.7818 37.0274 37.7383 36.9841 37.6964C36.9756 37.6882 36.967 37.6803 36.9584 37.6723C36.913 37.6296 36.8665 37.5881 36.818 37.549C36.8164 37.5477 36.8147 37.5464 36.8131 37.5452C36.7654 37.5068 36.7159 37.4704 36.6654 37.4355C36.6563 37.4291 36.6473 37.4227 36.6381 37.4164C36.5876 37.3825 36.5358 37.3503 36.4827 37.3198C36.4783 37.3172 36.4743 37.3143 36.4698 37.3118C36.7716 37.0506 37.0097 36.7201 37.1648 36.3399C37.4239 35.7044 37.4201 35.0062 37.154 34.3737C36.9212 33.8203 36.5119 33.3751 35.9877 33.099C35.9128 33.0595 35.8355 33.0235 35.7561 32.9912L24.6441 28.4602L29.8166 26.8592C31.0471 26.4783 31.7402 25.1658 31.3615 23.9337C31.2202 23.4737 30.94 23.0858 30.5781 22.8023C30.0395 22.3803 29.3197 22.1898 28.6058 22.3397C28.6024 22.3405 28.5991 22.3411 28.5957 22.342C28.5561 22.3508 24.5909 23.2424 20.4496 24.05C20.2659 24.0858 20.0869 24.1204 19.9105 24.1544C19.7692 24.1815 19.63 24.2083 19.4934 24.2342C19.4541 24.2418 19.4147 24.2492 19.3758 24.2566C19.1346 24.3024 18.9009 24.3463 18.6737 24.3884C18.5823 24.4054 18.4917 24.4222 18.4025 24.4386C13.2017 25.3967 11.7406 25.4139 11.3352 25.359C11.3336 25.3588 11.3322 25.3587 11.3307 25.3584C11.3245 25.3575 11.3185 25.3566 11.3128 25.3557C11.3087 25.355 11.3049 25.3544 11.3011 25.3538C11.2984 25.3533 11.2954 25.3528 11.2928 25.3524C11.2675 25.3478 11.2478 25.343 11.2325 25.3384L11.1155 25.2908L11.2613 24.9333C11.4047 24.5817 11.4026 24.1954 11.2554 23.8455C11.2186 23.758 11.1737 23.6754 11.1218 23.5984C10.9659 23.3676 10.7455 23.188 10.4819 23.0804L6.6471 21.5169C6.29563 21.3734 5.90921 21.3756 5.55931 21.5228C5.20931 21.67 4.93773 21.9447 4.79437 22.2962L0.105216 33.7964C-0.190681 34.5221 0.159025 35.3532 0.884707 35.6492L4.71956 37.2128C4.89466 37.2842 5.07581 37.318 5.25423 37.318C5.81507 37.318 6.34769 36.9838 6.5722 36.4333L6.60745 36.3469L7.49163 36.7074C7.49212 36.7076 7.49261 36.7078 7.49319 36.708C8.33889 37.0529 9.11809 37.5449 9.7925 38.1554C9.91516 38.2664 10.0343 38.3814 10.1498 38.5C10.2654 38.6187 10.3771 38.7411 10.485 38.8671C10.5389 38.9301 10.5919 38.9941 10.6438 39.0588C11.6265 40.2842 12.9148 41.2454 14.3692 41.8385L15.3639 42.2441H8.07756C7.56526 42.2441 7.14837 41.8272 7.14837 41.3149V39.5083C7.14837 39.114 6.82874 38.7944 6.4344 38.7944C6.04007 38.7944 5.72044 39.114 5.72044 39.5083V41.3149C5.72044 42.6146 6.77776 43.672 8.07756 43.672H18.8659L28.0633 47.4222C28.3799 47.5513 28.7074 47.6125 29.03 47.6124C30.0435 47.6124 31.0062 47.0084 31.412 46.0134C31.5784 45.6053 31.6318 45.1787 31.587 44.7687C32.0654 44.8373 32.5614 44.7743 33.011 44.5802C33.4679 44.3828 33.8467 44.0685 34.1156 43.6719H47.6429C48.9426 43.6719 50 42.6146 50 41.3148V8.57733C49.9999 8.57636 49.9998 8.57557 49.9998 8.5746ZM24.8308 3.81562H30.8895L31.8262 7.86337H23.8941L24.8308 3.81562ZM22.4285 7.86337H7.47981L9.06096 3.81562H23.3651L22.4285 7.86337ZM32.0104 19.3713H32.0103L28.5765 16.3293C28.3724 16.1484 28.1163 16.058 27.8603 16.058C27.6043 16.058 27.3481 16.1484 27.1439 16.3293L23.7102 19.3713V9.2913H32.0104V19.3713ZM5.25247 35.888L1.42992 34.3294L6.11409 22.8417L9.93664 24.4004L5.25247 35.888ZM33.7763 40.1967L32.9569 39.8625C32.9565 39.8623 32.9561 39.8622 32.9557 39.862C32.9554 39.8619 32.9552 39.8617 32.9549 39.8616C32.9548 39.8616 32.9547 39.8616 32.9546 39.8616L24.4208 36.382C24.0558 36.2331 23.6391 36.4083 23.4901 36.7736C23.3412 37.1387 23.5165 37.5554 23.8817 37.7043L32.4157 41.184C32.4513 41.1986 32.4858 41.2147 32.5191 41.2323C32.5285 41.2373 32.5372 41.2434 32.5464 41.2486C32.5698 41.2618 32.5933 41.2751 32.6155 41.2899C32.6262 41.297 32.6359 41.3052 32.6463 41.3126C32.6659 41.3267 32.6859 41.3406 32.7045 41.3558C32.7157 41.365 32.7259 41.3752 32.7367 41.3848C32.7533 41.3995 32.7703 41.4138 32.7859 41.4294C32.7968 41.4402 32.8064 41.452 32.8168 41.4631C32.8311 41.4785 32.8459 41.4937 32.8594 41.5099C32.8696 41.5223 32.8786 41.5355 32.8884 41.5483C32.9006 41.5643 32.9133 41.58 32.9245 41.5966C32.934 41.6105 32.9421 41.6251 32.9509 41.6393C32.961 41.6557 32.9718 41.6718 32.981 41.6887C32.9894 41.7039 32.9965 41.7198 33.0042 41.7354C33.0124 41.7521 33.0213 41.7685 33.0287 41.7856C33.0358 41.802 33.0416 41.819 33.0479 41.8357C33.0544 41.8526 33.0614 41.8692 33.0671 41.8864C33.0727 41.9036 33.077 41.9213 33.0818 41.9388C33.0866 41.9561 33.092 41.9731 33.096 41.9906C33.1 42.0082 33.1025 42.0262 33.1057 42.044C33.109 42.0617 33.1127 42.0793 33.115 42.0973C33.1174 42.1153 33.1182 42.1334 33.1197 42.1515C33.1212 42.1697 33.1233 42.1877 33.1239 42.2059C33.1245 42.2238 33.1236 42.2418 33.1234 42.2598C33.1232 42.2783 33.1235 42.2969 33.1223 42.3156C33.1213 42.3332 33.1186 42.3509 33.1167 42.3686C33.1146 42.3876 33.1131 42.4067 33.1099 42.4256C33.1071 42.443 33.1027 42.4603 33.0991 42.4777C33.095 42.4969 33.0916 42.5161 33.0864 42.5353C33.0819 42.5522 33.0759 42.569 33.0705 42.5858C33.0644 42.6049 33.0589 42.624 33.0517 42.6429C33.0457 42.6559 33.0397 42.669 33.0342 42.6822C33.0329 42.6852 33.0322 42.6883 33.031 42.6912C32.9195 42.9488 32.7136 43.1533 32.4448 43.2695C32.1489 43.3971 31.8101 43.4016 31.5152 43.2813L30.0032 42.6648C29.9962 42.6619 29.989 42.66 29.982 42.6573C29.9749 42.6541 29.9681 42.6504 29.9609 42.6475L23.0199 39.8173C22.6546 39.6685 22.2381 39.8437 22.0893 40.2089C21.9403 40.5741 22.1156 40.9907 22.4808 41.1397L29.4218 43.9698C29.4292 43.9729 29.4367 43.975 29.4442 43.9778C29.451 43.9807 29.4572 43.9843 29.4641 43.987C30.0467 44.2246 30.3274 44.8918 30.0899 45.4743C29.8523 46.057 29.1854 46.3379 28.6026 46.1001L19.277 42.2976C19.2766 42.2974 19.2762 42.2972 19.2758 42.297L14.9086 40.5162C14.1399 40.2028 13.426 39.7677 12.7958 39.2325C12.4177 38.9113 12.0697 38.5541 11.758 38.1655C11.4509 37.7826 11.114 37.4254 10.7515 37.0972C9.95393 36.3752 9.03254 35.7935 8.03264 35.3857C8.03255 35.3857 8.03245 35.3856 8.03235 35.3856L7.147 35.0246L8.91038 30.6999L10.5768 26.6131L10.6997 26.6632C10.8155 26.7104 10.9805 26.7774 11.4246 26.7942C11.9795 26.8193 12.8975 26.7614 14.542 26.5291C15.6607 26.371 17.0328 26.1425 18.6347 25.8478C18.6741 25.8406 18.7133 25.8334 18.7531 25.826C18.828 25.8122 18.9037 25.7981 18.9797 25.784C19.0388 25.7731 19.0981 25.762 19.158 25.7507C19.2262 25.7379 19.2946 25.7252 19.3636 25.7122C19.4367 25.6984 19.5107 25.6844 19.5852 25.6703C19.6447 25.6589 19.7042 25.6477 19.7644 25.6363C19.8551 25.619 19.9474 25.6013 20.0399 25.5836C20.0876 25.5744 20.1348 25.5654 20.1828 25.5562C20.3246 25.5289 20.4683 25.5011 20.6146 25.4727C24.7416 24.67 28.725 23.7765 28.904 23.7363C28.9219 23.7326 28.9397 23.7304 28.9576 23.7278C29.4162 23.6599 29.8655 23.9252 29.9971 24.3531C30.0432 24.5035 30.0486 24.6569 30.0195 24.8012C29.9556 25.1189 29.7247 25.393 29.3947 25.4951L22.3164 27.6859C22.0282 27.7751 21.8272 28.0356 21.8143 28.337C21.8012 28.6382 21.9787 28.9153 22.258 29.0292L35.2174 34.3134C35.4996 34.4285 35.7201 34.6465 35.8383 34.9275C35.9564 35.2084 35.9582 35.5186 35.843 35.8007C35.7279 36.0829 35.5099 36.3035 35.229 36.4216C35.0885 36.4806 34.9408 36.5105 34.7928 36.5114C34.7907 36.5114 34.7886 36.5111 34.7864 36.5111C34.7516 36.5111 34.717 36.5097 34.6823 36.5065C34.672 36.5055 34.6619 36.5034 34.6516 36.5022C34.6252 36.499 34.5987 36.4959 34.5724 36.4909C34.5558 36.4876 34.5394 36.4827 34.5229 36.4788C34.5032 36.4742 34.4834 36.4701 34.4638 36.4644C34.4436 36.4584 34.4238 36.4505 34.4039 36.4434C34.3881 36.4377 34.3719 36.433 34.3563 36.4267L25.8216 32.9466C25.4564 32.7977 25.0398 32.973 24.8909 33.3382C24.742 33.7034 24.9173 34.1201 25.2825 34.269L35.6297 38.488C35.7003 38.5167 35.767 38.552 35.8292 38.593C36.0158 38.716 36.162 38.8913 36.2506 39.1021C36.354 39.3479 36.3682 39.616 36.293 39.8683C36.2823 39.9043 36.2697 39.9401 36.2553 39.9753C36.2405 40.0117 36.224 40.047 36.2059 40.081C36.1638 40.1601 36.1126 40.2316 36.0553 40.2967C36.0198 40.3371 35.9818 40.3748 35.9414 40.4094C35.9349 40.4149 35.9291 40.4211 35.9225 40.4264C35.662 40.6395 35.3136 40.7311 34.9733 40.6623C34.9043 40.6484 34.8356 40.6285 34.768 40.601L33.7763 40.1967Z" fill="#383838"/>
</g>
<defs>
<clipPath id="clip0">
<rect width="50" height="50" fill="white"/>
</clipPath>
</defs>
</svg>
