<svg width="24" height="24" viewBox="0 0 24 24" fill="none" xmlns="http://www.w3.org/2000/svg">
<g clip-path="url(#clip0)">
<path d="M21.1045 16.537C18.2199 15.4586 15.2938 14.8888 12.4005 14.8406C12.4724 13.8679 12.4589 12.9283 12.3603 12.0319C13.2495 12.5011 14.2732 12.6374 15.3276 12.4133C18.9803 11.6368 21.7703 8.54973 22.0969 4.75702C22.1202 4.48658 21.9956 4.22466 21.771 4.07217C18.9208 2.13646 15.0971 2.11916 12.1433 4.20502C10.301 1.03917 6.46427 -0.718962 2.70203 0.280161C2.4397 0.349776 2.23545 0.55576 2.16799 0.818655C0.787978 6.1968 4.98155 10.9509 8.33027 10.9509C9.10569 10.9509 9.84754 10.7356 10.5093 10.3484C10.8784 11.6258 11.0371 13.1382 10.8949 14.8624C8.23197 14.9844 5.54643 15.5461 2.89592 16.537C-1.37641 18.1342 -0.809222 22.2249 4.21391 23.2269C9.3804 24.2578 14.6201 24.2578 19.7866 23.2269C24.7978 22.2272 25.3859 18.1376 21.1045 16.537ZM20.5495 5.07387C20.1121 7.95887 17.9108 10.3306 15.0157 10.946C14.0338 11.1548 13.08 10.9117 12.3643 10.1834C13.8709 8.44289 15.3547 7.45943 17.4531 6.80524C17.8486 6.6819 18.0692 6.26135 17.9459 5.86593C17.8226 5.47037 17.4019 5.25004 17.0066 5.37305C15.2531 5.9197 13.8435 6.69601 12.5431 7.85832C12.7879 7.13611 12.8352 6.39191 12.696 5.66402C14.9657 3.86553 18.0752 3.62237 20.5495 5.07387ZM6.80381 9.00136C4.27101 7.46051 2.98311 4.49164 3.52358 1.62942C6.3978 1.06674 9.30309 2.39242 10.8203 4.91303C11.4305 5.92664 11.3555 6.90813 11.0032 7.67151C10.1606 6.19774 8.9952 5.09281 7.62522 4.49361C7.24564 4.32752 6.80344 4.50069 6.63744 4.88026C6.47144 5.25979 6.64456 5.702 7.02409 5.86799C8.17365 6.37081 9.23676 7.40772 9.96554 8.91721C9.0245 9.57815 7.86153 9.64495 6.80381 9.00136ZM19.493 21.7558C14.5211 22.7477 9.47922 22.7477 4.50732 21.7558C3.02952 21.461 1.53349 20.6584 1.53349 19.6948C1.53349 19.049 2.25678 18.3774 3.42115 17.9421C5.83708 17.0389 8.27978 16.5135 10.7004 16.3745C10.6342 16.7553 10.5541 17.1448 10.4592 17.5429C10.3631 17.9458 10.6118 18.3504 11.0148 18.4465C11.4168 18.5424 11.8221 18.2947 11.9184 17.8908C12.0433 17.367 12.1457 16.8491 12.2263 16.3382C14.9966 16.3661 17.8055 16.9052 20.5792 17.9421C21.7435 18.3773 22.4668 19.0489 22.4668 19.6948C22.4668 20.6584 20.9708 21.461 19.493 21.7558Z" fill="#62C0CB"/>
</g>
<defs>
<clipPath id="clip0">
<rect width="24" height="24" fill="white"/>
</clipPath>
</defs>
</svg>
