<svg width="45" height="45" viewBox="0 0 45 45" fill="none" xmlns="http://www.w3.org/2000/svg">
<path d="M38.4008 0H6.5996C5.90866 0 5.35059 0.558071 5.35059 1.24902V42.0945C5.35059 42.7854 5.90866 43.3435 6.5996 43.3435H9.00905V43.751C9.00905 44.4419 9.56712 45 10.2581 45C10.949 45 11.5071 44.4419 11.5071 43.751V43.3435H33.4933V43.751C33.4933 44.4419 34.0514 45 34.7423 45C35.4333 45 35.9913 44.4419 35.9913 43.751V43.3435H38.4008C39.0917 43.3435 39.6498 42.7854 39.6498 42.0945V1.24902C39.6498 0.558071 39.0917 0 38.4008 0ZM37.1518 40.8455H7.84862V29.7283H37.1518V40.8455ZM37.1518 27.2303H7.84862V16.1132H37.1518V27.2303ZM37.1518 13.6152H7.84862V2.49803H37.1518V13.6152Z" fill="#BFBFBF"/>
<path d="M23.7311 34.0422H21.2685C20.5776 34.0422 20.0195 34.6003 20.0195 35.2913C20.0195 35.9733 20.5776 36.5403 21.2685 36.5403H23.7311C24.4221 36.5403 24.9802 35.9822 24.9802 35.2913C24.9802 34.6003 24.4221 34.0422 23.7311 34.0422Z" fill="#BFBFBF"/>
<path d="M23.7311 20.4272H21.2685C20.5776 20.4272 20.0195 20.9853 20.0195 21.6762C20.0195 22.3583 20.5776 22.9252 21.2685 22.9252H23.7311C24.4221 22.9252 24.9802 22.3672 24.9802 21.6762C24.9802 20.9853 24.4221 20.4272 23.7311 20.4272Z" fill="#BFBFBF"/>
<path d="M23.7311 6.81195H21.2685C20.5776 6.81195 20.0195 7.37002 20.0195 8.06097C20.0195 8.75191 20.5776 9.30998 21.2685 9.30998H23.7311C24.4221 9.30998 24.9802 8.75191 24.9802 8.06097C24.9802 7.37002 24.4221 6.81195 23.7311 6.81195Z" fill="#BFBFBF"/>
</svg>
