<svg width="45" height="45" viewBox="0 0 45 45" fill="none" xmlns="http://www.w3.org/2000/svg">
<g clip-path="url(#clip0)">
<path d="M44.9932 9.29395C44.8754 5.18454 43.5706 2.26438 43.5151 2.14204L43.3104 1.6909L42.8593 1.4862C42.7369 1.43074 39.8168 0.125832 35.7073 0.00814645C31.8973 -0.100662 26.2998 0.825704 21.2655 5.85998L7.98562 19.1398L13.1912 24.3454L1.545 35.9916C-0.513046 38.0496 -0.513046 41.3983 1.545 43.4564C2.57411 44.4855 3.92578 45 5.27745 45C6.62911 45 7.98087 44.4855 9.00989 43.4564L20.6561 31.8103L25.8617 37.0158L39.1414 23.736C44.1757 18.7016 45.1023 13.1036 44.9932 9.29395ZM7.1453 41.5918C6.11531 42.6218 4.43941 42.6217 3.40951 41.5918C2.37952 40.5619 2.37952 38.886 3.40951 37.8561L11.2732 29.9924L15.009 33.7282L7.1453 41.5918ZM16.8735 31.8636L13.1377 28.1278L15.0556 26.2099L18.7914 29.9457L16.8735 31.8636ZM19.7219 27.147L17.8543 25.2795L29.0174 14.1164C29.5323 13.6016 30.3701 13.6017 30.885 14.1164C31.3998 14.6313 31.3998 15.4691 30.885 15.984L19.7219 27.147ZM37.2767 21.8713L25.8615 33.2865L21.5864 29.0115L32.7495 17.8484C33.497 17.1009 33.9087 16.1072 33.9087 15.0502C33.9087 13.9931 33.497 12.9993 32.7495 12.2518C32.002 11.5043 31.0082 11.0926 29.9511 11.0926C28.8941 11.0926 27.9003 11.5043 27.1529 12.2518L15.9898 23.4149L11.7147 19.1398L23.13 7.72449C26.6124 4.24209 30.785 2.5328 35.5309 2.64126C38.2426 2.70375 40.3926 3.37198 41.3008 3.70332C41.6288 4.59647 42.2806 6.68721 42.3574 9.36953C42.4945 14.1568 40.7851 18.363 37.2767 21.8713Z" fill="#BFBFBF"/>
</g>
<defs>
<clipPath id="clip0">
<rect width="45" height="45" fill="white"/>
</clipPath>
</defs>
</svg>
