<svg width="50" height="50" viewBox="0 0 50 50" fill="none" xmlns="http://www.w3.org/2000/svg">
<g clip-path="url(#clip0)">
<path d="M32.012 3.39408C32.4165 3.39408 32.7448 3.06581 32.7448 2.66133C32.7117 1.69127 31.3122 1.69157 31.2793 2.66133C31.2793 3.06581 31.6075 3.39408 32.012 3.39408Z" fill="#383838"/>
<path d="M39.4378 3.39408C39.8423 3.39408 40.1706 3.06581 40.1706 2.66133C40.1375 1.69127 38.738 1.69157 38.7051 2.66133C38.7051 3.06581 39.0333 3.39408 39.4378 3.39408Z" fill="#383838"/>
<path d="M28.2972 3.39408C28.7017 3.39408 29.0299 3.06581 29.0299 2.66133C28.9968 1.69127 27.5974 1.69157 27.5645 2.66133C27.5645 3.06581 27.8926 3.39408 28.2972 3.39408Z" fill="#383838"/>
<path d="M35.723 3.39408C36.1275 3.39408 36.4557 3.06581 36.4557 2.66133C36.4226 1.69127 35.0232 1.69157 34.9902 2.66133C34.9902 3.06581 35.3184 3.39408 35.723 3.39408Z" fill="#383838"/>
<path d="M43.1488 3.39408C43.5532 3.39408 43.8815 3.06581 43.8815 2.66133C43.8484 1.69127 42.4489 1.69157 42.416 2.66133C42.416 3.06581 42.7442 3.39408 43.1488 3.39408Z" fill="#383838"/>
<path d="M46.7562 3.50059C47.1607 3.50059 47.4889 3.17232 47.4889 2.76784C47.4558 1.79778 46.0564 1.79807 46.0234 2.76784C46.0234 3.17232 46.3516 3.50059 46.7562 3.50059Z" fill="#383838"/>
<path d="M46.7562 7.21314C47.1607 7.21314 47.4889 6.88487 47.4889 6.48039C47.4558 5.51034 46.0564 5.51063 46.0234 6.48039C46.0234 6.88487 46.3516 7.21314 46.7562 7.21314Z" fill="#383838"/>
<path d="M46.7562 10.9257C47.1607 10.9257 47.4889 10.5975 47.4889 10.193C47.4551 9.22304 46.057 9.22333 46.0234 10.193C46.0234 10.5975 46.3516 10.9257 46.7562 10.9257Z" fill="#383838"/>
<path d="M2.21126 39.9513C2.61574 39.9513 2.94401 39.623 2.94401 39.2185C2.91089 38.2485 1.51144 38.2488 1.47852 39.2185C1.47852 39.623 1.80669 39.9513 2.21126 39.9513Z" fill="#383838"/>
<path d="M6.28548 42.4231C5.88101 42.4231 5.55273 42.7504 5.55273 43.1558C5.58615 44.1245 6.98501 44.1243 7.01823 43.1558C7.01823 42.7503 6.69006 42.4231 6.28548 42.4231Z" fill="#383838"/>
<path d="M10.2933 42.4231C9.88882 42.4231 9.56055 42.7504 9.56055 43.1558C9.59396 44.1245 10.9928 44.1243 11.026 43.1558C11.026 42.7503 10.6979 42.4231 10.2933 42.4231Z" fill="#383838"/>
<path d="M2.27962 42.4231C1.87515 42.4231 1.54688 42.7504 1.54688 43.1558C1.58029 44.1245 2.97915 44.1243 3.01237 43.1558C3.01237 42.7503 2.6842 42.4231 2.27962 42.4231Z" fill="#383838"/>
<path d="M2.21126 31.9399C2.61574 31.9399 2.94401 31.6116 2.94401 31.2072C2.91089 30.2371 1.51144 30.2374 1.47852 31.2072C1.47852 31.6116 1.80669 31.9399 2.21126 31.9399Z" fill="#383838"/>
<path d="M2.21126 35.9456C2.61574 35.9456 2.94401 35.6173 2.94401 35.2128C2.91021 34.2429 1.51212 34.2432 1.47852 35.2128C1.47852 35.6173 1.80669 35.9456 2.21126 35.9456Z" fill="#383838"/>
<path d="M2.21126 27.9342C2.61574 27.9342 2.94401 27.606 2.94401 27.2015C2.91089 26.2314 1.51144 26.2317 1.47852 27.2015C1.47852 27.606 1.80669 27.9342 2.21126 27.9342Z" fill="#383838"/>
<path d="M49.2784 34.5106C48.8713 34.4851 48.5267 34.7926 48.5016 35.1965C48.3694 37.3222 47.872 39.3334 47.02 41.194C45.3866 38.0723 42.8224 35.4604 39.6033 33.7837C44.0126 29.6525 44.2788 22.0891 39.9792 17.651C39.5126 17.2895 39.1128 17.3525 38.7801 17.8401C35.4868 24.8699 28.1314 27.0674 20.8987 25.6651C20.3521 25.6366 20.0621 25.8955 20.0289 26.4418C20.2478 29.2324 21.466 31.8286 23.468 33.7855C20.2663 35.4533 17.7137 38.0435 16.0802 41.1414C14.0379 36.7509 14.0002 31.3543 16.0206 26.9639L17.0545 27.7239C17.5336 28.0761 18.2212 27.7217 18.2212 27.1335V24.445H19.2975C21.0004 24.445 22.6147 23.769 23.8432 22.5415C25.0716 21.3139 25.7483 19.7005 25.7483 17.9985V9.92002C35.3384 5.70898 46.5141 13.0923 46.3937 23.5786C46.3938 24.5067 46.4369 25.5873 46.9522 26.6651C47.5955 28.0108 48.0697 29.602 48.3237 31.2665C48.4638 32.1847 49.9166 31.9911 49.7723 31.0455C49.497 29.2403 48.979 27.5071 48.2744 26.0331C47.9288 25.31 47.8593 24.5577 47.8593 23.5784C48.0207 12.3475 36.1676 4.19874 25.7482 8.33934V6.44651C25.7482 2.89191 22.8544 0 19.2974 0H6.48597C2.92902 0 0.0351562 2.89191 0.0351562 6.44651V7.91406C0.0351562 8.86145 1.50065 8.86145 1.50065 7.91406V6.44651C1.50065 3.69998 3.73699 1.46549 6.48597 1.46549H19.2974C22.0464 1.46549 24.2827 3.69998 24.2827 6.44651V17.9983C24.2827 20.6983 21.9998 22.9793 19.2974 22.9793H17.4884C17.0836 22.9793 16.7557 23.3073 16.7557 23.7121V25.6852L13.2682 23.1217C13.1423 23.0293 12.9902 22.9793 12.8342 22.9793H6.48597C3.73699 22.9793 1.50065 20.7448 1.50065 17.9983V11.8208C1.50065 10.8734 0.0351562 10.8734 0.0351562 11.8208V17.9983C0.0351562 21.553 2.92902 24.4448 6.48597 24.4448H12.5938L14.8159 26.0783C12.3096 31.2706 12.5111 37.7938 15.2948 42.8466C14.4948 44.8616 14.0631 47.0417 14.0631 49.2893C14.0631 50.2367 15.5285 50.2367 15.5285 49.2893C15.5285 43.0958 19.1065 37.4631 24.6807 34.8187C28.5577 37.8236 34.5815 37.7763 38.3901 34.8167C43.9644 37.46 47.5466 43.1017 47.5466 49.2893C47.5466 50.2367 49.012 50.2367 49.012 49.2893C49.012 47.0647 48.5878 44.9048 47.8014 42.9051C49.067 40.5803 49.7944 38.0193 49.9642 35.2873C49.9892 34.8835 49.6823 34.5357 49.2784 34.5106ZM25.2681 33.4224C23.4016 31.7498 22.0495 29.7924 21.6095 27.2759C28.7386 28.3722 35.9957 26.0828 39.5966 19.4714C46.4575 29.0973 34.699 40.534 25.2681 33.4224Z" fill="#383838"/>
<path d="M13.8846 5.64236C13.2042 5.46454 12.4296 5.75999 12.1123 6.4093L10.373 9.96576C8.73902 8.22368 5.74463 9.39353 5.74805 11.8105V16.3039C5.77169 18.9903 9.25077 19.9754 10.6877 17.7474C11.3475 18.2919 12.1743 18.5897 13.0363 18.5897C14.338 18.5897 15.6396 18.5842 16.9413 18.5876C17.7001 18.5876 18.3607 18.0748 18.5479 17.3435L19.9772 11.761C20.1839 10.7197 19.4833 9.66983 18.3734 9.66983C17.2656 9.67334 16.1577 9.67315 15.0499 9.67364V7.1311C15.0499 6.42337 14.5816 5.82506 13.8846 5.64236ZM8.42922 17.5196C7.759 17.5196 7.21364 16.9742 7.21364 16.3039V11.8105C7.27998 10.1987 9.57807 10.1975 9.64499 11.8105C9.60748 13.3067 9.62887 14.8074 9.64499 16.3039C9.6449 16.9742 9.09954 17.5196 8.42922 17.5196ZM18.3721 11.1354C18.5028 11.1641 18.5879 11.2608 18.5579 11.3958L17.1335 16.9599L17.1294 16.9755C17.1072 17.062 17.0298 17.1223 16.941 17.1223C15.6394 17.1186 14.3378 17.1243 13.0362 17.1243C12.2227 17.1243 11.2166 16.6062 11.1103 15.7154V11.9649C11.128 11.816 11.1708 11.6698 11.2366 11.5353L13.4158 7.07971C13.4902 7.03663 13.5463 7.05382 13.5844 7.1312V10.4067C13.5844 10.8114 13.9124 11.1394 14.3172 11.1394C15.0168 11.1394 18.1454 11.1362 18.3721 11.1354Z" fill="#383838"/>
</g>
<defs>
<clipPath id="clip0">
<rect width="50" height="50" fill="white"/>
</clipPath>
</defs>
</svg>
